<svg xmlns="http://www.w3.org/2000/svg" xmlns:xlink="http://www.w3.org/1999/xlink" width="88.896" height="88.896" viewBox="0 0 88.896 88.896">
  <defs>
    <clipPath id="clip-path">
      <rect id="Rectángulo_402488" data-name="Rectángulo 402488" width="50.243" height="56.814" fill="#224b74"/>
    </clipPath>
  </defs>
  <g id="Grupo_1102070" data-name="Grupo 1102070" transform="translate(-756.776 -909.656)">
    <g id="Grupo_1098742" data-name="Grupo 1098742" transform="translate(756.776 909.656)">
      <rect id="Rectángulo_400898" data-name="Rectángulo 400898" width="88.896" height="88.896" rx="44.448" fill="#d9eafa" opacity="0.999"/>
      <g id="Rectángulo_400907" data-name="Rectángulo 400907" transform="translate(0)" fill="none" stroke="#0f1f33" stroke-linecap="round" stroke-width="2" stroke-dasharray="7">
        <rect width="88.896" height="88.896" rx="44.448" stroke="none"/>
        <rect x="1" y="1" width="86.896" height="86.896" rx="43.448" fill="none"/>
      </g>
    </g>
    <g id="Grupo_1102012" data-name="Grupo 1102012" transform="translate(776.278 925.697)">
      <g id="Grupo_1102011" data-name="Grupo 1102011" clip-path="url(#clip-path)">
        <path id="Trazado_892649" data-name="Trazado 892649" d="M48.195,50.2H41.883v6.615H8.465V50.226H2.078C1.357,46.421-.05,42.89,0,38.98c.133-10.065.057-20.133.024-30.2a2.269,2.269,0,0,1,1-2.026C3.661,4.72,6.227,2.6,8.856.551A2.613,2.613,0,0,1,10.339.023q14.822-.046,29.645,0A2.431,2.431,0,0,1,41.375.5q4.155,3.246,8.23,6.591a1.88,1.88,0,0,1,.613,1.278q.05,16.543.009,33.086a9.084,9.084,0,0,1-.377,2.059c-.529,2.19-1.081,4.375-1.655,6.689M11.877,29.737V53.452H38.418V29.739c-3.936.953-7.781,1.85-11.6,2.832a6.516,6.516,0,0,1-3.362-.019c-3.824-.975-7.668-1.872-11.575-2.815M4.356,8.417A24.906,24.906,0,0,1,10.6,18.3c.095.281.572.529.915.615q6.506,1.622,13.028,3.176a2.659,2.659,0,0,0,1.19.011c4.312-1.027,8.612-2.1,12.929-3.107a1.693,1.693,0,0,0,1.252-1.172A59.907,59.907,0,0,1,42.9,12.034a36.211,36.211,0,0,1,2.941-3.686c-1.581-1.269-3.264-2.431-4.71-3.836-1.325-1.287-2.779-1.277-4.36-1.087-1.5,6.059-5.669,9.774-11.113,9.934-6.038.178-10.06-3.1-12.246-10.091-.97.094-2.2-.144-2.945.353-2.11,1.41-4.02,3.12-6.115,4.8m-.891,4V40.071H8.372c.025-.3.058-.518.058-.734,0-4.624.078-9.25-.043-13.87A25.217,25.217,0,0,0,7.534,19.9a18.175,18.175,0,0,0-4.069-7.487m43.37.217c-.129.029-.21.025-.259.063a1.435,1.435,0,0,0-.225.245,18.443,18.443,0,0,0-4.3,10.628c-.231,5.391-.138,10.795-.178,16.193a.987.987,0,0,0,.127.315h4.831ZM11.582,22.414c.074,1.129.187,2.083.183,3.037,0,.649.241.875.857,1.019,3.954.927,7.9,1.907,11.847,2.848a2.657,2.657,0,0,0,1.182.036q6.092-1.436,12.168-2.935c.246-.06.623-.283.641-.46.118-1.146.154-2.3.22-3.531-4.245,1.028-8.328,2.041-12.428,2.987a4.951,4.951,0,0,1-2.155.01c-4.135-.954-8.254-1.977-12.516-3.01M17.068,3.4c.549,3.975,4.517,6.912,8.847,6.6,3.6-.263,7.229-3.576,7.224-6.6ZM4.7,46.784H8.353v-3.21H3.912l.792,3.21M46.379,43.6H41.921v3.184h3.657l.8-3.184" transform="translate(-0.001 0)" fill="#224b74"/>
      </g>
    </g>
  </g>
</svg>
