<svg xmlns="http://www.w3.org/2000/svg" xmlns:xlink="http://www.w3.org/1999/xlink" width="88.896" height="88.896" viewBox="0 0 88.896 88.896">
  <defs>
    <clipPath id="clip-path">
      <rect id="Rectángulo_402489" data-name="Rectángulo 402489" width="40.305" height="63.926" fill="#224b74" stroke="#224b74" stroke-width="1"/>
    </clipPath>
  </defs>
  <g id="Grupo_1102071" data-name="Grupo 1102071" transform="translate(-1176.285 -909.656)">
    <g id="Grupo_1098742" data-name="Grupo 1098742" transform="translate(1176.285 909.656)">
      <rect id="Rectángulo_400898" data-name="Rectángulo 400898" width="88.896" height="88.896" rx="44.448" fill="#d9eafa" opacity="0.999"/>
      <g id="Rectángulo_400907" data-name="Rectángulo 400907" transform="translate(0)" fill="none" stroke="#0f1f33" stroke-linecap="round" stroke-width="2" stroke-dasharray="7">
        <rect width="88.896" height="88.896" rx="44.448" stroke="none"/>
        <rect x="1" y="1" width="86.896" height="86.896" rx="43.448" fill="none"/>
      </g>
    </g>
    <g id="Grupo_1102014" data-name="Grupo 1102014" transform="translate(1200.58 922.141)">
      <g id="Grupo_1102013" data-name="Grupo 1102013" clip-path="url(#clip-path)">
        <path id="Trazado_892650" data-name="Trazado 892650" d="M20.037,22.409q-.447,4.336-.894,8.673Q17.716,45.167,16.3,59.254a23.781,23.781,0,0,1-.4,3.426,1.825,1.825,0,0,1-1.24,1.16c-2.835.105-5.676.051-8.516.055-1.015,0-1.236-.694-1.325-1.5q-.7-6.342-1.4-12.685C2.39,40.467,1.473,31.2.286,21.977a37.259,37.259,0,0,1,1.5-15.869c.465-1.522.819-3.08,1.173-4.634A1.615,1.615,0,0,1,4.782,0Q20.221.052,35.658.011c.857,0,1.443.205,1.656,1.14.963,4.227,2.3,8.4,2.827,12.682a46.367,46.367,0,0,1-.372,10.181c-.946,9.3-2.041,18.587-3.075,27.879-.382,3.435-.783,6.869-1.122,10.308-.124,1.255-.645,1.768-1.962,1.722-2.525-.09-5.057-.049-7.585-.015-1.035.014-1.517-.371-1.623-1.444q-1.42-14.421-2.9-28.836-.569-5.609-1.152-11.216l-.311,0M3.422,8.536H5.4c4.256,0,6.271,2.011,6.271,6.261q0,22.681,0,45.362v1.531h2.163c.07-.362.152-.66.183-.963q2.006-19.841,4.018-39.681a8.181,8.181,0,0,1,.477-1.623,6.873,6.873,0,0,0,.578-1.773c.064-2.615.028-5.232.028-7.848V6.483H3.957L3.422,8.536M21.269,6.441c0,4.054-.007,7.989.016,11.924,0,.267.246.528.359.8a6.959,6.959,0,0,1,.7,1.8q1.773,17.191,3.477,34.388c.212,2.109.446,4.215.669,6.313h2.217V59.98q0-22.879,0-45.758a5.323,5.323,0,0,1,5.644-5.684c.832-.007,1.665,0,2.623,0l-.605-2.095ZM33.45,61.7c1.6-14.41,3.2-28.669,4.752-42.934a21.048,21.048,0,0,0-.738-8.089c-.923,0-1.806,0-2.688,0-2.8.005-3.928,1.143-3.929,3.965q0,22.868,0,45.736c0,.43.037.86.058,1.322Zm-23.912.028V60.555q0-23.069,0-46.138a7.361,7.361,0,0,0-.026-.93,3.094,3.094,0,0,0-2.665-2.753c-1.3-.119-2.625-.026-3.942-.026-.114.407-.2.7-.278,1-.988,4.015-.361,8.02.082,12.024Q4.4,38.987,6.1,54.238c.278,2.491.575,4.981.865,7.487Zm-5-57.541H35.853l-.54-1.961H5.052L4.538,4.184" transform="translate(0 0)" fill="#224b74" stroke="#224b74" stroke-width="1"/>
      </g>
    </g>
  </g>
</svg>
