<svg xmlns="http://www.w3.org/2000/svg" xmlns:xlink="http://www.w3.org/1999/xlink" width="88.896" height="88.896" viewBox="0 0 88.896 88.896">
  <defs>
    <clipPath id="clip-path">
      <rect id="Rectángulo_402492" data-name="Rectángulo 402492" width="51.106" height="56.721" fill="#224b74" stroke="#224b74" stroke-width="1"/>
    </clipPath>
  </defs>
  <g id="Grupo_1102074" data-name="Grupo 1102074" transform="translate(-1176.285 -1276.656)">
    <g id="Grupo_1098742" data-name="Grupo 1098742" transform="translate(1176.285 1276.656)">
      <rect id="Rectángulo_400898" data-name="Rectángulo 400898" width="88.896" height="88.896" rx="44.448" fill="#d9eafa" opacity="0.999"/>
      <g id="Rectángulo_400907" data-name="Rectángulo 400907" transform="translate(0)" fill="none" stroke="#0f1f33" stroke-linecap="round" stroke-width="2" stroke-dasharray="7">
        <rect width="88.896" height="88.896" rx="44.448" stroke="none"/>
        <rect x="1" y="1" width="86.896" height="86.896" rx="43.448" fill="none"/>
      </g>
    </g>
    <g id="Grupo_1102020" data-name="Grupo 1102020" transform="translate(1194.264 1292.744)">
      <g id="Grupo_1102019" data-name="Grupo 1102019" clip-path="url(#clip-path)">
        <path id="Trazado_892656" data-name="Trazado 892656" d="M65.159,66.484c-8.406,2.8-16.4,1.985-24.407-.51-.566,1.3-1.018,2.576-1.657,3.751a41.509,41.509,0,0,1-3.262,5.408,29.882,29.882,0,0,1-3.652,3.46c-1.355,1.257-2.724,2.5-4.052,3.786a7.166,7.166,0,0,0-.821,1.265c3.072,1.935,6.072,3.752,9.661,4.106a3.132,3.132,0,0,1,2.411,1.361,15.52,15.52,0,0,1,2.687,7.164c.047.324.1.647.2,1.217.852-.451,1.59-.811,2.3-1.224.623-.364,1.213-.51,1.636.211.393.67-.043,1.112-.571,1.464-4.564,3.048-12.114,4.423-17.465-.289A11.745,11.745,0,0,1,25.679,82.5a15.142,15.142,0,0,1,4.831-5.12A15.224,15.224,0,0,0,36.49,70.5c1.39-3.067,2.525-6.257,3.628-9.443.709-2.046,1.378-2.511,3.454-1.8a29.7,29.7,0,0,0,9.7,1.637c.169,0,.338,0,.507.007.666.027,1.2.277,1.185,1.022s-.588.968-1.24.974a31.633,31.633,0,0,1-9.738-1.414c-.516-.16-1.035-.311-1.705-.513l-.831,2.791c4.149,2.877,18.314,3.3,22.363.722l-.221-3.24c-1.435.352-2.769.7-4.112,1-1.28.292-1.86.1-2.021-.614-.155-.688.277-1.027,1.609-1.363q1.9-.479,3.785-1.041c1.8-.54,2.878.149,2.839,2a8.535,8.535,0,0,0,.853,3.9,29.708,29.708,0,0,1,2.327,8.139,8.769,8.769,0,0,1-1.678,6.466,12.632,12.632,0,0,1-4.9,4.307c-1.292.627-2.587,1.248-3.894,1.843a15.038,15.038,0,0,0-5.623,4.619c-.961,1.232-1.953,2.441-2.943,3.65-.213.26-.442.6-.728.683-.387.113-.993.177-1.215-.038a1.234,1.234,0,0,1-.135-1.2c2.851-3.24,4.94-7.243,9.087-9.2,1.6-.757,3.227-1.481,4.792-2.312a10.311,10.311,0,0,0,4.583-4.755,6.232,6.232,0,0,0,.547-4.192c-.511-2.165-1.044-4.325-1.608-6.652m-38.816,19a20.5,20.5,0,0,0-.462,2.937C25.818,95.8,32.9,99.887,39.235,98.468a.989.989,0,0,0,.872-1.166,12.335,12.335,0,0,0-2.281-6.871,1.669,1.669,0,0,0-1.018-.628c-3.444-.44-6.416-2.025-9.34-3.746-.283-.167-.585-.3-1.125-.574" transform="translate(-17.859 -44.002)" fill="#224b74" stroke="#224b74" stroke-width="1"/>
        <path id="Trazado_892657" data-name="Trazado 892657" d="M41.006,7.589C32.8,10.3,24.843,9.525,16.8,7.013c-.225.5-.454.979-.658,1.467-1.456,3.487-3.059,6.9-5.872,9.53C9.1,19.1,7.724,19.959,6.466,20.952a13.394,13.394,0,0,0-3.06,3.555,3.338,3.338,0,0,0,.553.591,26.1,26.1,0,0,0,7.917,3.611q.31.068.617.143a.891.891,0,0,1,.794,1.094.912.912,0,0,1-1.233.751,9.393,9.393,0,0,1-1.965-.474c-2.116-.944-4.2-1.958-6.294-2.954-.406-.193-.794-.422-1.248-.664a7.086,7.086,0,0,0-.554,4.438,9.962,9.962,0,0,0,2.776,5.584l.267.271c.452.46.78.993.225,1.538-.523.513-1.1.294-1.571-.164A11.471,11.471,0,0,1,.033,28.911c.33-4.612,2.875-8,6.56-10.473a18.4,18.4,0,0,0,5.99-6.9,45.563,45.563,0,0,0,3.609-9.454C16.778-.037,17.506-.376,19.628.34A29.13,29.13,0,0,0,38.18.52,8.18,8.18,0,0,1,39.52.153c1.3-.177,2.263.511,2.187,1.805a11.318,11.318,0,0,0,1.2,4.975c.6,1.483.985,3.05,1.456,4.583a3.646,3.646,0,0,1,.14.746c.055.631-.2,1.193-.842,1.164a1.5,1.5,0,0,1-1.074-.806c-.379-.978-.558-2.033-.858-3.045-.189-.639-.452-1.256-.72-1.987M17.388,5.055c7.577,2.508,14.988,3.21,22.491.677-.095-1.29-.17-2.328-.26-3.553a31.59,31.59,0,0,1-21.332-.2l-.9,3.076" transform="translate(0 0)" fill="#224b74" stroke="#224b74" stroke-width="1"/>
      </g>
    </g>
  </g>
</svg>
