<svg xmlns="http://www.w3.org/2000/svg" xmlns:xlink="http://www.w3.org/1999/xlink" width="89" height="89" viewBox="0 0 89 89">
  <defs>
    <clipPath id="clip-path">
      <rect id="Rectángulo_402351" data-name="Rectángulo 402351" width="53.61" height="53.618" fill="#224b74" stroke="#224b74" stroke-width="1"/>
    </clipPath>
  </defs>
  <g id="Grupo_1102076" data-name="Grupo 1102076" transform="translate(-756.052 -1953)">
    <g id="Grupo_1098742" data-name="Grupo 1098742" transform="translate(-447.269 1564.258)">
      <rect id="Rectángulo_400898" data-name="Rectángulo 400898" width="89" height="89" rx="44.5" transform="translate(1203.32 388.742)" fill="#d9eafa" opacity="0.999"/>
      <g id="Rectángulo_400907" data-name="Rectángulo 400907" transform="translate(1203.32 388.742)" fill="none" stroke="#0f1f33" stroke-linecap="round" stroke-width="2" stroke-dasharray="7">
        <rect width="89" height="89" rx="44.5" stroke="none"/>
        <rect x="1" y="1" width="87" height="87" rx="43.5" fill="none"/>
      </g>
    </g>
    <g id="Grupo_1101952" data-name="Grupo 1101952" transform="translate(773.747 1970.691)">
      <g id="Grupo_1101951" data-name="Grupo 1101951" clip-path="url(#clip-path)">
        <path id="Trazado_892548" data-name="Trazado 892548" d="M6.209,19.154c0-1.6-.01-3.675,0-5.751A24.139,24.139,0,0,1,8.561,3.17,5.214,5.214,0,0,1,13.5.014c3.553-.155,4.476,1.009,4.324,4.344A71.906,71.906,0,0,1,15.74,19c-.037.144-.044.333-.139.417-.346.3-.743.828-1.086.8-.67-.05-.77-.639-.637-1.28.544-2.616,1.186-5.22,1.545-7.862.355-2.608.421-5.255.59-7.887a1.615,1.615,0,0,0-.388-1.082c-.17.352-.353.7-.509,1.056A37.089,37.089,0,0,0,12.4,18.188c0,1.918.282,3.094,2.309,3.751a19.213,19.213,0,0,1,4,2.381c.578.365,1.033.888.5,1.556-.486.613-1.047.285-1.556-.108A21.031,21.031,0,0,0,7.034,21.532a1.994,1.994,0,0,0-2.241.96c-.546.917-1.15,1.8-1.965,3.063a7.759,7.759,0,0,0,2.2.189,1.462,1.462,0,0,1,1.665.442,1.769,1.769,0,0,0,2.424.233,1.64,1.64,0,0,1,1.267-.194c.23.1.334.747.309,1.138a1.755,1.755,0,0,0,2.279,2.024,1.048,1.048,0,0,1,1.4.7c.028.069.041.168.093.2a8.07,8.07,0,0,1,3.337,3.378c.078.164.463.252.708.257,1.036.021,1.323.459,1.173,1.5a2.371,2.371,0,0,0,.613,1.655,1.3,1.3,0,0,1,.349,1.579,1.587,1.587,0,0,0,.507,2,1.334,1.334,0,0,1,.422,1.564,7.071,7.071,0,0,0,.09,1.926l.448.173c1.138-.8,2.3-1.575,3.4-2.431a1.332,1.332,0,0,0,.251-1,20.473,20.473,0,0,0-4.9-12.076c-.072-.085-.143-.171-.217-.255-.427-.481-.606-1.079,0-1.419a1.4,1.4,0,0,1,1.314.26,19.141,19.141,0,0,1,2.307,3.133c.921,1.637,1.668,3.371,2.543,5.175A22.962,22.962,0,0,1,38.361,22.069c-.733-3.719-1.576-7.3-2.108-10.924a78.159,78.159,0,0,1-.572-8.333A2.6,2.6,0,0,1,38.392.047a16.637,16.637,0,0,1,2.452.03,4.84,4.84,0,0,1,3.965,2.876A24.263,24.263,0,0,1,47.27,13.943q-.015,1.394,0,2.789c.008.667-.143,1.239-.944,1.213-.729-.024-.84-.575-.856-1.191a39.858,39.858,0,0,0-.264-6.113,42.915,42.915,0,0,0-2.049-6.9c-.529-1.446-1.675-1.947-3.364-1.816,2.676,5.868,3.3,12.055,2.97,18.377,1.479-.212,2.8-.377,4.118-.6a2.73,2.73,0,0,1,2.793,1.134,15.176,15.176,0,0,1,3.736,9.128c.168,4.783.557,9.621-.6,14.328a78.967,78.967,0,0,1-2.833,8.416,1.819,1.819,0,0,1-1.33.846c-1.215.12-2.45.031-3.677.043-.662.006-1.259-.137-1.243-.92s.635-.889,1.285-.878a21.9,21.9,0,0,0,2.674-.027,1.505,1.505,0,0,0,1.068-.642A32.467,32.467,0,0,0,51.7,38.843c-2.768,4.571-6.485,7.382-11.479,8.25a15.952,15.952,0,0,1-13.467-3.825l-1.025.79a15.866,15.866,0,0,1-18.463.683c-.277-.184-.63-.354-.765-.622a1.133,1.133,0,0,1-.043-.986A1.371,1.371,0,0,1,7.488,42.8c.294.022.566.326.85.5a14.019,14.019,0,0,0,11.222,1.81,2.312,2.312,0,0,0,.357-.13c-.088-1.029-.148-1.967-.261-2.9-.033-.272-.256-.515-.33-.788-.217-.808-.4-1.624-.6-2.436a7.625,7.625,0,0,1-.279-1.119c-.19-2.16-2.627-2.743-3.213-4.617C13.94,32.81,13.4,31.265,11.885,31.2a2.929,2.929,0,0,1-2.576-1.884.991.991,0,0,0-1.254-.728,1.013,1.013,0,0,1-.444-.017c-1.677-.458-3.351-.924-5.165-1.427A12.177,12.177,0,0,0,1.825,32.6a14.159,14.159,0,0,0,3.033,7.544c.07.087.139.174.207.263.381.5.567,1.106-.053,1.425a1.457,1.457,0,0,1-1.3-.32c-.614-.608-1.07-1.376-1.809-2.006a30.141,30.141,0,0,0,.746,3.873c.837,2.568,1.832,5.084,2.767,7.62a1.134,1.134,0,0,0,1.249.819c2.937-.046,5.875-.014,8.812-.024a7.646,7.646,0,0,0,4.92-1.8c4.1-3.329,8.6-3.33,12.691,0A7.735,7.735,0,0,0,38.112,51.8a21.79,21.79,0,0,1,2.784.043c.362.047.669.525,1,.807-.3.312-.586.877-.906.9-3.392.218-6.636,0-9.421-2.434a7.294,7.294,0,0,0-9.712.011,10.307,10.307,0,0,1-7.077,2.482c-2.973-.059-5.949-.035-8.924,0a1.591,1.591,0,0,1-1.594-.934A32.675,32.675,0,0,1,.024,37.587,70.661,70.661,0,0,1,.454,27.7a12.63,12.63,0,0,1,3.511-6.967,13.96,13.96,0,0,1,2.244-1.58M33.56,44.916c4.22,1.746,10.466.118,14.2-3.762,3.553-3.695,5.027-10.016,3.29-13.8a24.45,24.45,0,0,0-2.508.349c-.8.193-1.56.551-2.346.808a1.71,1.71,0,0,1-.77.075c-.64-.1-.963.112-1.257.731a3.447,3.447,0,0,1-3.9,1.882c-.6-.149-1.224-.359-1.071-1.151.149-.77.695-.78,1.379-.639a1.794,1.794,0,0,0,2.2-2.048c-.024-.39.079-1.038.308-1.136a1.639,1.639,0,0,1,1.266.192,1.77,1.77,0,0,0,2.425-.23,1.468,1.468,0,0,1,1.664-.446,6.069,6.069,0,0,0,1.895-.153l.1-.421c-.7-1.036-1.355-2.113-2.137-3.085a1.769,1.769,0,0,0-1.3-.548A20.914,20.914,0,0,0,27.7,40.95c-.019.3.026.754.22.9,1.125.863,2.3,1.655,3.464,2.472l.471-.225c.018-.647,0-1.3.064-1.94a2.485,2.485,0,0,1,.313-1.356,2.083,2.083,0,0,0,.574-2.317,1.485,1.485,0,0,1,.3-1.245,2.318,2.318,0,0,0,.7-2.1c-.049-.353.39-1.091.66-1.119a2.1,2.1,0,0,0,2.143-1.989,1.156,1.156,0,0,1,.926-.677c.3.038.8.624.744.867-.178.805-.349,1.86-.919,2.279A5.667,5.667,0,0,0,35.1,37.65c-.122.438-.231.88-.345,1.32-.2.776-.392,1.554-.605,2.326a7.315,7.315,0,0,0-.319.9c-.116.865-.18,1.736-.275,2.724M13.718,1.864A3.389,3.389,0,0,0,10.171,3.95C7.619,9.017,7.936,14.441,8.046,19.86l2.674.489c-.331-6.387.279-12.543,3-18.485m24.141.256-.367.09A57.287,57.287,0,0,0,40.375,21.2c.3-.226.589-.5.615-.788.069-.774,0-1.559.027-2.338A34.389,34.389,0,0,0,38.364,3.181c-.155-.359-.337-.707-.506-1.061" transform="translate(0 0)" fill="#224b74" stroke="#224b74" stroke-width="1"/>
      </g>
    </g>
  </g>
</svg>
