<svg xmlns="http://www.w3.org/2000/svg" xmlns:xlink="http://www.w3.org/1999/xlink" width="89" height="89" viewBox="0 0 89 89">
  <defs>
    <clipPath id="clip-path">
      <rect id="Rectángulo_402358" data-name="Rectángulo 402358" width="57.753" height="64.153" fill="#224b74" stroke="#224b74" stroke-width="1"/>
    </clipPath>
  </defs>
  <g id="Grupo_1102066" data-name="Grupo 1102066" transform="translate(-703.5 -2639.743)">
    <g id="Grupo_1098742" data-name="Grupo 1098742" transform="translate(-499.82 2251.001)">
      <rect id="Rectángulo_400898" data-name="Rectángulo 400898" width="89" height="89" rx="44.5" transform="translate(1203.32 388.742)" fill="#e6efbf"/>
      <g id="Rectángulo_400907" data-name="Rectángulo 400907" transform="translate(1203.32 388.742)" fill="none" stroke="#0f1f33" stroke-linecap="round" stroke-width="2" stroke-dasharray="7">
        <rect width="89" height="89" rx="44.5" stroke="none"/>
        <rect x="1" y="1" width="87" height="87" rx="43.5" fill="none"/>
      </g>
    </g>
    <g id="Grupo_1101966" data-name="Grupo 1101966" transform="translate(719.124 2652.167)">
      <g id="Grupo_1101965" data-name="Grupo 1101965" clip-path="url(#clip-path)">
        <path id="Trazado_892560" data-name="Trazado 892560" d="M13.06,51.927l-2.113-9.736c-4.246.155-6.621,2.546-6.865,6.084-.618,8.941-1.405,17.871-2.121,26.8-.058.718.015,1.631-.988,1.608-1.1-.026-.995-.986-.946-1.743q.245-3.776.55-7.548c.5-6.06,1.025-12.118,1.523-18.179a10.33,10.33,0,0,1,1.472-5.4A7.841,7.841,0,0,1,8.55,40.6a3.073,3.073,0,0,0,2.293-1.142c.495-.725,1.4-.251,1.652.869.5,2.194.954,4.4,1.429,6.6.266,1.231.584,2.454.788,3.7.128.779.472,1.036,1.252,1.042a25.684,25.684,0,0,1,3.224.267,11.526,11.526,0,0,1,6.548,3.193c2.942,2.772,3.03,2.789,5.888.021a12.816,12.816,0,0,1,8.688-3.454c.971-.052,1.4-.3,1.6-1.317.643-3.357,1.389-6.7,2.155-10.028a5.372,5.372,0,0,1,.837-1.4c.417.258.829.524,1.252.772a3.179,3.179,0,0,0,.7.334c.648.187,1.3.36,1.96.506,4.2.93,6.367,3.371,6.725,7.644q1.076,12.861,2.122,25.723a4.248,4.248,0,0,1,.008,1.609c-.153.457-.632.8-.968,1.2-.293-.384-.806-.747-.844-1.154-.3-3.184-.484-6.378-.749-9.565-.51-6.149-1.02-12.3-1.59-18.444a5.493,5.493,0,0,0-4.292-4.971c-1.121-.3-2.261-.531-3.539-.828l-2.116,9.847a24.462,24.462,0,0,1,2.967.917,2.074,2.074,0,0,1,1.115,1.185A18.747,18.747,0,0,1,47.7,63.2a24.5,24.5,0,0,1-1.842,3.712,13.479,13.479,0,0,0-1.32,2.69c-.738,3.013-1.375,6.053-1.956,9.1-.611,3.206.271,6.257,1.188,9.282.3.989.659,1.962,1.027,2.929.247.649.4,1.374-.43,1.516a1.678,1.678,0,0,1-1.325-.884c-2.116-5.359-3.487-10.813-1.668-16.577a10.274,10.274,0,0,0,.2-1.052l-4.133-1.238c-1.465-.439-2.965-.787-4.389-1.335a12.077,12.077,0,0,0-8.7,0c-2.786.983-5.66,1.715-8.594,2.587.3,1.384.6,2.645.858,3.915A19.7,19.7,0,0,1,15.8,87.3c-.4,1.381-.9,2.734-1.365,4.1-.224.652-.481,1.392-1.382,1.092-1.028-.343-.592-1.112-.393-1.8.716-2.458,1.514-4.9,2.1-7.386.717-3.042-.172-5.986-.855-8.924-.234-1.008-.494-2.011-.706-3.023a12.246,12.246,0,0,0-2.177-5.246c-2.053-2.674-2.034-5.967-1.8-9.2.009-.134.058-.266.062-.4.087-2.408.49-4.575,3.771-4.579M42.626,69.279c-1.359.073-2.561.206-3.756.159-.354-.014-.688-.533-1.031-.821a8.393,8.393,0,0,1,1.067-.966c.19-.124.527-.021.8-.027a5.946,5.946,0,0,0,6.1-4.561,18.251,18.251,0,0,0,.261-7.768,1.442,1.442,0,0,0-1.331-1.411c-4.488-.782-8.576-.414-12.174,2.955-3.481,3.259-4.245,3.289-7.789-.062-3.062-2.9-6.606-3.507-10.472-3.166-2.872.254-2.871.386-3.127,3.248a19.964,19.964,0,0,0-.134,2.83c.228,4.236,1.693,8.151,7.412,7.981.364-.011.745.58,1.118.89-.374.307-.737.858-1.125.877a37.555,37.555,0,0,1-3.776-.173l.684,2.781c2.834-.831,5.558-1.476,8.167-2.432a14.571,14.571,0,0,1,10.53.043c2.552.951,5.228,1.566,7.96,2.363l.614-2.742" transform="translate(0 -28.403)" fill="#224b74" stroke="#224b74" stroke-width="1"/>
        <path id="Trazado_892561" data-name="Trazado 892561" d="M60.367,3.963a17.222,17.222,0,0,1,.043-2.691c.074-.459.574-.85.881-1.271.336.392.944.771.963,1.177a57.918,57.918,0,0,1-.019,5.795c-.125,2.285-1.617,3.552-3.637,4.19a44.135,44.135,0,0,1-5.23,1.268c-.411.076-.923-.4-1.389-.615.3-.383.521-.988.9-1.11,1.363-.44,2.781-.706,4.173-1.058,2.724-.688,3.308-1.436,3.31-4.2,0-.494,0-.989,0-1.484" transform="translate(-37.921)" fill="#224b74" stroke="#224b74" stroke-width="1"/>
        <path id="Trazado_892562" data-name="Trazado 892562" d="M131.228,12.355c-1.946-.63-3.791-1.075-5.5-1.828a3.86,3.86,0,0,1-2.31-3.688c-.026-1.846-.068-3.695.02-5.536.021-.444.528-.864.812-1.3.345.428.951.834.987,1.286.124,1.566.044,3.148.051,4.724.008,1.972.67,2.885,2.563,3.417,1.167.328,2.382.5,3.524.894a1.594,1.594,0,0,1,.844,1.115c.034.239-.6.573-.989.911" transform="translate(-90.011 -0.006)" fill="#224b74" stroke="#224b74" stroke-width="1"/>
        <path id="Trazado_892563" data-name="Trazado 892563" d="M91.2,73.765c1.008-.782,2.2-1.78,3.473-2.663.563-.391,1.392-.815,1.876.072s-.276,1.243-.952,1.575a6.3,6.3,0,0,0-3.574,4.459c-.09.4-.646.685-.987,1.023-.312-.325-.827-.608-.9-.98A6.256,6.256,0,0,0,86.175,72.5c-.331-.143-.432-.816-.64-1.244.46-.153,1.085-.576,1.354-.413,1.507.913,2.928,1.967,4.311,2.926" transform="translate(-62.4 -51.541)" fill="#224b74" stroke="#224b74" stroke-width="1"/>
      </g>
    </g>
  </g>
</svg>
