<svg xmlns="http://www.w3.org/2000/svg" xmlns:xlink="http://www.w3.org/1999/xlink" width="89" height="89" viewBox="0 0 89 89">
  <defs>
    <clipPath id="clip-path">
      <rect id="Rectángulo_402356" data-name="Rectángulo 402356" width="55.914" height="52.42" fill="#224b74" stroke="#224b74" stroke-width="1"/>
    </clipPath>
  </defs>
  <g id="Grupo_1102067" data-name="Grupo 1102067" transform="translate(-1123.5 -2639.743)">
    <g id="Grupo_1098742" data-name="Grupo 1098742" transform="translate(-79.82 2251.001)">
      <rect id="Rectángulo_400898" data-name="Rectángulo 400898" width="89" height="89" rx="44.5" transform="translate(1203.32 388.742)" fill="#e6efbf" opacity="0.999"/>
      <g id="Rectángulo_400907" data-name="Rectángulo 400907" transform="translate(1203.32 388.742)" fill="none" stroke="#0f1f33" stroke-linecap="round" stroke-width="2" stroke-dasharray="7">
        <rect width="89" height="89" rx="44.5" stroke="none"/>
        <rect x="1" y="1" width="87" height="87" rx="43.5" fill="none"/>
      </g>
    </g>
    <g id="Grupo_1101962" data-name="Grupo 1101962" transform="translate(1140.043 2658.033)">
      <g id="Grupo_1101961" data-name="Grupo 1101961" clip-path="url(#clip-path)">
        <path id="Trazado_892558" data-name="Trazado 892558" d="M43.347,52.42c-2.469-.481-4.714-.736-6.846-1.368a31.087,31.087,0,0,0-17.742.192,18.349,18.349,0,0,1-12.243-.393c-2.044-.819-2.8-1.556-2.713-3.743a7.851,7.851,0,0,0-1.1-4A22.409,22.409,0,0,1,.956,26.031c.907-2.99,2.2-5.861,3.258-8.808a3.67,3.67,0,0,0,.18-1.912C3.472,11.066,2.476,6.838,1.508,2.6,1.167,1.11,1.357.828,2.887.491,6.435-.292,6.124-.571,7.017,3.062,7.851,6.454,8.59,9.873,9.564,13.225a14.175,14.175,0,0,0,4.647,7.63c4.425,3.508,8.65,7.27,12.932,10.957.623.536,1.019.6,1.684.032,4.824-4.157,9.82-8.126,14.457-12.48,1.49-1.4,2.358-3.683,2.989-5.724,1.2-3.887,2.028-7.89,3.008-11.845C49.742-.065,49.909-.158,51.756.2c3.286.641,3.2.534,2.413,3.8Q52.814,9.62,51.617,15.273a3.576,3.576,0,0,0,.215,2.03c1.725,4,3.528,8,3.946,12.366a22.686,22.686,0,0,1-3.116,14.574,4.955,4.955,0,0,0-.425,2.421c-.051,2.763-.5,3.472-3.12,4.246-1.963.579-3.961,1.041-5.771,1.511m1.324-6.355c3.162-.229,5.522-1.5,6.891-4.244a21.024,21.024,0,0,0,2.073-12.008c-.5-4.222-2.265-8.074-3.917-11.951a5.012,5.012,0,0,1-.266-2.8c.775-3.815,1.708-7.6,2.543-11.4a3.652,3.652,0,0,0-.178-1.236,4.284,4.284,0,0,0-.692,1.1c-.917,3.553-1.606,7.178-2.742,10.658-.748,2.292-1.638,4.891-3.3,6.465-5.041,4.767-10.509,9.081-15.767,13.621a1.706,1.706,0,0,1-2.651-.024c-5.227-4.508-10.5-8.958-15.746-13.448a4.712,4.712,0,0,1-1.063-1.345,32.028,32.028,0,0,1-3.136-8.533C6.187,8.379,5.5,5.872,4.839,3.362c-.091-.346-.454-.62-.691-.927a3.243,3.243,0,0,0-.175,1.13C4.837,7.454,5.788,11.324,6.6,15.223a5,5,0,0,1-.263,2.556C5.317,20.642,4.07,23.427,3.11,26.308c-1.682,5.045-.975,10.021.982,14.823A6.779,6.779,0,0,0,11.4,45.7a24.461,24.461,0,0,0,5.861-1.291c3.248-1.14,6.39-2.58,9.617-3.786a3.519,3.519,0,0,1,2.273.008c3.017,1.127,5.953,2.475,8.981,3.568,2.127.768,4.355,1.255,6.538,1.867m5.274.655c-4.192,2.1-8.292,1.167-12.344-.393-2.88-1.109-5.71-2.35-8.6-3.438a3.075,3.075,0,0,0-2,0c-2.97,1.124-5.877,2.416-8.848,3.538-3.976,1.5-8.008,2.338-12.268.426.166.662.356,1.528.806,1.695,2.86,1.063,5.759,1.992,8.9,1.177,1.861-.483,3.751-.867,5.645-1.2,2.984-.53,5.942-1.43,9.032-.836,2.813.541,5.673.912,8.425,1.674a15.742,15.742,0,0,0,10.123-.575c1.064-.4,1.451-.914,1.13-2.066" transform="translate(0 0)" fill="#224b74" stroke="#224b74" stroke-width="1"/>
      </g>
    </g>
  </g>
</svg>
