<svg xmlns="http://www.w3.org/2000/svg" xmlns:xlink="http://www.w3.org/1999/xlink" width="89" height="89" viewBox="0 0 89 89">
  <defs>
    <clipPath id="clip-path">
      <rect id="Rectángulo_402352" data-name="Rectángulo 402352" width="64.513" height="49.723" fill="#224b74" stroke="#224b74" stroke-width="1"/>
    </clipPath>
  </defs>
  <g id="Grupo_1102071" data-name="Grupo 1102071" transform="translate(-335.499 -3507.743)">
    <g id="Grupo_1098742" data-name="Grupo 1098742" transform="translate(-867.821 3119.001)">
      <rect id="Rectángulo_400898" data-name="Rectángulo 400898" width="89" height="89" rx="44.5" transform="translate(1203.32 388.742)" fill="#e6efbf"/>
      <g id="Rectángulo_400907" data-name="Rectángulo 400907" transform="translate(1203.32 388.742)" fill="none" stroke="#0f1f33" stroke-linecap="round" stroke-width="2" stroke-dasharray="7">
        <rect width="89" height="89" rx="44.5" stroke="none"/>
        <rect x="1" y="1" width="87" height="87" rx="43.5" fill="none"/>
      </g>
    </g>
    <g id="Grupo_1101954" data-name="Grupo 1101954" transform="translate(348.327 3527.381)">
      <g id="Grupo_1101953" data-name="Grupo 1101953" clip-path="url(#clip-path)">
        <path id="Trazado_892549" data-name="Trazado 892549" d="M32.276,49.718q-10.621,0-21.241,0c-5.126,0-8.141-3.008-8.146-8.1,0-.293-.014-.587,0-.879A13.751,13.751,0,0,0,1.5,33.782C-1.034,28.467-.308,23.2,3.29,18.548A10.054,10.054,0,0,0,5.6,11.6C5.506,9.64,5.558,7.667,5.589,5.7a5.557,5.557,0,1,1,11.11,0,38.539,38.539,0,0,0,.058,4.644,11.322,11.322,0,0,0,1.234,3.744A3.77,3.77,0,0,0,21.7,16.1c7.246-.1,14.5-.063,21.743-.02a3.028,3.028,0,0,0,2.334-.956,6.8,6.8,0,0,0,2.107-4.82c.026-1.55-.012-3.1.014-4.65A5.622,5.622,0,0,1,53.442,0,5.547,5.547,0,0,1,59,5.615c.041,2.387.018,4.776.009,7.164a7.749,7.749,0,0,0,1.805,5.088C65.273,23.361,65.7,29.74,62.1,35.856a3.043,3.043,0,0,0-.378,1.4c-.046,1.591-.01,3.184-.019,4.776a7.376,7.376,0,0,1-7.685,7.677c-7.248.025-14.5.007-21.743.007M59.651,38.884a9.552,9.552,0,0,1-1.232.986c-1.9,1.042-3.8,2.086-5.75,3.016-.3.141-.88-.318-1.331-.5a4.641,4.641,0,0,1,.752-1.21,4.687,4.687,0,0,1,1.271-.509C62.9,36.709,65.417,25.9,59.167,18.805a8.23,8.23,0,0,1-2.012-5.674c.016-2.43.026-4.861-.006-7.292a3.652,3.652,0,0,0-3.7-3.9A3.61,3.61,0,0,0,49.81,5.751c-.028.921-.057,1.847,0,2.765a9.822,9.822,0,0,1-5.433,9.931,27.582,27.582,0,0,0-8.134,7.191c2.364,4.346,1.666,8.605.728,13.108.659.4,1.486.965,2.375,1.412A16.975,16.975,0,0,0,48.114,41.9c.826-.049,1.542.157,1.251,1.145-.1.334-.817.656-1.272.688A17.96,17.96,0,0,1,36.12,40.418a1.419,1.419,0,0,0-1.686-.216,4.572,4.572,0,0,1-4.242.011,1.516,1.516,0,0,0-1.794.257A18.721,18.721,0,0,1,5.84,39.6c-.271-.222-.567-.414-1.019-.742,0,1.037,0,1.866,0,2.694.007,4.187,2.049,6.229,6.25,6.23q15.841.005,31.682,0c3.9,0,7.795.025,11.692-.019a5.151,5.151,0,0,0,5.161-4.132,30.844,30.844,0,0,0,.045-4.745M2.087,26.335c.392-.134.631-.205.863-.3a25.959,25.959,0,0,1,13.825-1.347c.666.106,1.45.24,1.312,1.165s-.9.814-1.59.731c-1-.121-1.992-.288-2.992-.339A22.744,22.744,0,0,0,3.466,27.891,36.248,36.248,0,0,1,7.3,30.4a21.8,21.8,0,0,1,3.152,3.382c1.3,1.688,1.961,2,3.934,1.236,3.918-1.523,7.836-3,12.172-2.363.062.009.139-.079.432-.259a4.328,4.328,0,0,0-.742-1.369A21.538,21.538,0,0,0,23.385,29c-.857-.512-1.856-.795-2.688-1.337-.373-.243-.493-.873-.728-1.328a5.439,5.439,0,0,1,1.407-.361,2.735,2.735,0,0,1,1.158.45c1.458.793,2.9,1.609,4.255,2.36L28.4,25.72c-.136-.175-.328-.44-.538-.691a33.233,33.233,0,0,0-8.515-7.167,8.837,8.837,0,0,1-4.551-8c-.011-1.3.028-2.6-.018-3.9a5.591,5.591,0,0,0-.313-1.834,3.585,3.585,0,0,0-4.1-2.139A3.67,3.67,0,0,0,7.453,5.621c-.05,2.219-.082,4.443,0,6.66a9.971,9.971,0,0,1-2.5,7.153,12.36,12.36,0,0,0-2.872,6.9m-.013,3.223A14.591,14.591,0,0,0,12.428,41.071a16.371,16.371,0,0,0,15.284-2.42L26.6,34.575a20.992,20.992,0,0,0-4.48.059,63.262,63.262,0,0,0-7.045,2.18c-2.836.979-4.455.514-6.152-1.947a14.5,14.5,0,0,0-6.854-5.309M28.779,32.5c0,.962-.035,1.925.007,2.885a3.511,3.511,0,0,0,7.016.025q.09-2.883,0-5.771a3.511,3.511,0,0,0-7.016-.025c-.046.96-.008,1.923-.009,2.885M41,18.074H23.485c1.877,1.828,3.778,3.566,5.532,5.442.743.794,1.289,1.335,2.488.922a6.713,6.713,0,0,1,2.217.1c.341.012.818.073,1.008-.115,2.123-2.1,4.2-4.239,6.275-6.35" transform="translate(0 0)" fill="#224b74" stroke="#224b74" stroke-width="1"/>
      </g>
    </g>
  </g>
</svg>
