<svg xmlns="http://www.w3.org/2000/svg" xmlns:xlink="http://www.w3.org/1999/xlink" width="89" height="89" viewBox="0 0 89 89">
  <defs>
    <clipPath id="clip-path">
      <rect id="Rectángulo_402365" data-name="Rectángulo 402365" width="52.784" height="52.783" fill="#224b74" stroke="#1d4164" stroke-width="1"/>
    </clipPath>
  </defs>
  <g id="Grupo_1102067" data-name="Grupo 1102067" transform="translate(-766.537 -5796.169)">
    <g id="Grupo_1098742" data-name="Grupo 1098742" transform="translate(-436.783 5407.427)">
      <rect id="Rectángulo_400898" data-name="Rectángulo 400898" width="89" height="89" rx="44.5" transform="translate(1203.32 388.742)" fill="#d2c3dd"/>
      <g id="Rectángulo_400907" data-name="Rectángulo 400907" transform="translate(1203.32 388.742)" fill="none" stroke="#0f1f33" stroke-linecap="round" stroke-width="2" stroke-dasharray="7">
        <rect width="89" height="89" rx="44.5" stroke="none"/>
        <rect x="1" y="1" width="87" height="87" rx="43.5" fill="none"/>
      </g>
    </g>
    <g id="Grupo_1101972" data-name="Grupo 1101972" transform="translate(784.645 5814.277)">
      <g id="Grupo_1101971" data-name="Grupo 1101971" clip-path="url(#clip-path)">
        <path id="Trazado_892571" data-name="Trazado 892571" d="M90.209,52.221A17.3,17.3,0,0,1,89.085,54.4a1.79,1.79,0,0,0,.006,2.4,3.316,3.316,0,0,1-.008,4.683,1.731,1.731,0,0,0,.022,2.388,3.3,3.3,0,0,1,.031,4.6,1.761,1.761,0,0,0-.016,2.475,3.288,3.288,0,0,1,0,4.6,1.76,1.76,0,0,0,.014,2.475,3.27,3.27,0,0,1,.04,4.51,1.8,1.8,0,0,0-.026,2.561,3.361,3.361,0,0,1-4.745,4.751,1.828,1.828,0,0,0-2.571.03,3.3,3.3,0,0,1-4.434.026c-1.068-.806-1.567-.8-2.641.009a3.312,3.312,0,0,1-4.434-.042,1.825,1.825,0,0,0-2.571-.013,3.273,3.273,0,0,1-4.512-.011,1.826,1.826,0,0,0-2.571.035,3.3,3.3,0,0,1-4.434.02c-1.065-.8-1.561-.8-2.641.014a3.365,3.365,0,0,1-4.7-4.8,1.8,1.8,0,0,0,0-2.563,3.269,3.269,0,0,1,.012-4.509,1.794,1.794,0,0,0-.027-2.561,3.271,3.271,0,0,1,.041-4.51,1.759,1.759,0,0,0,.013-2.475,3.289,3.289,0,0,1,0-4.6,1.759,1.759,0,0,0-.017-2.475,3.271,3.271,0,0,1-.037-4.51,1.8,1.8,0,0,0,.023-2.562A3.361,3.361,0,0,1,53.659,49.6a1.825,1.825,0,0,0,2.571-.03,3.306,3.306,0,0,1,4.434-.026c1.063.808,1.566.806,2.64-.007a3.312,3.312,0,0,1,4.434.04,1.821,1.821,0,0,0,2.57.016,3.277,3.277,0,0,1,4.512.007,1.821,1.821,0,0,0,2.57-.031,3.324,3.324,0,0,1,4.35-.1c1.212.907,1.581.909,2.808-.007a3.275,3.275,0,0,1,3.625-.368,3.747,3.747,0,0,1,2.036,3.128M51.4,50.208c-.574.491-1.165.787-1.422,1.264-.414.767-.024,1.453.577,2.053Q67.893,70.845,85.22,88.18c.9.9,1.916.983,2.6.257.65-.691.54-1.658-.315-2.521-1.551-1.565-3.113-3.118-4.671-4.676Q67.956,66.362,53.07,51.493A17.272,17.272,0,0,0,51.4,50.208m4.8,1.469L87.049,82.542c.037-.063.139-.255.255-.439,1.325-2.1,1.323-2.122-.409-3.854L60.819,52.173c-1.99-1.99-1.99-1.99-4.362-.637-.127.072-.257.138-.26.14M81.881,87.762,51.016,56.889c-.037.064-.139.255-.255.438-1.334,2.118-1.334,2.117.485,3.936L77.033,87.049c2.227,2.227,2.228,2.227,4.885.659.027-.016.04-.054-.037.055m5.081-12.129c.151-.257.282-.514.442-.752,1.206-1.792,1.19-1.986-.337-3.513L68.082,52.383c-.467-.467-.923-.945-1.408-1.393a1.593,1.593,0,0,0-2.111-.187c-.506.324-.983.693-1.426,1.009L86.962,75.634M74.909,87.711,51.061,63.861l-.157.274c-.073.127-.138.26-.218.382-1.238,1.865-1.223,2.016.355,3.594L70.574,87.643c1.649,1.649,1.728,1.657,3.68.415.215-.137.452-.24.656-.348M70.22,51.727,86.994,68.5c.116-.19.27-.469.45-.73,1.147-1.664,1.126-1.955-.267-3.349L75.2,52.449c-2.265-2.265-2.265-2.265-4.967-.737-.027.015-.043.05-.014.015M67.789,87.746,51.028,70.979c-.079.134-.211.391-.372.629-1.2,1.784-1.187,1.983.341,3.511L63.518,87.64c1.653,1.653,1.733,1.662,3.678.421.215-.137.451-.241.593-.316M86.94,61.491c.3-.419.588-.837.89-1.245a1.6,1.6,0,0,0-.083-2.283q-3.469-3.52-6.989-6.989a1.533,1.533,0,0,0-2.013-.213c-.54.329-1.041.724-1.5,1.046l9.694,9.684M51.059,77.983c-.168.27-.341.594-.556.887-.984,1.342-.956,1.847.208,3.014q2.56,2.566,5.126,5.127C58.1,89.274,58.1,89.274,60.8,87.7c.022-.013.027-.057-.006.018l-9.738-9.739m35.89-23.426c.487-1.229,2.242-2.207.778-3.6-1.421-1.35-2.347.382-3.474.819l2.7,2.779M53.683,87.738l-2.639-2.694c-.429,1.066-2.117,2.014-.74,3.4s2.335-.324,3.379-.706" transform="translate(-37.424 -37.96)" fill="#224b74" stroke="#1d4164" stroke-width="1"/>
        <path id="Trazado_892572" data-name="Trazado 892572" d="M3.523,0A17.587,17.587,0,0,1,5.709,1.116a1.819,1.819,0,0,0,2.4,0C9.8-.168,11.1-.164,12.8,1.125a1.76,1.76,0,0,0,2.4-.033,3.3,3.3,0,0,1,4.6-.013,1.789,1.789,0,0,0,2.483-.009,3.3,3.3,0,0,1,4.6.032,1.759,1.759,0,0,0,2.4.014c1.686-1.283,2.986-1.28,4.685.008a1.762,1.762,0,0,0,2.4-.031,3.365,3.365,0,0,1,4.764,4.749,1.78,1.78,0,0,0-.309,2.033c.272.569.283,1.208-.392,1.332A1.529,1.529,0,0,1,39.179,8.5a3.164,3.164,0,0,1,.359-3.516c.818-1.1.907-1.885.282-2.543-.642-.675-1.467-.619-2.542.172a3.434,3.434,0,0,1-4.286,0C31.8,1.74,31.4,1.735,30.27,2.576a3.412,3.412,0,0,1-4.371,0c-1.139-.845-1.546-.84-2.722.028a3.435,3.435,0,0,1-4.286.009c-1.2-.879-1.6-.886-2.722-.046a3.373,3.373,0,0,1-4.448-.067A1.765,1.765,0,0,0,9.413,2.32C7.327,3.743,6.5,3.746,4.454,2.338a1.555,1.555,0,0,0-2.194.121,1.556,1.556,0,0,0-.024,2.2c.044.058.1.108.144.166a3.309,3.309,0,0,1-.028,4.516A1.794,1.794,0,0,0,2.386,11.9a3.3,3.3,0,0,1,.031,4.432C1.6,17.4,1.6,17.907,2.411,18.962A3.347,3.347,0,0,1,2.4,23.4c-.807,1.046-.8,1.557.023,2.631a3.305,3.305,0,0,1-.047,4.432,1.794,1.794,0,0,0-.019,2.561,3.31,3.31,0,0,1,.013,4.516,1.7,1.7,0,0,0-.116,2.374c.634.653,1.5.609,2.455-.125A3.274,3.274,0,0,1,8.5,39.4c.33.223.419.8.618,1.222-.432.128-.941.465-1.281.342a2.066,2.066,0,0,0-2.232.373,3.357,3.357,0,0,1-4.725-4.75,1.8,1.8,0,0,0,.036-2.562,3.269,3.269,0,0,1-.023-4.509A1.793,1.793,0,0,0,.9,26.955a3.271,3.271,0,0,1,.006-4.509,1.793,1.793,0,0,0-.02-2.561,3.271,3.271,0,0,1,.034-4.51A1.76,1.76,0,0,0,.941,12.9,3.283,3.283,0,0,1,.935,8.306,1.839,1.839,0,0,0,.79,5.657,3.153,3.153,0,0,1,.4,2.044,3.745,3.745,0,0,1,3.523,0" transform="translate(0)" fill="#224b74" stroke="#1d4164" stroke-width="1"/>
        <path id="Trazado_892573" data-name="Trazado 892573" d="M28.57,30.278c-.429-.6-.857-.934-.859-1.274,0-.288.489-.579.762-.868.308.292.784.542.868.888.063.262-.374.645-.771,1.254" transform="translate(-21.604 -21.935)" fill="#224b74" stroke="#1d4164" stroke-width="1"/>
        <path id="Trazado_892574" data-name="Trazado 892574" d="M60.606,30.238c-.434-.522-.913-.852-.88-1.118.044-.354.487-.658.759-.984.307.291.785.542.867.887.063.263-.375.646-.746,1.215" transform="translate(-46.561 -21.935)" fill="#224b74" stroke="#1d4164" stroke-width="1"/>
        <path id="Trazado_892575" data-name="Trazado 892575" d="M92.573,30.238c-.426-.529-.9-.867-.862-1.132.051-.353.5-.649.778-.97.3.3.773.555.851.9.059.261-.385.636-.767,1.2" transform="translate(-71.497 -21.935)" fill="#224b74" stroke="#1d4164" stroke-width="1"/>
        <path id="Trazado_892576" data-name="Trazado 892576" d="M124.573,30.238c-.426-.529-.9-.867-.862-1.132.051-.353.5-.649.778-.97.3.3.773.555.851.9.059.261-.385.636-.767,1.2" transform="translate(-96.444 -21.935)" fill="#224b74" stroke="#1d4164" stroke-width="1"/>
        <path id="Trazado_892577" data-name="Trazado 892577" d="M156.573,30.238c-.426-.529-.9-.867-.862-1.132.051-.353.5-.649.778-.97.3.3.773.555.851.9.059.261-.385.636-.767,1.2" transform="translate(-121.391 -21.935)" fill="#224b74" stroke="#1d4164" stroke-width="1"/>
        <path id="Trazado_892578" data-name="Trazado 892578" d="M29.778,61.141c-.563.447-.905.919-1.169.879a1.346,1.346,0,0,1-.9-.8c-.061-.2.449-.8.733-.825.34-.027.713.373,1.341.749" transform="translate(-21.594 -47.08)" fill="#224b74" stroke="#1d4164" stroke-width="1"/>
        <path id="Trazado_892579" data-name="Trazado 892579" d="M29.6,93.253c-.611.4-.994.835-1.255.771-.346-.085-.6-.56-.888-.868.289-.273.58-.764.867-.762.34,0,.678.43,1.275.859" transform="translate(-21.403 -72.03)" fill="#224b74" stroke="#1d4164" stroke-width="1"/>
        <path id="Trazado_892580" data-name="Trazado 892580" d="M28.538,122.35c.394.618.8.98.786,1.32-.014.285-.6.812-.8.757a1.346,1.346,0,0,1-.828-.879c-.048-.263.413-.618.843-1.2" transform="translate(-21.588 -95.384)" fill="#224b74" stroke="#1d4164" stroke-width="1"/>
        <path id="Trazado_892581" data-name="Trazado 892581" d="M28.516,154.344c.4.612.818.967.806,1.307-.01.285-.585.822-.787.77a1.345,1.345,0,0,1-.843-.865c-.052-.262.4-.625.824-1.212" transform="translate(-21.585 -120.327)" fill="#224b74" stroke="#1d4164" stroke-width="1"/>
      </g>
    </g>
  </g>
</svg>
