<svg xmlns="http://www.w3.org/2000/svg" xmlns:xlink="http://www.w3.org/1999/xlink" width="89" height="89" viewBox="0 0 89 89">
  <defs>
    <clipPath id="clip-path">
      <rect id="Rectángulo_402367" data-name="Rectángulo 402367" width="54.675" height="52.411" fill="#224b74" stroke="#224b74" stroke-width="1"/>
    </clipPath>
  </defs>
  <g id="Grupo_1102069" data-name="Grupo 1102069" transform="translate(-924.333 -6389.169)">
    <g id="Grupo_1098742" data-name="Grupo 1098742" transform="translate(-278.987 6000.427)">
      <rect id="Rectángulo_400898" data-name="Rectángulo 400898" width="89" height="89" rx="44.5" transform="translate(1203.32 388.742)" fill="#d2c3dd"/>
      <g id="Rectángulo_400907" data-name="Rectángulo 400907" transform="translate(1203.32 388.742)" fill="none" stroke="#0f1f33" stroke-linecap="round" stroke-width="2" stroke-dasharray="7">
        <rect width="89" height="89" rx="44.5" stroke="none"/>
        <rect x="1" y="1" width="87" height="87" rx="43.5" fill="none"/>
      </g>
    </g>
    <g id="Grupo_1101976" data-name="Grupo 1101976" transform="translate(941.463 6407.463)">
      <g id="Grupo_1101975" data-name="Grupo 1101975" clip-path="url(#clip-path)">
        <path id="Trazado_892596" data-name="Trazado 892596" d="M44.421,18.875c.943.353,1.762.668,2.587.966,2.177.786,4.362,1.549,6.533,2.351q2.083.769.315,2.15c-1.826,1.427-3.671,2.829-5.506,4.244-.347.268-.684.548-1.169.937,2.177.823,4.193,1.551,6.175,2.359.479.2,1.125.608,1.192,1.006.064.378-.438.989-.846,1.289C45.645,40.1,37.559,45.986,29.5,51.91a2.126,2.126,0,0,1-2.233.323c-8.632-3.113-17.28-6.18-25.909-9.3a5.413,5.413,0,0,1-1.327-1.05A6.276,6.276,0,0,1,1.151,40.6c2.17-1.428,4.384-2.788,6.807-4.314-.9-.348-1.623-.63-2.345-.9-1.444-.544-2.905-1.045-4.325-1.645-.471-.2-1.114-.607-1.169-.992-.052-.366.481-.948.9-1.224,1.86-1.237,3.772-2.4,5.662-3.591.33-.208.646-.438,1.145-.778C5.568,26.211,3.484,25.34,1.4,24.468c-1.768-.741-1.843-1.3-.337-2.49Q14.491,11.327,27.9.661a2.377,2.377,0,0,1,2.635-.45C38.084,2.985,45.658,5.679,53.223,8.4c1.8.646,1.9,1.232.453,2.476q-4.165,3.576-8.333,7.148c-.272.233-.527.485-.921.85M2.911,22.968c.518.238.874.413,1.238.566,2.433,1.02,4.889,1.988,7.291,3.075a2.125,2.125,0,0,0,2.436-.3,15.163,15.163,0,0,0,5.685-8.691c.31-1.214.825-1.466,1.808-.834,5.242,3.369,11.091,3.927,17.1,3.659a3.7,3.7,0,0,0,2.042-.844c3.526-2.943,6.992-5.957,10.485-8.938a7.618,7.618,0,0,1,.925-.571c-.423-.22-.526-.289-.639-.329C44.256,7.225,37.237,4.676,30.193,2.2a2.018,2.018,0,0,0-1.583.413Q19.258,9.948,9.965,17.36c-2.312,1.834-4.62,3.673-7.054,5.608m.318,9.4c.317.161.421.227.533.269,7.875,2.924,15.746,5.859,23.64,8.731a2,2,0,0,0,1.59-.354Q39.853,32.74,50.656,24.389c.3-.229.572-.491.983-.848-2.971-1.067-5.748-2.086-8.548-3.039a1.359,1.359,0,0,0-1.028.354,7.352,7.352,0,0,1-3.006,1.71Q26.751,25.548,14.487,28.7a4.541,4.541,0,0,1-3.606-.257,1.452,1.452,0,0,0-1.214-.072c-2.123,1.26-4.2,2.6-6.438,4m.038,9.137c.367.182.5.265.643.316,7.835,2.8,15.666,5.61,23.517,8.364a1.926,1.926,0,0,0,1.507-.3Q39.894,41.952,50.8,33.945c.238-.174.442-.393.772-.69C49.8,32.577,48.162,32,46.564,31.317a1.914,1.914,0,0,0-2.2.3C39.43,35.471,34.446,39.257,29.507,43.1a2.023,2.023,0,0,1-2.219.347Q19.264,40.4,11.2,37.461a1.829,1.829,0,0,0-1.345-.05c-2.164,1.279-4.276,2.644-6.588,4.095m28.1-19.019L21.294,19.416l-3.716,6.518,13.788-3.446" transform="translate(0 0)" fill="#224b74" stroke="#224b74" stroke-width="1"/>
        <path id="Trazado_892597" data-name="Trazado 892597" d="M183.951,93.092c.3.381.938.845,1.062,1.418.187.866-.428,1.474-1.329,1.52a1.315,1.315,0,0,1-1.468-1.307c-.071-.915.488-1.4,1.735-1.631" transform="translate(-137.748 -70.376)" fill="#224b74" stroke="#224b74" stroke-width="1"/>
        <path id="Trazado_892598" data-name="Trazado 892598" d="M161.293,99.236c-.524.391-1.007,1.013-1.583,1.118a1.385,1.385,0,1,1-.016-2.764c.578.1,1.068.713,1.6,1.1l0,.55" transform="translate(-119.622 -73.76)" fill="#224b74" stroke="#224b74" stroke-width="1"/>
        <path id="Trazado_892599" data-name="Trazado 892599" d="M127.972,109.113c.3.385.928.857,1.043,1.431.173.866-.445,1.469-1.349,1.5a1.316,1.316,0,0,1-1.451-1.326c-.058-.913.505-1.4,1.757-1.607" transform="translate(-95.414 -82.488)" fill="#224b74" stroke="#224b74" stroke-width="1"/>
        <path id="Trazado_892600" data-name="Trazado 892600" d="M89.3,115.22c-.518.4-.99,1.031-1.565,1.146a1.385,1.385,0,1,1-.062-2.764c.581.09,1.081.7,1.618,1.071q0,.274.009.547" transform="translate(-65.191 -85.868)" fill="#224b74" stroke="#224b74" stroke-width="1"/>
        <path id="Trazado_892601" data-name="Trazado 892601" d="M152.027,120.432c-1.256-.174-1.832-.638-1.8-1.553a1.312,1.312,0,0,1,1.406-1.37c.909,0,1.539.588,1.395,1.457-.1.578-.71,1.07-1,1.466" transform="translate(-113.565 -88.834)" fill="#224b74" stroke="#224b74" stroke-width="1"/>
        <path id="Trazado_892602" data-name="Trazado 892602" d="M63.976,124.438c-1.247-.212-1.815-.689-1.76-1.6a1.314,1.314,0,0,1,1.446-1.33c.907.029,1.524.631,1.354,1.5-.113.575-.742,1.05-1.04,1.438" transform="translate(-47.031 -91.854)" fill="#224b74" stroke="#224b74" stroke-width="1"/>
        <path id="Trazado_892603" data-name="Trazado 892603" d="M109.3,123.2c-.511.409-.972,1.047-1.545,1.172a1.384,1.384,0,1,1-.11-2.762c.582.08,1.093.676,1.637,1.042l.018.548" transform="translate(-80.309 -91.927)" fill="#224b74" stroke="#224b74" stroke-width="1"/>
        <path id="Trazado_892604" data-name="Trazado 892604" d="M37.293,127.239c-.526.388-1.011,1.008-1.588,1.111a1.384,1.384,0,1,1,0-2.764c.578.1,1.065.718,1.592,1.1v.55" transform="translate(-25.881 -94.924)" fill="#224b74" stroke="#224b74" stroke-width="1"/>
        <path id="Trazado_892605" data-name="Trazado 892605" d="M131.972,133.113c.3.385.928.856,1.043,1.431.173.866-.445,1.469-1.349,1.5a1.316,1.316,0,0,1-1.451-1.326c-.058-.913.505-1.4,1.757-1.607" transform="translate(-98.438 -100.631)" fill="#224b74" stroke="#224b74" stroke-width="1"/>
        <path id="Trazado_892606" data-name="Trazado 892606" d="M79.924,140.977c.325.409.96.873,1.084,1.446.187.866-.428,1.474-1.329,1.52a1.318,1.318,0,0,1-1.468-1.307c-.077-.924.508-1.384,1.713-1.659" transform="translate(-59.121 -106.576)" fill="#224b74" stroke="#224b74" stroke-width="1"/>
        <path id="Trazado_892607" data-name="Trazado 892607" d="M107.959,148.441c-1.244-.225-1.809-.707-1.744-1.622a1.314,1.314,0,0,1,1.459-1.315c.905.039,1.518.645,1.339,1.51-.119.574-.753,1.042-1.054,1.428" transform="translate(-80.293 -109.997)" fill="#224b74" stroke="#224b74" stroke-width="1"/>
      </g>
    </g>
  </g>
</svg>
