<svg xmlns="http://www.w3.org/2000/svg" xmlns:xlink="http://www.w3.org/1999/xlink" width="89" height="89" viewBox="0 0 89 89">
  <defs>
    <clipPath id="clip-path">
      <rect id="Rectángulo_402343" data-name="Rectángulo 402343" width="44.707" height="69.408" fill="#224b74"/>
    </clipPath>
  </defs>
  <g id="Grupo_1102069" data-name="Grupo 1102069" transform="translate(-335.052 -1075)">
    <g id="Grupo_1098742" data-name="Grupo 1098742" transform="translate(-868.269 686.258)">
      <g id="Grupo_1102068" data-name="Grupo 1102068">
        <rect id="Rectángulo_400898" data-name="Rectángulo 400898" width="89" height="89" rx="44.5" transform="translate(1203.32 388.742)" fill="#d9eafa"/>
      </g>
      <g id="Rectángulo_400907" data-name="Rectángulo 400907" transform="translate(1203.32 388.742)" fill="none" stroke="#0f1f33" stroke-linecap="round" stroke-width="2" stroke-dasharray="7">
        <rect width="89" height="89" rx="44.5" stroke="none"/>
        <rect x="1" y="1" width="87" height="87" rx="43.5" fill="none"/>
      </g>
    </g>
    <g id="Grupo_1101938" data-name="Grupo 1101938" transform="translate(357.698 1086.796)">
      <g id="Grupo_1101937" data-name="Grupo 1101937" clip-path="url(#clip-path)">
        <path id="Trazado_892537" data-name="Trazado 892537" d="M3.363.1H5.54c.256,3.171.748,6.325.7,9.471-.055,3.852,1.5,6.995,3.356,10.164a4.326,4.326,0,0,0,3.549,2.44,15.363,15.363,0,0,1,3.682.789c5.713,2.09,11.087-.242,16.562-1.2a1.822,1.822,0,0,0,.981-.885c1.155-1.968,2.617-3.856,3.28-5.987A36.66,36.66,0,0,0,38.6,7.6c.243-2.494.4-5,.6-7.6l2.162.1c-.231,3.022-.391,5.94-.692,8.844-.372,3.589-.58,7.176.4,10.684a27.937,27.937,0,0,0,2.116,5.433,11.762,11.762,0,0,1-1.3,13.45,10.918,10.918,0,0,1-12.935,3.092A14.247,14.247,0,0,0,15.9,41.577,10.977,10.977,0,0,1,2.834,38.5,11.518,11.518,0,0,1,1.662,24.947C4.44,20,4.655,14.675,4.092,9.208,3.786,6.245,3.612,3.268,3.363.1M6.338,19.2c-.9,2.161-1.888,4.858-3.134,7.428A9.472,9.472,0,0,0,9.577,40.106c4.017.936,7.19-1.365,10.405-2.314L6.338,19.2m32.068.013L24.742,37.8c1.687.627,3.539,1.381,5.435,2.005a8.822,8.822,0,0,0,9.909-2.6,9.006,9.006,0,0,0,1.633-10.138c-1.165-2.808-2.362-5.6-3.313-7.853M29.415,28a18.394,18.394,0,0,0-14.077,0c2.361.912,4.56,1.768,6.768,2.6a1.035,1.035,0,0,0,.67-.034c2.161-.823,4.315-1.665,6.639-2.566m-7.04,8.435,2.134-2.374c-2.061-1.147-2.528-1.135-4.218.1l2.084,2.275m-9.66-12.124c.97,1.73,1.65,1.851,3.486.729l-3.486-.729m19.224,0-3.274.757c1.239.457,2.644,1.524,3.274-.757" transform="translate(0)" fill="#224b74"/>
        <path id="Trazado_892538" data-name="Trazado 892538" d="M22.084,282.483c.074-1.476.575-2.594,2-2.96,1.839-.473,2.652.916,3.62,2.283,1.024-1.313,1.937-3.072,3.861-2.146.891.429,1.438,1.572,2.14,2.39l-.272.672c3.4-.682,6.8-1.334,10.19-2.061,1.224-.263,2.414-.691,3.613-1.068,1.155-.363,1.683.106,1.737,1.251,0,.046,0,.093,0,.14-.172,5.672,1.157,4.529-4.566,6.263-2.527.765-5.187,1.079-7.756,1.723a2.509,2.509,0,0,0-1.52,1.251c-1.145,2.747-2.141,5.557-3.208,8.338a4.352,4.352,0,0,1-8.4.029c-1.085-2.824-2.1-5.674-3.262-8.467a2.376,2.376,0,0,0-1.442-1.159c-3.6-.934-7.215-1.775-10.83-2.631a1.817,1.817,0,0,1-1.543-2.237c.083-.831.014-1.676.016-2.515,0-2.136.359-2.307,2.381-1.821,4.02.966,8.073,1.791,12.115,2.662a8.011,8.011,0,0,0,1.119.065m-1.5,2.13c1.722,4.569,3.263,8.851,4.987,13.058a3.544,3.544,0,0,0,2.121,1.824c1.208.305,1.856-.749,2.26-1.826,1.487-3.96,2.989-7.914,4.478-11.874.122-.325.183-.673.32-1.189l-4.879.424.938,1.6-1.715,1.141L27.7,286l-1.344,1.78-1.689-1.139L25.529,285l-4.95-.391m-1.731,2.374c-.136-2.138-.942-3.038-2.7-3.13a17.62,17.62,0,0,1-3.133-.619c-1.41-.339-2.809-.726-4.685-1.215.381,1.058.476,2.194.886,2.322,3.12.976,6.3,1.756,9.635,2.642m27.79-4.767c-2.558.576-5.061,1.3-7.616,1.66-1.786.251-2.184,1.284-2.5,3.065,3-.751,5.753-1.51,8.545-2.115,1.5-.325,2.068-1.03,1.568-2.609" transform="translate(-5.35 -232.37)" fill="#224b74"/>
      </g>
    </g>
  </g>
</svg>
