<svg xmlns="http://www.w3.org/2000/svg" xmlns:xlink="http://www.w3.org/1999/xlink" width="89" height="89" viewBox="0 0 89 89">
  <defs>
    <clipPath id="clip-path">
      <rect id="Rectángulo_402345" data-name="Rectángulo 402345" width="70.511" height="37.968" fill="#224b74" stroke="#224b74" stroke-width="1"/>
    </clipPath>
  </defs>
  <g id="Grupo_1102071" data-name="Grupo 1102071" transform="translate(-1176.051 -1075)">
    <g id="Grupo_1098742" data-name="Grupo 1098742" transform="translate(-27.27 686.258)">
      <rect id="Rectángulo_400898" data-name="Rectángulo 400898" width="89" height="89" rx="44.5" transform="translate(1203.32 388.742)" fill="#d9eafa" opacity="0.999"/>
      <g id="Rectángulo_400907" data-name="Rectángulo 400907" transform="translate(1203.32 388.742)" fill="none" stroke="#0f1f33" stroke-linecap="round" stroke-width="2" stroke-dasharray="7">
        <rect width="89" height="89" rx="44.5" stroke="none"/>
        <rect x="1" y="1" width="87" height="87" rx="43.5" fill="none"/>
      </g>
    </g>
    <g id="Grupo_1101942" data-name="Grupo 1101942" transform="translate(1185.295 1105.585)">
      <g id="Grupo_1101941" data-name="Grupo 1101941" clip-path="url(#clip-path)">
        <path id="Trazado_892540" data-name="Trazado 892540" d="M0,6.957C.35,5.074.566,3.338,1.015,1.665,1.444.067,2.127-.261,3.69.176a114.637,114.637,0,0,0,22.04,3.51c1.205.095,2.312.143,3.156-1.1.573-.847,1.5-.365,2.236.07a7.8,7.8,0,0,0,4.251,1.388,7.8,7.8,0,0,0,3.891-1.187c1.718-1.006,1.672-.905,3.162.334a3.129,3.129,0,0,0,2.171.489Q53.489,2.572,62.36,1.3A42.073,42.073,0,0,0,66.783.229c1.879-.483,2.451-.173,3.044,1.711a16.959,16.959,0,0,1,.4,7.92,32.828,32.828,0,0,1-1.094,4.271,4.191,4.191,0,0,1-5.185,3.005,3.671,3.671,0,0,0-3.288.675,4.607,4.607,0,0,1-2.719.678,2.6,2.6,0,0,0-2.285.937A5.011,5.011,0,0,1,52.6,21.144a3.5,3.5,0,0,0-1.478,1.029c-.92.865-1.807,1.768-2.667,2.694a3.384,3.384,0,0,0-.955,1.378,4.848,4.848,0,0,1-4.063,4.143A1.62,1.62,0,0,0,42,32.116c-.014.368-.034.735-.045,1.1a4.123,4.123,0,0,1-2.717,3.962,9.577,9.577,0,0,1-7.274.131,4.638,4.638,0,0,1-3.2-4.4c-.095-2.079-.139-2.056-2.163-2.7a4.534,4.534,0,0,1-3.275-3.732,2.635,2.635,0,0,0-1.28-1.8,22.359,22.359,0,0,1-2.382-2.412c-.431-.424-.9-1.013-1.422-1.1a5.248,5.248,0,0,1-3.284-1.856,2.064,2.064,0,0,0-2.06-.792A3.913,3.913,0,0,1,9.566,17.51a1.994,1.994,0,0,0-2.135-.463,4.524,4.524,0,0,1-6.02-3.6C.937,11.255.459,9.066,0,6.957m68.05-.2c-.1-.949-.176-1.818-.273-2.684-.11-.977-.606-1.4-1.605-1.1-.4.12-.8.2-1.206.3a114.146,114.146,0,0,1-20.751,2.9c-1.687.088-1.911.278-1.961,1.932-.007.23,0,.46-.01.69-.076,1.973-.871,2.434-2.676,1.549-.206-.1-.407-.215-.608-.327-4.3-2.385-2.89-2.4-7.237.028-2.574,1.438-3.17,1.1-3.252-1.886-.047-1.7-.26-1.87-1.907-1.993-2.981-.222-5.979-.363-8.929-.808C13.362,4.724,9.122,3.856,4.874,3.049,3.355,2.761,3.086,2.86,2.9,4.429a22.773,22.773,0,0,0-.125,3.441c.093,2.939.531,3.3,3.488,3.592,7.781.78,14.61,3.606,19.965,9.5a18.343,18.343,0,0,1,4.957,10.854c.247,2.688.735,3.253,3.392,3.553a7.661,7.661,0,0,0,2.055-.077c2.232-.36,2.719-.916,2.888-3.134a17.425,17.425,0,0,1,2.921-8.522A26.453,26.453,0,0,1,57.254,12.95a67.71,67.71,0,0,1,8.653-1.672A1.87,1.87,0,0,0,67.73,9.565c.13-.954.22-1.914.32-2.806M22.08,20.341c.047,1.69.45,2.065,1.987,1.86l-1.987-1.86m24.58,1.8.2.279c1.361-.04,1.751-.414,1.752-2.059l-1.955,1.78M26.363,25.3l-.335.147c-.289,1.323.068,1.9,1.522,2.121L26.363,25.3m18.259-.088c-.755.785-1.3,1.375-1,2.425a1.7,1.7,0,0,0,1-2.425M17,17.129l-.182.373a1.46,1.46,0,0,0,1.964.942l.166-.341L17,17.129m36.872.393-.222-.4-1.886,1.023.185.345a1.5,1.5,0,0,0,1.923-.966m-40.978-1.4.2-.664-2.116-.583-.17.56,2.085.687m44.729-.645.122.414a1.36,1.36,0,0,0,1.968-1.029l-2.091.615M4.583,13.9a1.494,1.494,0,0,0,2.1.627q.014-.254.03-.509L4.583,13.9m59.405.149.041.436a1.391,1.391,0,0,0,2.094-.611l-2.136.176M31.468,5.725c-.208.384-.463.645-.438.874.024.211.35.388.543.58l.683-.724-.787-.73m7.82,1.611.5-.34L39.246,5.94l-.766.47.808.926" transform="translate(0 0)" fill="#224b74" stroke="#224b74" stroke-width="1"/>
      </g>
    </g>
  </g>
</svg>
