<svg xmlns="http://www.w3.org/2000/svg" xmlns:xlink="http://www.w3.org/1999/xlink" width="89" height="89" viewBox="0 0 89 89">
  <defs>
    <clipPath id="clip-path">
      <rect id="Rectángulo_402346" data-name="Rectángulo 402346" width="63.97" height="39.692" fill="#224b74" stroke="#224b74" stroke-width="1"/>
    </clipPath>
  </defs>
  <g id="Grupo_1102072" data-name="Grupo 1102072" transform="translate(-335.052 -1514)">
    <g id="Grupo_1098742" data-name="Grupo 1098742" transform="translate(-868.269 1125.258)">
      <rect id="Rectángulo_400898" data-name="Rectángulo 400898" width="89" height="89" rx="44.5" transform="translate(1203.32 388.742)" fill="#d9eafa"/>
      <g id="Rectángulo_400907" data-name="Rectángulo 400907" transform="translate(1203.32 388.742)" fill="none" stroke="#0f1f33" stroke-linecap="round" stroke-width="2" stroke-dasharray="7">
        <rect width="89" height="89" rx="44.5" stroke="none"/>
        <rect x="1" y="1" width="87" height="87" rx="43.5" fill="none"/>
      </g>
    </g>
    <g id="Grupo_1101944" data-name="Grupo 1101944" transform="translate(348.065 1542.893)">
      <g id="Grupo_1101943" data-name="Grupo 1101943" clip-path="url(#clip-path)">
        <path id="Trazado_892541" data-name="Trazado 892541" d="M31.956,39.681c-1.751,0-3.5,0-5.253,0-.684,0-1.263-.1-1.293-.973-.3-8.447-4.8-14.707-10.61-20.253A60.583,60.583,0,0,0,1.184,8.788,1.71,1.71,0,0,1,.1,6.536c.437-1.775.678-3.6.965-5.409C1.225.092,1.717-.2,2.714.147A90.411,90.411,0,0,0,39.189,4.5,91.663,91.663,0,0,0,60.6.338c1.94-.624,2.095-.518,2.423,1.474.264,1.6.475,3.219.856,4.795a1.533,1.533,0,0,1-1.083,2.1A48.844,48.844,0,0,0,46.882,19.53c-5.083,5.26-8.134,11.435-8.306,18.857-.023.988-.434,1.322-1.368,1.3-1.75-.033-3.5-.01-5.253-.01M2.635,2.019c-.248,1.412-.412,2.732-.729,4.016-.21.851.043,1.226.79,1.638A62.841,62.841,0,0,1,17.735,18.965c4.233,4.383,7.578,9.3,8.863,15.379.247,1.169.365,2.364.546,3.569h9.69c1.3-9,3.221-13.417,8.178-18.844a46.931,46.931,0,0,1,11.206-8.921c1.935-1.123,3.947-2.115,5.989-3.2-.3-1.645-.6-3.3-.909-5.009a97.488,97.488,0,0,1-58.664.081" transform="translate(0 0)" fill="#224b74" stroke="#224b74" stroke-width="1"/>
        <path id="Trazado_892542" data-name="Trazado 892542" d="M114.322,39.1c1.123,0,2.252-.064,3.366.035.382.034.727.476,1.089.731-.359.311-.708.877-1.077.891-2.284.083-4.575.083-6.859,0-.373-.014-.726-.574-1.087-.881.358-.259.7-.708,1.078-.74,1.156-.1,2.326-.036,3.491-.036" transform="translate(-82.283 -29.298)" fill="#224b74" stroke="#224b74" stroke-width="1"/>
      </g>
    </g>
  </g>
</svg>
