<svg xmlns="http://www.w3.org/2000/svg" xmlns:xlink="http://www.w3.org/1999/xlink" width="89" height="89" viewBox="0 0 89 89">
  <defs>
    <clipPath id="clip-path">
      <rect id="Rectángulo_402349" data-name="Rectángulo 402349" width="48.773" height="60.572" fill="#224b74" stroke="#224b74" stroke-width="2"/>
    </clipPath>
  </defs>
  <g id="Grupo_1102074" data-name="Grupo 1102074" transform="translate(-1176.051 -1514)">
    <g id="Grupo_1098742" data-name="Grupo 1098742" transform="translate(-27.27 1125.258)">
      <rect id="Rectángulo_400898" data-name="Rectángulo 400898" width="89" height="89" rx="44.5" transform="translate(1203.32 388.742)" fill="#d9eafa" opacity="0.999"/>
      <g id="Rectángulo_400907" data-name="Rectángulo 400907" transform="translate(1203.32 388.742)" fill="none" stroke="#0f1f33" stroke-linecap="round" stroke-width="2" stroke-dasharray="7">
        <rect width="89" height="89" rx="44.5" stroke="none"/>
        <rect x="1" y="1" width="87" height="87" rx="43.5" fill="none"/>
      </g>
    </g>
    <g id="Grupo_1101948" data-name="Grupo 1101948" transform="translate(1195.664 1528.214)">
      <g id="Grupo_1101947" data-name="Grupo 1101947" clip-path="url(#clip-path)">
        <path id="Trazado_892544" data-name="Trazado 892544" d="M43.747,7.8c-2.608,1.915-5.183,3.677-7.594,5.643a10.109,10.109,0,0,0-1.994,2.888,81.741,81.741,0,0,0-8.647,23.359c-1.443,6.5-2.768,13.028-4.162,19.539a9.44,9.44,0,0,1-.506,1.348l-.431-.091a6.136,6.136,0,0,1,.01-1.2c1.062-5.193,2.188-10.374,3.2-15.576.589-3.018-.27-5.928-.962-8.832a1.112,1.112,0,0,0-.377-.552c-3.608-2.9-5.863-6.877-8.4-10.623-.28-.413-.537-.841-.8-1.265-3.663-5.893-3.833-6.04-10.394-9-3.973,15.956-.719,31.31,4.3,46.793C5.161,59.281,1.483,45.039.46,36.686-1.09,24.024,1.474,11.938,5.161,0l.571.058A7.748,7.748,0,0,1,5.62,1.344C4.77,4.68,3.872,8,3.062,11.348a1.513,1.513,0,0,0,.418,1.318c5.494,3.448,11.292,6.209,17.972,5.561a27.954,27.954,0,0,0,8.038-2.3A54.314,54.314,0,0,0,42.573,7.442a1.086,1.086,0,0,0,.349-1.6c-.877-1.585-1.709-3.2-2.546-4.8a2.545,2.545,0,0,1-.146-.6l.343-.273a7.65,7.65,0,0,1,.967,1.113,59.474,59.474,0,0,1,6.547,17.772c1.687,7.959.046,15.545-2.583,22.942C43.46,47.741,40.882,53.3,38.535,58.945a3.173,3.173,0,0,1-.458.828c-.116.138-.371.159-.563.233-.056-.227-.2-.476-.147-.676a5.455,5.455,0,0,1,.455-.984,150.954,150.954,0,0,0,7.928-19.93c3.106-9.631,2.456-19.021-1.1-28.345-.287-.752-.593-1.5-.9-2.277M33.511,15.123C26.534,19.068,19.34,20.965,11.486,17.8c3.033,5.2,5.963,10.31,10.019,14.643a6.124,6.124,0,0,0,.919.8c1.826,1.3,3.548.718,4.231-1.415.524-1.636.909-3.33,1.579-4.9,1.665-3.908,3.457-7.761,5.276-11.811M23.733,34.939l.752,4.15.21.019,1.143-4.46-2.1.291" transform="translate(0 -0.001)" fill="#224b74" stroke="#224b74" stroke-width="2"/>
        <path id="Trazado_892545" data-name="Trazado 892545" d="M106.164,27.938c-.482.3-.947.808-1.452.852-.709.062-1.525-.118-1.653-1.1h2.779l.326.248" transform="translate(-83.296 -22.38)" fill="#224b74" stroke="#224b74" stroke-width="2"/>
      </g>
    </g>
  </g>
</svg>
