<svg xmlns="http://www.w3.org/2000/svg" xmlns:xlink="http://www.w3.org/1999/xlink" width="89" height="89" viewBox="0 0 89 89">
  <defs>
    <clipPath id="clip-path">
      <rect id="Rectángulo_402375" data-name="Rectángulo 402375" width="44.893" height="54.009" fill="#224b74"/>
    </clipPath>
  </defs>
  <g id="Grupo_1102066" data-name="Grupo 1102066" transform="translate(-754.163 -1903)">
    <g id="Grupo_1098742" data-name="Grupo 1098742" transform="translate(-449.157 1514.258)">
      <rect id="Rectángulo_400898" data-name="Rectángulo 400898" width="89" height="89" rx="44.5" transform="translate(1203.32 388.742)" fill="#d2c3dd"/>
      <g id="Rectángulo_400907" data-name="Rectángulo 400907" transform="translate(1203.32 388.742)" fill="none" stroke="#0f1f33" stroke-linecap="round" stroke-width="2" stroke-dasharray="7">
        <rect width="89" height="89" rx="44.5" stroke="none"/>
        <rect x="1" y="1" width="87" height="87" rx="43.5" fill="none"/>
      </g>
    </g>
    <g id="Grupo_1101992" data-name="Grupo 1101992" transform="translate(776.435 1920.495)">
      <g id="Grupo_1101991" data-name="Grupo 1101991" clip-path="url(#clip-path)">
        <path id="Trazado_892622" data-name="Trazado 892622" d="M22.3,38.528q-1.482,6.62-2.964,13.24C18.924,53.625,18.461,54,16.54,54Q9.555,54,2.57,54C.471,54-.2,53.312.049,51.2c.812-6.935,1.668-13.864,2.511-20.8C3.393,23.556,4.3,16.713,5.026,9.85c.255-2.423.055-4.895.067-7.344C5.1.672,5.738,0,7.52,0Q22.454,0,37.388,0c1.729,0,2.479.68,2.4,2.4-.357,7.392.984,14.639,1.817,21.927.954,8.332,2.008,16.652,3.017,24.978.1.837.23,1.673.271,2.513A1.85,1.85,0,0,1,42.9,53.991q-7.587.036-15.175,0c-1.252-.005-1.821-.587-2.138-2.008q-1.443-6.456-2.882-12.914c-.041-.183-.1-.362-.148-.543H22.3M36.173,11.652H24.384c0,1.791.009,3.51-.007,5.229a3.281,3.281,0,0,1-.153,1.177,1.769,1.769,0,0,1-2.116,1.183,1.86,1.86,0,0,1-1.582-1.982c-.013-1.87,0-3.741,0-5.625H8.746L4.083,50.062c.41.03.722.073,1.034.073,3.212,0,6.424-.022,9.635.021.8.011,1.072-.247,1.243-1.034,1.456-6.7,2.98-13.386,4.451-20.083.251-1.141.729-2.008,1.993-2.014s1.761.852,2.012,1.995c1.407,6.423,2.85,12.839,4.273,19.259.411,1.856.4,1.859,2.248,1.859h9.856L36.173,11.652M9.008,7.627H35.874v-3.7H9.008Z" transform="translate(0 0)" fill="#224b74"/>
      </g>
    </g>
  </g>
</svg>
