<svg xmlns="http://www.w3.org/2000/svg" xmlns:xlink="http://www.w3.org/1999/xlink" width="89" height="89" viewBox="0 0 89 89">
  <defs>
    <clipPath id="clip-path">
      <rect id="Rectángulo_402378" data-name="Rectángulo 402378" width="47.532" height="59.822" fill="#224b74"/>
    </clipPath>
  </defs>
  <g id="Grupo_1102069" data-name="Grupo 1102069" transform="translate(-1069.162 -2370)">
    <g id="Grupo_1098742" data-name="Grupo 1098742" transform="translate(-134.158 1981.258)">
      <rect id="Rectángulo_400898" data-name="Rectángulo 400898" width="89" height="89" rx="44.5" transform="translate(1203.32 388.742)" fill="#d2c3dd"/>
      <g id="Rectángulo_400907" data-name="Rectángulo 400907" transform="translate(1203.32 388.742)" fill="none" stroke="#0f1f33" stroke-linecap="round" stroke-width="2" stroke-dasharray="7">
        <rect width="89" height="89" rx="44.5" stroke="none"/>
        <rect x="1" y="1" width="87" height="87" rx="43.5" fill="none"/>
      </g>
    </g>
    <g id="Grupo_1101998" data-name="Grupo 1101998" transform="translate(1090.115 2384.589)">
      <g id="Grupo_1101997" data-name="Grupo 1101997" clip-path="url(#clip-path)">
        <path id="Trazado_892629" data-name="Trazado 892629" d="M3.01,0h41.6c0,2.849-.033,5.644.02,8.437a7.915,7.915,0,0,0,.431,2.492,44.745,44.745,0,0,1,1.632,23.487,62.181,62.181,0,0,0-.931,10.327,69.725,69.725,0,0,1-1.7,15.005H27.673c-.43-2.681-.984-5.383-1.27-8.114-.357-3.4-.357-6.848-.771-10.242a40,40,0,0,0-1.726-6.943,25.606,25.606,0,0,0-2.175,8.7c-.354,5.242-.409,10.51-1.659,15.656-.114.467-.022,1.023-.806,1.02-5.217-.019-10.434-.01-15.943-.01-.463-3.814-1.264-7.58-1.3-11.353a126.487,126.487,0,0,0-1.6-18.006A39.7,39.7,0,0,1,2.613,10.8a6.777,6.777,0,0,0,.38-2.152C3.035,5.809,3.01,2.967,3.01,0M29.46,43.375a2.885,2.885,0,0,0,.458-.235q6.654-5.878,13.289-11.779a1.918,1.918,0,0,0,.494-1.1,38.132,38.132,0,0,0-1.686-17.389,1.3,1.3,0,0,0-1.489-1.06c-4.6.042-9.191.018-13.787.023-.369,0-.738.041-1.168.066,0,5.087-.025,10.031.022,14.975a9.161,9.161,0,0,0,.474,2.842c1.514,4.419,3.029,8.831,3.394,13.661m-11.315.164c.375-5.17,2.016-9.74,3.583-14.333a6.2,6.2,0,0,0,.306-1.937c.025-4.712.015-9.425.011-14.137,0-.409-.043-.818-.065-1.206a3.321,3.321,0,0,0-.468-.087c-4.907-.006-9.814.014-14.721-.032-.814-.008-.966.457-1.155,1.021A41.566,41.566,0,0,0,3.587,27.423a7.113,7.113,0,0,0,2.836,5.826c3.945,3.223,7.675,6.71,11.722,10.29M6.592,8.242H41.027V3.557H6.592ZM5.156,36.814c.093,3.017.113,6,.295,8.965.194,3.177.556,6.343.809,9.516.062.786.375,1.035,1.167,1.021,2.8-.046,5.6-.018,8.407-.018h1.242c.3-2.542.62-4.93.82-7.329a2.047,2.047,0,0,0-.626-1.462c-3.784-3.416-7.613-6.784-11.432-10.161-.223-.2-.47-.368-.681-.532m37.5-.009c-.226.068-.315.069-.366.114q-6.127,5.408-12.238,10.834a1.1,1.1,0,0,0-.356.787c.252,2.573.549,5.143.83,7.685H41.088c1.8-6.392.565-12.942,1.567-19.42" transform="translate(0)" fill="#224b74"/>
      </g>
    </g>
  </g>
</svg>
