<svg xmlns="http://www.w3.org/2000/svg" xmlns:xlink="http://www.w3.org/1999/xlink" width="89" height="89" viewBox="0 0 89 89">
  <defs>
    <clipPath id="clip-path">
      <rect id="Rectángulo_402379" data-name="Rectángulo 402379" width="40.495" height="58.492" fill="#224b74" stroke="#224b74" stroke-width="1"/>
    </clipPath>
  </defs>
  <g id="Grupo_1102070" data-name="Grupo 1102070" transform="translate(-754.163 -2837)">
    <g id="Grupo_1098742" data-name="Grupo 1098742" transform="translate(-449.157 2448.258)">
      <rect id="Rectángulo_400898" data-name="Rectángulo 400898" width="89" height="89" rx="44.5" transform="translate(1203.32 388.742)" fill="#d2c3dd"/>
      <g id="Rectángulo_400907" data-name="Rectángulo 400907" transform="translate(1203.32 388.742)" fill="none" stroke="#0f1f33" stroke-linecap="round" stroke-width="2" stroke-dasharray="7">
        <rect width="89" height="89" rx="44.5" stroke="none"/>
        <rect x="1" y="1" width="87" height="87" rx="43.5" fill="none"/>
      </g>
    </g>
    <g id="Grupo_1102000" data-name="Grupo 1102000" transform="translate(778.633 2852.254)">
      <g id="Grupo_1101999" data-name="Grupo 1101999" clip-path="url(#clip-path)">
        <path id="Trazado_892630" data-name="Trazado 892630" d="M20.078,46.243c-.515,3.322-1.048,6.641-1.539,9.966-.333,2.263-.306,2.267-2.643,2.267q-7.06,0-14.121,0C.147,58.474,0,58.338,0,56.764c0-6.048-.009-12.1.007-18.144A37.778,37.778,0,0,1,2.4,25.4c2.339-6.261,3.031-12.6.811-19.041A33.163,33.163,0,0,0,1.09,1.868C.457.66.76.008,2.133.007q18.077-.014,36.154,0c1.347,0,1.8.664,1.166,1.713-4.317,7.16-4.493,14.715-1.8,22.371a47.824,47.824,0,0,1,2.832,16.927c-.094,5.275-.017,10.553-.022,15.83,0,1.44-.184,1.625-1.612,1.627-5.031.005-10.063-.019-15.094.019-1.046.008-1.545-.337-1.7-1.4-.492-3.452-1.053-6.894-1.591-10.339-.028-.179-.089-.352-.134-.528l-.259.021M3.93,26.9H36.539c-3.276-8.381-3.8-16.64.383-24.876H3.546c4.181,8.247,3.66,16.505.384,24.876M2.007,56.449H16.491c.117-.7.229-1.329.328-1.965.806-5.166,1.589-10.335,2.447-15.492.071-.426.641-.77.979-1.152.332.389.831.73.961,1.178A22.92,22.92,0,0,1,21.7,41.89c.752,4.838,1.5,9.677,2.259,14.548H38.429V46.18a20.435,20.435,0,0,1-2.72-.239,5.97,5.97,0,0,1-4.644-6.055c-.039-1.724-.007-3.45-.007-5.171H9.361c0,2.036.113,3.987-.026,5.92a5.835,5.835,0,0,1-5.8,5.455c-.5.016-1.011,0-1.53,0Zm.573-23.87H37.964c-.139-.686-.243-1.283-.383-1.871-.519-2.173-.145-1.754-2.249-1.759Q20.864,28.919,6.4,28.94c-3.31,0-3.311,0-3.815,3.273a2.555,2.555,0,0,0,0,.366m4.764,2.11H2.125V44.05c2.823.317,4.93-.829,5.173-3.115a59.731,59.731,0,0,0,.046-6.246m25.674-.012c0,1.705-.021,3.36,0,5.013.049,3.231,2.173,4.916,5.288,4.315V34.677Z" transform="translate(0 -0.001)" fill="#224b74" stroke="#224b74" stroke-width="1"/>
        <path id="Trazado_892631" data-name="Trazado 892631" d="M77.988,79.351c-.013,1.922-1.051,3.386-2.415,3.4s-2.434-1.433-2.461-3.357c-.027-2,1-3.49,2.414-3.5S78,77.347,77.988,79.351m-2.16-1.345H75.39a2.434,2.434,0,0,0,.06,2.584l.377-.012Z" transform="translate(-55.314 -57.418)" fill="#224b74" stroke="#224b74" stroke-width="1"/>
      </g>
    </g>
  </g>
</svg>
