<svg xmlns="http://www.w3.org/2000/svg" xmlns:xlink="http://www.w3.org/1999/xlink" width="89" height="89" viewBox="0 0 89 89">
  <defs>
    <clipPath id="clip-path">
      <rect id="Rectángulo_402380" data-name="Rectángulo 402380" width="47.381" height="54.449" fill="#224b74"/>
    </clipPath>
  </defs>
  <g id="Grupo_1102071" data-name="Grupo 1102071" transform="translate(-1069.162 -2837)">
    <g id="Grupo_1098742" data-name="Grupo 1098742" transform="translate(-134.158 2448.258)">
      <rect id="Rectángulo_400898" data-name="Rectángulo 400898" width="89" height="89" rx="44.5" transform="translate(1203.32 388.742)" fill="#d2c3dd"/>
      <g id="Rectángulo_400907" data-name="Rectángulo 400907" transform="translate(1203.32 388.742)" fill="none" stroke="#0f1f33" stroke-linecap="round" stroke-width="2" stroke-dasharray="7">
        <rect width="89" height="89" rx="44.5" stroke="none"/>
        <rect x="1" y="1" width="87" height="87" rx="43.5" fill="none"/>
      </g>
    </g>
    <g id="Grupo_1102002" data-name="Grupo 1102002" transform="translate(1090.191 2854.275)">
      <g id="Grupo_1102001" data-name="Grupo 1102001" clip-path="url(#clip-path)">
        <path id="Trazado_892632" data-name="Trazado 892632" d="M22.549,54.449H3.015c-.267-2.2-.542-4.372-.794-6.548C1.547,42.085.9,36.266.208,30.452a38.913,38.913,0,0,1,.8-12.48c.649-3.161,1.354-6.322,1.757-9.518a64.538,64.538,0,0,0,.166-7.017c.007-.456,0-.912,0-1.436H44.375a1.415,1.415,0,0,1,.108.448c-.5,6.5.974,12.773,2.237,19.062a43.381,43.381,0,0,1,.169,14.09c-.823,6.548-1.545,13.109-2.314,19.665-.045.383-.12.763-.184,1.169H24.876V53.126q0-11.878,0-23.757c0-1.466-.31-2-1.149-2.013s-1.176.531-1.177,1.985q0,11.879,0,23.757v1.351M41.733,9.6H5.86c-.577,3.032-1.094,6-1.715,8.952a36.951,36.951,0,0,0-.593,13.115c.088.6.169,1,.963,1.083a19.8,19.8,0,0,1,13.938,7.912c.226.291.463.574.883,1.095V40.324q0-5.433,0-10.865A13.227,13.227,0,0,1,19.4,27.97a4.285,4.285,0,0,1,3.942-3.819,4.332,4.332,0,0,1,4.736,4.561c.044,3.905.011,7.811.016,11.717,0,.357.038.714.07,1.283.277-.35.388-.483.491-.622a19.942,19.942,0,0,1,14.361-8.357c.6-.066.789-.319.818-.855a38.319,38.319,0,0,0,.3-6.469C43.5,20.136,42.559,14.9,41.733,9.6M19.2,51.241C18.9,43.671,10.573,35.325,4.08,36.07q.887,7.576,1.776,15.171ZM43.357,35.959c-8.727.752-14.918,8.551-15.064,15.255H41.576l1.781-15.255M41.249,3.217H6.214V6.24H41.249Z" transform="translate(0)" fill="#224b74"/>
      </g>
    </g>
  </g>
</svg>
