<svg xmlns="http://www.w3.org/2000/svg" xmlns:xlink="http://www.w3.org/1999/xlink" width="89" height="89" viewBox="0 0 89 89">
  <defs>
    <clipPath id="clip-path">
      <rect id="Rectángulo_402370" data-name="Rectángulo 402370" width="44.052" height="59.004" fill="#224b74"/>
    </clipPath>
  </defs>
  <g id="Grupo_1102069" data-name="Grupo 1102069" transform="translate(-1176.5 -549.337)">
    <g id="Grupo_1098742" data-name="Grupo 1098742" transform="translate(-26.82 160.595)">
      <rect id="Rectángulo_400898" data-name="Rectángulo 400898" width="89" height="89" rx="44.5" transform="translate(1203.32 388.742)" fill="#d9eafa" opacity="0.999"/>
      <g id="Rectángulo_400907" data-name="Rectángulo 400907" transform="translate(1203.32 388.742)" fill="none" stroke="#0f1f33" stroke-linecap="round" stroke-width="2" stroke-dasharray="7">
        <rect width="89" height="89" rx="44.5" stroke="none"/>
        <rect x="1" y="1" width="87" height="87" rx="43.5" fill="none"/>
      </g>
    </g>
    <g id="Grupo_1101982" data-name="Grupo 1101982" transform="translate(1199.025 564.335)">
      <g id="Grupo_1101981" data-name="Grupo 1101981" clip-path="url(#clip-path)">
        <path id="Trazado_892616" data-name="Trazado 892616" d="M16.386,3.639H27.669c0-.581-.018-1.109,0-1.636.055-1.351.666-1.982,1.993-1.99q4.322-.027,8.644,0c1.4.007,2,.624,2.048,2.052.021.652.006,1.306.006,1.958,0,6.374.012,12.749-.016,19.124a1.365,1.365,0,0,0,.914,1.476,4.606,4.606,0,0,1,2.745,3.965,6.835,6.835,0,0,1,.041.689q0,13.767,0,27.533c0,1.62-.611,2.191-2.257,2.192q-19.768,0-39.535,0C.615,59,.008,58.424.006,56.8Q-.008,43.032,0,29.266a4.786,4.786,0,0,1,3-4.752c.737-.319.685-.807.685-1.378q0-9.965,0-19.93c0-.346-.006-.691,0-1.037C3.729.608,4.316.015,5.868.01q4.149-.014,8.3,0c1.615,0,2.186.588,2.218,2.234.009.449,0,.9,0,1.4M40.515,47.972c.023-.479.058-.89.059-1.3q.007-5.127,0-10.253,0-3.514,0-7.027c0-.884-.247-1.563-1.238-1.8-2.153-.515-2.447-.916-2.448-3.169q0-9.734,0-19.469V3.563H31.141c0,3.584.04,7.077-.022,10.568a12.342,12.342,0,0,1-.489,3.508A8.987,8.987,0,0,1,20.5,23.733a9.159,9.159,0,0,1-7.565-9.017c-.079-3.262-.02-6.528-.022-9.792,0-.448,0-.9,0-1.393H7.165v1.41q0,9.677,0,19.354a11.408,11.408,0,0,1-.027,1.151A2.139,2.139,0,0,1,5.3,27.5c-1.631.347-1.815.572-1.817,2.225q-.008,8.583,0,17.165c0,.364.049.728.074,1.079Zm.01,3.658H3.573v3.84H40.525ZM16.467,7.2c-.033.288-.073.474-.073.661,0,2.3-.059,4.6.021,6.894a5.62,5.62,0,1,0,11.239-.118c.05-2.221.014-4.443.006-6.665A5.679,5.679,0,0,0,27.55,7.2Z" transform="translate(0 0)" fill="#224b74"/>
        <path id="Trazado_892617" data-name="Trazado 892617" d="M81.639,123.992c-1.4,0-2.657.013-3.91,0-1.391-.019-2.141-.618-2.167-1.692-.026-1.122.746-1.763,2.2-1.773,2.074-.015,4.148-.027,6.222,0,1.785.027,2.5,1.124,1.79,2.76q-2.655,6.118-5.364,12.212c-.518,1.168-1.421,1.59-2.381,1.187s-1.288-1.436-.768-2.63c1.286-2.952,2.59-5.9,3.883-8.844.15-.342.281-.692.5-1.221" transform="translate(-58.157 -92.752)" fill="#224b74"/>
      </g>
    </g>
  </g>
</svg>
