<svg xmlns="http://www.w3.org/2000/svg" xmlns:xlink="http://www.w3.org/1999/xlink" width="190" height="158.441" viewBox="0 0 190 158.441">
  <defs>
    <clipPath id="clip-path">
      <rect id="Rect치ngulo_402341" data-name="Rect치ngulo 402341" width="165.908" height="128.331" fill="none"/>
    </clipPath>
  </defs>
  <g id="Grupo_1102065" data-name="Grupo 1102065" transform="translate(-495.32 -597.5)">
    <rect id="Rect치ngulo_35929" data-name="Rect치ngulo 35929" width="190" height="158.441" transform="translate(495.32 597.5)" fill="#ffeed2"/>
    <path id="Trazado_126381" data-name="Trazado 126381" d="M61.3,283.825s9.178-18.231,33.427-14.74S116.3,288.479,133.092,287.7s35.066-12.024,49.978,10.067c17.3,25.629-12.262,47.427-.521,63.089,21.036,28.061,0,61.136-46.979,54.857-38.961-5.206-39.31-12.511-61.926-3.663S30.464,388.228,38.68,362.647s29.1-15.826,19.313-36.715S61.3,283.825,61.3,283.825Z" transform="translate(472.655 334.012)" fill="#fcd189"/>
    <path id="Trazado_126382" data-name="Trazado 126382" d="M2.132.064A1.763,1.763,0,0,0,1.111.088,1.5,1.5,0,0,0,.431.81C-.492,2.575.2,4.77,1.276,6.444s2.537,3.119,3.335,4.943c.673,1.541.837,3.275,1.571,4.788s2.385,2.831,3.994,2.339c3.609-1.1,2.479-8.61,1.45-11.225C10.18,3.609,5.89.778,2.132.064Z" transform="matrix(0.951, 0.309, -0.309, 0.951, 516.063, 651.407)" fill="#fcd189"/>
    <g id="Grupo_1101934" data-name="Grupo 1101934" transform="translate(503.473 612.555)">
      <g id="Grupo_1101933" data-name="Grupo 1101933" clip-path="url(#clip-path)">
        <path id="Trazado_892524" data-name="Trazado 892524" d="M61.82,133.662a2.347,2.347,0,0,1,.14-1.456,5.166,5.166,0,0,0,.143-3c-.45-2.146-1.1-4.283-1.64-6.411a40.077,40.077,0,0,0-1.8-5.493,41.6,41.6,0,0,0-6.247-10.858c-1.293-1.519-2.6-2.987-3.767-4.606-1.322-1.828-2.861-3.428-4.256-5.184a38.517,38.517,0,0,0-9.473-9.129c-1.883-1.186-3.684-2.5-5.58-3.676a32.758,32.758,0,0,0-5.794-3.262,53.365,53.365,0,0,0-6.521-1.759,34.1,34.1,0,0,0-3.673-.64,29.82,29.82,0,0,1-3.062-.246c-1.063-.23-5.076.246-6.278-.942a.54.54,0,0,1-.424.094,1.411,1.411,0,0,0-1.527.783,1.088,1.088,0,0,0-.118,1.2,3.461,3.461,0,0,0,2.74.624c1.277-.156,2.5-.352,3.777-.428.741-.044,2.068-.119,2.442.751.423.984-.008,2.852,1.111,3.318,2.376.989,5.821-1.406,7.733.709.687.763.486,1.952.838,2.856.231.6,1.992.767,2.53.908a7,7,0,0,0,2.22.2c1.186-.057,3-.2,3.712,1.034a9.907,9.907,0,0,1,.875,1.932,5.141,5.141,0,0,0,.972,2.227c1.581,1.447,4.278.974,6.123,2,1.1.608,1.36,2.066,1.7,3.145.717,2.271,2.538,1.891,4.162,3.115A7.275,7.275,0,0,1,44.364,103c.354.473,1.157,1.19,1.166,1.825.017,1.207-.476,2.831,1.045,3.3a7.88,7.88,0,0,1,2.183,1.038,2.872,2.872,0,0,1,1.54,2.788c-.219,1.072-.693,2.2.612,2.753.733.309,1.529.4,2.273.671a3.5,3.5,0,0,1,2.584,2.48,5.259,5.259,0,0,1-.114,2.479c-.178.5-.951,1.736-.6,1.961.915.582,2.476.782,2.99,1.875a3.992,3.992,0,0,1-.282,3.671c-.486.949-.705,1.453.219,2.156a3.414,3.414,0,0,1,1.165,1.3c.642,1.351.082,2.806.239,4.206.1.929,1.3,2.024,2.178,1.137.754-.762.184-1.438.048-2.281a.814.814,0,0,1,.207-.693" transform="translate(-0.351 -14.868)" fill="#f5a9b3"/>
        <path id="Trazado_892525" data-name="Trazado 892525" d="M59.367,5.468a60.252,60.252,0,0,1,6.893,3.58c1.389.825,2.919,1.365,4.313,2.159,1.165.665,2.23,1.477,3.378,2.169,2.544,1.53,5.762,2.041,8.626,2.739,2.356.574,4.729,1.064,7.112,1.5,1.04.189,2.082.411,3.125.581.968.158,2.108-.03,3.04.216,4.3,1.13,8.752,1.113,13.058,2.232,2.239.583,4.633,1.439,6.966,1.449a20.766,20.766,0,0,1,5.333.884c4.314,1.135,8.677,2.02,12.993,3.122,4.647,1.184,9.235,2.5,13.964,3.308,2.336.4,4.678.881,7.027,1.182,2.038.263,4.09.389,6.124.66a43.176,43.176,0,0,1,6.326,1.568c.551.161,2.944,1.329,2.706.207a19.362,19.362,0,0,1-.324-2.2,2.451,2.451,0,0,0-.235-1.068c.186.249-.424.289-.542.322-1.827.508-3.532-.09-5.33-.287a31.718,31.718,0,0,1-6.112-1.755c-2.08-.658-4.2-1.113-6.321-1.633-4.367-1.068-8.28-3.282-12.653-4.357-4.306-1.059-8.613-2.156-12.97-2.993-4.523-.867-9.087-1.576-13.565-2.667-4.506-1.1-8.955-2.413-13.456-3.521-4.46-1.1-9.057-1.612-13.441-3.021S76.767,6.468,72.336,5.18c-2.362-.689-4.795-1.149-7.136-1.895a35.868,35.868,0,0,1-3.81-1.562c-.949.788-2,1.427-2.982,2.179-1.272.98-.079,1.12.959,1.566" transform="translate(-11.172 -0.333)" fill="#e65960"/>
        <path id="Trazado_892526" data-name="Trazado 892526" d="M80.865,123.516a8.609,8.609,0,0,1,.406-1.147c.459-.987,1.147-1.756,1.69-2.685q.527-.9,1.061-1.8c.081-.056,2.4-3.666,3.671-5.255a19.458,19.458,0,0,1,3.015-3.05c1.092-.875,2.031-1.887,3.086-2.794a27.438,27.438,0,0,1,7.027-4.52,73.977,73.977,0,0,0,7.834-3.343c1.191-.673,2.712-.723,3.984-1.2a25.576,25.576,0,0,1,4.471-1.314c2.435-.437,5.19-1.018,7.658-.663a81.766,81.766,0,0,1,8.48,1.273c1.475.369,5.721,1.321,6.316,1.609,3.849.864,7.732,1.466,11.554,2.47,3.784.992,7.859,2.1,11.636.508a.67.67,0,0,1,.476-.673.3.3,0,0,1,.015-.043.843.843,0,0,1,.59-.6c.066-.01.118-.019.167-.028.065-.251.131-.5.19-.75a8.36,8.36,0,0,0,.255-1.984,14.509,14.509,0,0,1,.438-2,21.721,21.721,0,0,0,.112-2.2c.066-1.549.413-3.056.4-4.611-.01-1.415-.1-2.824-.227-4.233a81.6,81.6,0,0,0-1.239-9.16c-.231-1.111-.466-2.239-.595-3.372-.045.053-.091.108-.139.161-.578.625-1.2,1.206-1.788,1.822a33.627,33.627,0,0,1-4.008,3.517,59.086,59.086,0,0,1-9.689,5.868c-.559.277-1.047-.525-.493-.845a91.765,91.765,0,0,0,9.493-6.2c1.619-1.222,3.069-2.561,4.575-3.91.665-.6,1.291-1.3,1.953-1.946,0-1.181.137-2.365.213-3.547a77.237,77.237,0,0,0,.038-8.514,70.287,70.287,0,0,0-1.3-8.686c-.487-2.764-1.092-5.514-1.381-8.308-.14-1.339-.467-2.728-.494-4.071a5.8,5.8,0,0,1,.2-1.587,3.445,3.445,0,0,1-1.4-.086c-1.581-.394-3.142-.884-4.724-1.29a39.56,39.56,0,0,0-6.205-1.037c-4.4-.428-8.8-1.187-13.142-2.052-4.686-.932-9.232-2.437-13.913-3.384-4.3-.871-8.5-2.381-12.81-3.158-2.046-.37-4.084-.263-6.137-.747-2.077-.488-4.126-1.128-6.224-1.525-2.359-.443-4.774-.593-7.16-.861a19.667,19.667,0,0,1-2.8-.622c-.979-.257-2.052-.1-3.053-.265-4.549-.739-9.066-1.7-13.524-2.877a21.193,21.193,0,0,1-6.243-2.2,52.492,52.492,0,0,0-5.307-3.067c-3.558-1.745-6.854-3.864-10.508-5.423a1.656,1.656,0,0,1-.984-1.084c-1.17-.261-2.2-.523-2.931.76-.826,1.456-1.49,2.991-2.363,4.427-1.725,2.842-3.935,5.334-5.752,8.109-.917,1.4-1.588,2.917-2.561,4.289a33.084,33.084,0,0,0-2.488,3.736,53.057,53.057,0,0,1-5.387,8.069c-2.317,2.99-4.2,6.215-6.327,9.337-1.029,1.513-2.127,2.98-3.149,4.493-.789,1.172-1.41,2.421-2.288,3.532-2,2.539-3.846,5.185-5.77,7.781-.1.131-1.243,1.675-.98,1.716.583.094,1.174.065,1.761.113,1.249.1,2.538.172,3.792.249a37.5,37.5,0,0,1,6.926,1.012,48.6,48.6,0,0,1,5.973,1.624c3.983,1.582,7.292,4.4,10.928,6.575a34.652,34.652,0,0,1,9.308,8.195c1.454,1.832,3.051,3.532,4.491,5.369,1.23,1.572,2.324,3.223,3.654,4.716a43.332,43.332,0,0,1,6.415,9.694,45.308,45.308,0,0,1,2.351,5.556c.635,1.878.974,3.8,1.521,5.691.251.864.6,1.8.884,2.75.048-.688.084-1.376.1-2.061.04-2.222-.11-4.469-.2-6.687a43.85,43.85,0,0,0-.646-6.407c-.182-.942-.394-1.875-.613-2.808A11.738,11.738,0,0,0,62.385,93c-.173-.36.342-.671.541-.315.941,1.682,1.176,3.863,1.591,5.729a37.736,37.736,0,0,1,.8,6.1,71.137,71.137,0,0,1,.269,7.745,46.479,46.479,0,0,1-.865,6.421.355.355,0,0,1-.319.285c-.023.1-.043.194-.059.294-.1.564,1.853.746,2.193.842,3.887,1.082,7.462,3.413,11.54,3.858a.7.7,0,0,1,.673.052c.125.006.249.019.377.023.594.015,1.515.227,1.739-.511M149.7,90.451c2.388.549,4.78,1.043,7.2,1.417,1.084.167,2.171.3,3.253.465a4.793,4.793,0,0,0,2.738-.19c.817-.383,1.541.8.717,1.227-1.894.976-4.056.4-6.056.123a55.827,55.827,0,0,1-8.121-2.006.536.536,0,0,1,.271-1.036M96.32,100.866a74.265,74.265,0,0,1,15.9-11.771.684.684,0,0,1,.688,1.18A117.319,117.319,0,0,0,96.89,101.438c-.393.329-.942-.194-.57-.572M53.208,67.6c-5.093-2.963-10.028-6.189-15.3-8.827a33.956,33.956,0,0,0-8.417-3.133c-2.7-.56-5.43-1-8.079-1.807a.415.415,0,0,1,.211-.8c3.071.638,6.195,1,9.261,1.665a32.678,32.678,0,0,1,7.672,2.961,88.316,88.316,0,0,1,15.17,9.273c.387.3-.109.908-.516.67" transform="translate(-1.224 -1.121)" fill="#e67484"/>
        <path id="Trazado_892527" data-name="Trazado 892527" d="M172.036,125.529c-1.938-.389-3.846-.963-5.757-1.465-2-.524-3.984-.811-6.015-1.168-3.743-.657-10.42-2.535-10.662-2.594a76.912,76.912,0,0,0-7.98-1.155,15.182,15.182,0,0,0-4.366.344,36.453,36.453,0,0,0-4.031.646,47.857,47.857,0,0,0-7.815,2.718c-2.33,1.111-4.815,1.837-7.152,2.924a24.157,24.157,0,0,0-6.791,4.71c-1.962,1.964-4.2,3.458-5.862,5.729-.98,1.341-1.752,2.752-2.748,4l-.434.738c-.633,1.081-1.448,2.1-2.041,3.183-.431.788-.616,1.646-1.014,2.442-.571,1.143-2.455,1.024-3.472.911-.874,1.472,1.426,2.334,2.772,2.154,1.984-.264,2.27-1.837,3.253-3.236.65-.926,2.244-1.3,2.559-2.367a6.706,6.706,0,0,1,1.6-3.309,4.575,4.575,0,0,1,1.661-1.066c1.13-.411,1.933-.873,1.648-2.343-.179-.928-.384-2.066.306-2.852a6.231,6.231,0,0,1,3.056-1.5c1.632-.51,1.562-1.766,2.551-2.907a8.21,8.21,0,0,1,4.339-2.242c.771-.169,1.375-.265,1.64-1.075a2.2,2.2,0,0,1,.909-1.179,11.448,11.448,0,0,1,4.709-.984c1.007.035,2.181.917,3.147.4.716-.385,1.089-1.109,1.8-1.455,2.877-1.389,6.337.6,8.761,2.162a2.607,2.607,0,0,0,3.366-.1,5.236,5.236,0,0,1,1.393-.818,3.985,3.985,0,0,1,2.027.3,18.468,18.468,0,0,1,2.649.919c1.133.522,1.865,1.953,3.305,1.431.72-.261,1.325-.72,2.029-1.014,1.491-.621,2.624-.054,3.77.955,1.08.952,2.372,2.025,3.863,1.143.626-.37,1.218-.786,1.87-1.106,1.33-.655,2.417-.027,3.539.725,1.1.741,3.433,1.92,4.4.376a2.486,2.486,0,0,1,2.579-1.394c1.352.2,3.057,1.4,4.466.9,1.1-.4,1.33-1.993.963-3.16a14.91,14.91,0,0,1-8.8.679" transform="translate(-18.479 -22.995)" fill="#f5a9b3"/>
        <path id="Trazado_892528" data-name="Trazado 892528" d="M113.142,50.021c-.041-.04-.076-.085-.121-.123-.24-.191-.489-.363-.735-.544-.042-.391-.088-.785-.154-1.2-.235-1.478-2.239-1.837-3.256-.967-2.761-1.515-5.729-2.709-8.586-3.944-5.414-2.342-10.812-4.719-16.227-7.059Q79.8,34.342,75.5,32.615c-5.242-2.981-10.658-5.534-16.771-6.386A19.425,19.425,0,0,0,52.9,24.224a1.727,1.727,0,0,0-1.293,3.136.07.07,0,0,1-.006.011c.027.012.056.023.082.038l.008,0q1.78.84,3.581,1.632a2.379,2.379,0,0,0,1.035,1.524c.52.323,1.047.633,1.572.948a1.359,1.359,0,0,0,.737.792,25.262,25.262,0,0,1,3.755,2.469,68.13,68.13,0,0,0,6.11,3.49q6.122,3.456,12.181,7.01Q86.51,48.718,92.3,52.261c.1.066.215.128.324.193l-3.4-.9c-4.456-1.185-8.884-2.455-13.253-3.93-8.739-2.945-17.344-6.463-26.211-9.018-2.737-.789-4.01,2.958-1.827,4.429,5.113,3.441,11.538,5.949,17.336,7.995q1.95.685,3.885,1.415A30.974,30.974,0,0,1,72.378,55.3a1.932,1.932,0,0,0,.325,1.164c1.568,2.3,3.792,3.819,5.761,5.74,2.043,1.993,3.469,4.51,5.574,6.467A2.236,2.236,0,0,0,87.2,65.515c-.731-.862-1.406-1.765-2.08-2.668a1.864,1.864,0,0,0,.4-2.083,6.726,6.726,0,0,0-.658-1.225c.269.011.541.019.826.019,2.195,0,4.538.976,6.648,1.534,4.317,1.136,9.125,2.175,13.608,1.979,3.057-.131,4.534-1.273,5.322-4.261.326-1.236.587-2.367.783-3.469.774-.522,1.5-1.068,2.144-1.544a2.042,2.042,0,0,0-1.055-3.775" transform="translate(-9.042 -4.673)" fill="#f37a8b"/>
        <path id="Trazado_892529" data-name="Trazado 892529" d="M171.407,78.623a4.873,4.873,0,0,0-2.239-1.012,8.22,8.22,0,0,0,2.384-2.469,2.408,2.408,0,0,0-.382-2.938c-2.849-2.206-6.04.182-8.474,1.941-.7.508-1.389,1.037-2.071,1.573-1.564.429-3.128.84-4.678,1.346A176.215,176.215,0,0,1,138.5,81.6c-2.1.456-4.233.833-6.375,1.176,2.6-1.141,5.184-2.31,7.705-3.629a98.842,98.842,0,0,0,14.906-9.7c3.874-3.023,8.4-6.566,9.9-11.45.687-2.239-2.636-2.991-3.446-.9-1.776,4.582-7.828,8.08-11.645,10.771a102.157,102.157,0,0,1-14.017,8.3c-4.837,2.364-9.87,4.3-14.754,6.559-2.321,1.073-4.712,1.852-7.106,2.746-1.2.449-2.444.721-3.663,1.114a9.886,9.886,0,0,0-1.685.815c-1.372-.019-2.744-.02-4.114.027-2.056.071-2.6,3.291-.454,3.7.679.127,1.361.242,2.043.353a2.064,2.064,0,0,0,2.656,1.083c.508-.186,1.026-.358,1.544-.528.216.023.433.052.65.072-.85,1.491.011,4,2.087,3.78,11.09-1.168,22.513-2.938,33.01-6.9,4.906-1.118,9.772-2.422,14.706-3.413,3.913-.785,7.866-.517,10.953-3.475a2.446,2.446,0,0,0,0-3.461" transform="translate(-19.77 -10.787)" fill="#f37a8b"/>
        <path id="Trazado_892530" data-name="Trazado 892530" d="M69.7,89.718c-.468-1.908-2.011-3.521-3.231-5.029L60.667,77.5c-3.157-3.907-8.79-6.517-13.43-8.053a1.289,1.289,0,0,0-1.406.329,24.291,24.291,0,0,0-6.78-3.132c-4.828-1.285-9.684-1.827-14.6-2.652A1.675,1.675,0,0,0,22.4,65.6q-.036.3-.049.595a1.569,1.569,0,0,0,2.325,1.314c3.4,1.07,6.88,1.51,10.312,2.48a39.194,39.194,0,0,1,5.985,1.983c1.71.8,3.047,2.129,4.636,3.111,3.474,2.147,6.354,5.058,9.692,7.371,3.608,2.5,4.167,6.572,6.19,10.214,1.069,1.926,3.6.511,3.3-1.394-.183-1.157-.405-2.3-.7-3.408a10.185,10.185,0,0,0,4.218,3.269c.856.3,1.583-.633,1.393-1.414" transform="translate(-4.315 -12.351)" fill="#d16a78"/>
        <path id="Trazado_892531" data-name="Trazado 892531" d="M166.032,100.408c.32-1.367-.994-3.032-2.495-2.455-6.447,2.479-13.57-1.749-19.834-2.976A1.439,1.439,0,0,0,142.62,97.6a43.864,43.864,0,0,0,11.177,4.164,21.636,21.636,0,0,0,6.849.9,6.559,6.559,0,0,0-.574.392,1.833,1.833,0,0,1-.192.027,6.222,6.222,0,0,0-1.74.339c-.046-.006-.089,0-.132-.011-2.169-.364-4.388-.127-6.6-.5-2.259-.382-4.354-.934-6.647-1.126-2.426-.2-4.884-.407-7.318-.7-2.575-.491-5.019-.9-7.539-1.134-5.245-1.56-9.912-.2-15.349.057-1.422.068-3.366,1.095-4.707,1.6a8.313,8.313,0,0,0-1.017.46,58.088,58.088,0,0,0-5.35,2.548c1.508-1.33,3.007-2.676,4.515-4.009,1.961-1.731,3.893-3.5,5.88-5.2.132-.111.262-.233.391-.356,3.023-1.768,6.148-3.383,9.2-5.065a1.039,1.039,0,0,0-.8-1.89,41.92,41.92,0,0,0-5.346,1.787c-1.113-.235-2.077.584-3.021,1.194-.347.224-.681.458-1.018.687a54.813,54.813,0,0,0-7.093,4.488,40.11,40.11,0,0,0-6.468,5.894c-1.828,2.1-4.076,4.268-5.025,6.931a1.042,1.042,0,0,0,.013.739c-.828.516-1.647,1.03-2.46,1.533a44.339,44.339,0,0,0-9.034,7.139c-2.108,2.2-5.446,5.108-5.908,8.271a9,9,0,0,1-1.4-.465c-1.151-.534-2.3-1.126-3.478-1.59-1.537-.605-3.432-.767-4.842-1.579-1.293-.744-.755-.883-.706-1.987a23.079,23.079,0,0,0-.277-3.132.97.97,0,0,0-.387-.723c.009-2.807-.459-5.652-.591-8.46a55.055,55.055,0,0,0-.271-5.928c-.359-2.295-1.459-4.459-1.69-6.758a1.209,1.209,0,0,0-2.368-.292,7.525,7.525,0,0,0-.058,3.245,36.257,36.257,0,0,0-3.186-5.215c-2.384-3.213-5.739-5.885-8.925-8.562-.243-.232-.485-.462-.72-.689-3.5-3.4-7.92-6.131-11.834-9.032-8.02-5.944-18.092-9.694-28.1-8.733,1.5-2.044,3.408-3.631,5.011-5.652,1.884-2.374,3.486-4.944,5.593-7.139A61.2,61.2,0,0,0,29.989,38.122a.735.735,0,0,0-1.27-.738c-1.91,2.764-3.913,5.481-5.873,8.214-1.251,1.746-2.617,3.4-4.024,5.024A44.19,44.19,0,0,0,15.5,54.16a67.269,67.269,0,0,1-5.7,7.426c-1.786,1.959-3.6,3.186-3.872,5.965a.913.913,0,0,0,1.294.85,8.72,8.72,0,0,0,4.124,1.333A42.124,42.124,0,0,1,19.7,71.211a48.781,48.781,0,0,1,14.133,6.88c1.782,1.239,3.63,2.522,5.448,3.851a1.221,1.221,0,0,0,.374.385C45.331,86.134,48.846,92.84,52.718,98.3a86.988,86.988,0,0,1,5.572,9.023c1.39,2.572,2.541,5.385,4.289,7.745.311,1.866.733,3.729,1.207,5.675a4.18,4.18,0,0,0,.261,3.036c1.333,1.991,2.87,2.567,5.1,3.216,2.065.6,9.615,6.015,10.7,1.768a1.014,1.014,0,0,0-.223-.934c.009-.012.02-.023.029-.036,4.26-6.123,10.016-10.705,16.262-14.622,5.191-3.256,10.877-6.07,15.84-9.7,1.726-.246,3.515-.349,4.93-.451.2-.015.408-.035.612-.05.366.034.665.056.729.058,2.054.093,4-.4,6.069-.152,2.47.3,4.957.286,7.424.653,2.079.312,4.122.991,6.176,1.448,4.093.913,8.184,1.782,12.272,2.718a16.255,16.255,0,0,0,5.095.531c3.023,1.059,7.642.913,8.594-2.216,1.68-1.453,1.9-3.541,2.38-5.6M55.5,95.86a1.039,1.039,0,0,0,.111-.049c.35.5.676,1.02.983,1.548-.371-.51-.738-1.014-1.094-1.5" transform="translate(-1.143 -7.152)" fill="#d16a78"/>
        <path id="Trazado_892532" data-name="Trazado 892532" d="M192.382,89.81a1.9,1.9,0,0,0-1.264-2.173,10.332,10.332,0,0,0,.671-1.556c1.836-2.495,3.04-5.284,2.674-8.074-.086-.67-.947-1.259-1.5-.612a34.088,34.088,0,0,0-2.752,4.011,1.761,1.761,0,0,0-1.038.291c-3.633,2.447-5.671,6.563-9.413,8.944-.995.632-1.974,1.247-2.966,1.841-2.012.9-4.079,1.661-6.111,2.564-1.92.851-4.438,1.807-5.714,3.533a2.2,2.2,0,0,0,1.923,3.292,16.122,16.122,0,0,0,2.68-.63,1.93,1.93,0,0,0,.551-.126,89.56,89.56,0,0,0,8.6-4.072c2.111-.734,4.319-1.1,6.408-1.905,2.585-.992,6.7-2.26,7.256-5.329" transform="translate(-31.793 -14.891)" fill="#d16a78"/>
        <path id="Trazado_892533" data-name="Trazado 892533" d="M163.538,100.78a.81.81,0,0,0,.486-.26c.663-.664.736-2.21.86-3.078.4-2.758.734-5.51.955-8.291.253-3.191-.265-6.414-.514-9.593-.253-3.246-1.28-6.362-1.571-9.6-.028-.322-.036-.648-.038-.974.022-.019.044-.036.065-.052a.471.471,0,0,0-.041-.781c.054-.992.18-1.987.243-2.963.1-1.577.152-3.157.145-4.737a43.6,43.6,0,0,0-1.007-8.748c-.636-3.017-1.122-6.076-1.7-9.108-.286-1.521-.3-3.141-.643-4.64a15.9,15.9,0,0,1-.449-2.2,12.555,12.555,0,0,1,.291-2.594l0-.019a18.145,18.145,0,0,0-.353-2.665c-.031-.785-.219-2.117-1.143-2.359-.521-.137-.963.228-1.464.244a13.6,13.6,0,0,1-3.751-.107,54.58,54.58,0,0,1-5.862-1.523,64.875,64.875,0,0,0-6.865-1.808c-4.4-.991-8.324-3.158-12.674-4.293-4.291-1.121-8.635-2.163-12.986-3.021-4.507-.891-9.048-1.6-13.528-2.634-4.517-1.04-8.986-2.328-13.474-3.494-4.461-1.16-9.065-1.637-13.491-2.937S66.381,5.331,61.985,3.95c-2.166-.681-4.4-1.161-6.609-1.665A39.495,39.495,0,0,1,50.6.724.845.845,0,0,0,49.239.19c-.034.028-.072.056-.108.085a.333.333,0,0,0-.16.119c-1.14.813-2.976,1.554-3.592,2.752a2.91,2.91,0,0,0-.223.579,3.355,3.355,0,0,0-2.835-.218c-1.471.858-1.869,2.723-2.7,4.063-1.1,1.775-2.152,3.528-3.406,5.206-1.36,1.821-2.771,3.6-3.993,5.523-1.049,1.653-1.983,3.337-3.111,4.957-1.307,1.874-2.158,4.012-3.512,5.848-2.663,3.62-5.375,7.106-7.786,10.9-1.215,1.908-2.509,3.765-3.8,5.626s-2.43,3.876-3.855,5.641c-1.2,1.487-2.309,3.046-3.449,4.584-1.077,1.455-2.688,3.141-3.286,4.87a2,2,0,0,0-.1.443c-2.2-.55-4.381,2.221-2.779,4.087,1.024,1.189,2.831,1.2,4.243,1.03.989-.115,4.494-1.147,4.561.506.056,1.4.259,2.259,1.535,3.018,1.4.832,3.292.428,4.8.271,1.063-.112,2.559-.67,2.735.891a6.788,6.788,0,0,0,.42,1.728c.565,1.438,2.773,1.532,4.038,1.86s3.955-.569,4.686.695c.783,1.352.879,2.93,1.91,4.156,1.083,1.289,3.31,1.371,4.82,1.67a2.586,2.586,0,0,1,2.317,1.762c.266.759.454,1.528.773,2.272a4.573,4.573,0,0,0,2.937,2.138,4.928,4.928,0,0,1,2.66,2c.841,1.124.528,1.836.662,3.13.13,1.255,1.112,1.9,2.195,2.338.926.374,2.221.772,2.619,1.825.108.289-.169.984-.234,1.273a4.607,4.607,0,0,0-.077,1.469c.148,1.467,2.044,2.089,3.217,2.4,1.076.284,2.219.5,2.577,1.716.366,1.24-.537,2.467-.924,3.576-.508,1.447,1.515,2.113,2.478,2.515,2.313.966-.089,3.117-.178,4.658a2.189,2.189,0,0,0,.629,1.669,4.454,4.454,0,0,0,.9.65c.673.44.682,1.132.732,1.855.1,1.422-.573,3.28.694,4.415a3.029,3.029,0,0,0,3.783.341,2.864,2.864,0,0,0,1.188-1.83,2.266,2.266,0,0,0-.142-1.108c.679.253,1.435.357,2.22.572,1.967.541,3.838,1.6,5.762,2.293a27.97,27.97,0,0,0,4.7,1.259,3.25,3.25,0,0,0-.136,1.791c.249,1.272,2.052,1.991,3.144,2.191a4.968,4.968,0,0,0,3.777-.736c1.372-1.2,1.724-3.082,3.281-4.038,1.348-.827,1.65-1.751,2.053-3.249.6-2.222,3.006-1.85,4.284-3.294a2.687,2.687,0,0,0,.52-1.86c-.008-.818-.906-2.145,0-2.81a8.012,8.012,0,0,1,2.355-.858,5.652,5.652,0,0,0,1.829-1.155c.55-.433.631-1.52,1.045-2.056a5.518,5.518,0,0,1,2.741-1.549c1.169-.408,2.66-.492,3.352-1.686.362-.625.232-.8.988-1.1a10.223,10.223,0,0,1,2.945-.712c1.026-.077,1.841.635,2.816.605a4.211,4.211,0,0,0,2.215-.828c.668-.445.933-1.037,1.736-1.31a3.989,3.989,0,0,1,2.788.468,24.522,24.522,0,0,1,2.325,1.08,16.075,16.075,0,0,0,2.512,1.359,3.758,3.758,0,0,0,3.707-.55,2.341,2.341,0,0,1,2.495-.508,8.593,8.593,0,0,1,3.539,1.685c1.478,1.268,3.074.818,4.618-.083a2.542,2.542,0,0,1,1.748-.533c.648.1,1.419,1.009,1.905,1.438a3.74,3.74,0,0,0,4.836.7c1.21-.67,2.117-1.791,3.514-.706,1.439,1.114,2.542,1.875,4.455,1.888a2.6,2.6,0,0,0,1.691-.567c.562-.509,1.155-1.668,1.981-1.541,1.592.24,2.982,1.26,4.682.913,2.375-.485,3.332-4.006,2.012-5.87M47.235,3.568c.978-.751,2.033-1.389,2.982-2.178a36.109,36.109,0,0,0,3.81,1.562c2.342.745,4.775,1.206,7.137,1.894,4.43,1.289,8.668,3.253,13.065,4.667s8.982,1.924,13.441,3.021c4.5,1.108,8.951,2.424,13.456,3.521,4.478,1.091,9.042,1.8,13.565,2.667,4.357.837,8.665,1.933,12.97,2.993,4.373,1.075,8.287,3.289,12.654,4.357,2.118.52,4.241.976,6.321,1.632a31.729,31.729,0,0,0,6.111,1.756c1.8.2,3.5.795,5.33.287.118-.033.728-.073.541-.322a2.451,2.451,0,0,1,.235,1.068,19.388,19.388,0,0,0,.325,2.2c.238,1.122-2.154-.046-2.706-.207a43.073,43.073,0,0,0-6.326-1.568c-2.034-.271-4.086-.4-6.124-.66-2.35-.3-4.692-.782-7.027-1.182-4.73-.812-9.317-2.125-13.965-3.308-4.315-1.1-8.679-1.987-12.993-3.122a20.754,20.754,0,0,0-5.333-.884c-2.333-.01-4.726-.867-6.966-1.45-4.306-1.118-8.762-1.1-13.058-2.231-.933-.246-2.071-.058-3.04-.216-1.043-.17-2.085-.392-3.125-.582-2.384-.437-4.757-.926-7.113-1.5-2.864-.7-6.081-1.209-8.625-2.739-1.148-.692-2.213-1.5-3.378-2.169-1.4-.794-2.924-1.335-4.314-2.159a60.184,60.184,0,0,0-6.893-3.58c-1.037-.446-2.23-.587-.959-1.567m13.978,118.2c-.88.887-2.073-.208-2.178-1.136-.157-1.4.4-2.856-.238-4.206a3.419,3.419,0,0,0-1.166-1.3c-.924-.7-.7-1.207-.219-2.156A3.992,3.992,0,0,0,57.7,109.3c-.514-1.093-2.074-1.293-2.99-1.875-.354-.225.419-1.457.6-1.96a5.263,5.263,0,0,0,.114-2.48,3.5,3.5,0,0,0-2.584-2.48c-.744-.27-1.54-.362-2.273-.671-1.3-.55-.83-1.682-.612-2.753a2.872,2.872,0,0,0-1.54-2.788,7.887,7.887,0,0,0-2.183-1.038c-1.522-.468-1.028-2.091-1.046-3.3-.009-.635-.812-1.352-1.166-1.825A7.252,7.252,0,0,0,42.525,86.6c-1.624-1.225-3.445-.845-4.162-3.116-.341-1.08-.6-2.537-1.7-3.145-1.845-1.026-4.542-.554-6.122-2a5.134,5.134,0,0,1-.972-2.226,9.914,9.914,0,0,0-.875-1.933c-.709-1.231-2.526-1.091-3.712-1.034a6.976,6.976,0,0,1-2.22-.2c-.537-.14-2.3-.311-2.53-.908-.352-.9-.15-2.093-.838-2.856-1.912-2.115-5.356.28-7.732-.709-1.12-.466-.689-2.334-1.112-3.317-.374-.871-1.7-.8-2.442-.752-1.277.077-2.5.273-3.777.428a3.457,3.457,0,0,1-2.739-.624,1.09,1.09,0,0,1,.118-1.2,1.411,1.411,0,0,1,1.527-.783.54.54,0,0,0,.424-.094c1.2,1.189,5.214.713,6.278.942A29.838,29.838,0,0,0,13,63.32a34.1,34.1,0,0,1,3.673.64,53.365,53.365,0,0,1,6.521,1.759,32.809,32.809,0,0,1,5.794,3.262c1.9,1.176,3.7,2.49,5.58,3.676a38.535,38.535,0,0,1,9.474,9.129c1.394,1.757,2.933,3.357,4.255,5.185,1.172,1.619,2.473,3.086,3.767,4.605a41.6,41.6,0,0,1,6.247,10.858,40.077,40.077,0,0,1,1.8,5.493c.541,2.128,1.19,4.264,1.64,6.412a5.156,5.156,0,0,1-.143,3,2.347,2.347,0,0,0-.14,1.456.815.815,0,0,0-.207.694c.136.842.705,1.519-.048,2.28m15.639,1.064c-4.077-.445-7.652-2.775-11.54-3.858-.34-.094-2.289-.278-2.192-.842.015-.1.036-.2.058-.293a.357.357,0,0,0,.319-.286,46.481,46.481,0,0,0,.866-6.421,71.34,71.34,0,0,0-.27-7.745,37.747,37.747,0,0,0-.8-6.1c-.415-1.866-.65-4.047-1.59-5.729-.2-.356-.715-.044-.541.315a11.775,11.775,0,0,1,.629,2.854c.219.933.431,1.866.613,2.808a43.738,43.738,0,0,1,.646,6.407c.094,2.217.244,4.465.2,6.687-.014.685-.049,1.373-.1,2.062-.286-.951-.633-1.887-.884-2.751-.547-1.892-.886-3.813-1.521-5.69A45.143,45.143,0,0,0,58.4,98.7,43.35,43.35,0,0,0,51.986,89c-1.33-1.492-2.425-3.144-3.654-4.715-1.44-1.838-3.037-3.537-4.491-5.37a34.661,34.661,0,0,0-9.308-8.195C30.9,68.547,27.587,65.73,23.6,64.148a48.457,48.457,0,0,0-5.973-1.625,37.5,37.5,0,0,0-6.926-1.012c-1.255-.077-2.543-.145-3.792-.249-.586-.048-1.178-.019-1.76-.113-.265-.041.884-1.586.979-1.716,1.925-2.6,3.766-5.242,5.77-7.781.879-1.111,1.5-2.359,2.288-3.532,1.022-1.513,2.12-2.98,3.149-4.493,2.126-3.122,4.01-6.346,6.328-9.336a53.257,53.257,0,0,0,5.387-8.069,32.979,32.979,0,0,1,2.487-3.737c.973-1.372,1.644-2.887,2.561-4.289,1.816-2.775,4.026-5.267,5.752-8.109.872-1.435,1.536-2.97,2.363-4.427.732-1.283,1.761-1.021,2.932-.759a1.653,1.653,0,0,0,.983,1.084c3.655,1.559,6.951,3.679,10.508,5.423a52.492,52.492,0,0,1,5.307,3.067,21.2,21.2,0,0,0,6.244,2.2c4.457,1.176,8.974,2.137,13.523,2.876,1,.162,2.075.008,3.053.265a19.745,19.745,0,0,0,2.8.623c2.387.268,4.8.417,7.16.86,2.1.4,4.147,1.037,6.225,1.526,2.054.483,4.091.376,6.136.746,4.31.777,8.507,2.287,12.81,3.158,4.681.947,9.228,2.453,13.913,3.384,4.337.865,8.739,1.624,13.142,2.052a39.56,39.56,0,0,1,6.205,1.037c1.582.407,3.144.9,4.724,1.291a3.448,3.448,0,0,0,1.4.085,5.8,5.8,0,0,0-.2,1.587c.027,1.343.353,2.733.494,4.071.29,2.794.895,5.544,1.382,8.309a70.4,70.4,0,0,1,1.3,8.685,77.031,77.031,0,0,1-.038,8.514c-.076,1.182-.217,2.366-.213,3.548-.662.644-1.287,1.35-1.953,1.946-1.507,1.349-2.956,2.687-4.574,3.909a91.861,91.861,0,0,1-9.494,6.2c-.554.32-.066,1.122.493.845a59,59,0,0,0,9.689-5.868,33.5,33.5,0,0,0,4.008-3.517c.587-.616,1.21-1.2,1.789-1.822.047-.052.093-.107.139-.161.127,1.133.364,2.262.594,3.373a81.374,81.374,0,0,1,1.239,9.159c.127,1.409.218,2.818.227,4.233.013,1.556-.334,3.062-.4,4.611a21.937,21.937,0,0,1-.111,2.2,14.3,14.3,0,0,0-.438,2,8.361,8.361,0,0,1-.256,1.984c-.06.251-.126.5-.19.75-.049.01-.1.019-.167.028a.844.844,0,0,0-.59.6.447.447,0,0,0-.015.043.67.67,0,0,0-.476.673c-3.776,1.593-7.852.485-11.636-.508-3.822-1-7.705-1.606-11.553-2.47-.6-.288-4.841-1.24-6.316-1.609a81.78,81.78,0,0,0-8.481-1.273c-2.468-.354-5.223.227-7.658.663a25.6,25.6,0,0,0-4.472,1.314c-1.272.476-2.792.527-3.984,1.2a74.141,74.141,0,0,1-7.834,3.342,27.46,27.46,0,0,0-7.027,4.52c-1.055.906-1.994,1.918-3.086,2.794a19.488,19.488,0,0,0-3.015,3.049c-1.274,1.59-3.59,5.2-3.671,5.256-.354.6-.71,1.2-1.061,1.8-.542.93-1.231,1.7-1.69,2.685a8.764,8.764,0,0,0-.406,1.147c-.223.738-1.145.526-1.739.511-.127,0-.252-.016-.377-.022a.7.7,0,0,0-.673-.052m84.54-17.816c-1.409.508-3.114-.695-4.466-.9a2.483,2.483,0,0,0-2.578,1.394c-.973,1.543-3.3.364-4.4-.377-1.122-.751-2.21-1.381-3.54-.725-.651.32-1.243.736-1.87,1.106-1.49.883-2.783-.19-3.863-1.143-1.146-1.009-2.279-1.576-3.77-.955-.7.3-1.31.754-2.029,1.015-1.44.522-2.172-.909-3.305-1.431a18.272,18.272,0,0,0-2.649-.919,3.984,3.984,0,0,0-2.027-.3,5.236,5.236,0,0,0-1.393.818,2.607,2.607,0,0,1-3.366.1c-2.424-1.565-5.885-3.553-8.761-2.162-.715.345-1.089,1.07-1.8,1.455-.966.516-2.14-.366-3.147-.4a11.447,11.447,0,0,0-4.709.983,2.2,2.2,0,0,0-.909,1.179c-.265.81-.868.906-1.64,1.075a8.211,8.211,0,0,0-4.34,2.243c-.988,1.141-.919,2.4-2.551,2.907a6.224,6.224,0,0,0-3.056,1.5c-.69.786-.485,1.924-.306,2.852.284,1.47-.518,1.933-1.648,2.343a4.585,4.585,0,0,0-1.661,1.066,6.712,6.712,0,0,0-1.6,3.309c-.316,1.064-1.909,1.442-2.559,2.367-.983,1.4-1.268,2.972-3.253,3.236-1.346.179-3.646-.683-2.772-2.154,1.016.113,2.9.232,3.472-.911.4-.8.583-1.653,1.014-2.442.594-1.085,1.408-2.1,2.041-3.183l.434-.738c1-1.248,1.769-2.659,2.749-4,1.66-2.271,3.9-3.765,5.861-5.729a24.16,24.16,0,0,1,6.791-4.711c2.337-1.087,4.822-1.812,7.152-2.923a47.883,47.883,0,0,1,7.815-2.718,36.63,36.63,0,0,1,4.032-.646,15.174,15.174,0,0,1,4.365-.343,76.913,76.913,0,0,1,7.98,1.155c.241.058,6.919,1.937,10.662,2.594,2.032.356,4.018.643,6.015,1.168,1.912.5,3.819,1.075,5.757,1.465a14.916,14.916,0,0,0,8.8-.679c.367,1.166.134,2.764-.963,3.16" transform="translate(0 0)" fill="#31221f"/>
        <path id="Trazado_892534" data-name="Trazado 892534" d="M183.575,111.739a55.738,55.738,0,0,0,8.121,2.006c2,.278,4.163.853,6.057-.123.825-.425.1-1.611-.717-1.228a4.787,4.787,0,0,1-2.738.191c-1.081-.164-2.169-.3-3.253-.465-2.419-.374-4.812-.869-7.2-1.417a.535.535,0,0,0-.271,1.035" transform="translate(-35.374 -21.374)" fill="#31221f"/>
        <path id="Trazado_892535" data-name="Trazado 892535" d="M57.258,78.228a88.308,88.308,0,0,0-15.169-9.273,32.683,32.683,0,0,0-7.673-2.961c-3.066-.66-6.19-1.026-9.261-1.665a.415.415,0,0,0-.211.8c2.648.8,5.376,1.246,8.08,1.806a33.962,33.962,0,0,1,8.416,3.133c5.275,2.638,10.21,5.864,15.3,8.827.407.238.9-.366.516-.67" transform="translate(-4.759 -12.42)" fill="#31221f"/>
        <path id="Trazado_892536" data-name="Trazado 892536" d="M118.393,121.346a117.326,117.326,0,0,1,16.017-11.163.684.684,0,0,0-.689-1.18,74.312,74.312,0,0,0-15.9,11.771c-.372.378.178.9.57.572" transform="translate(-22.727 -21.029)" fill="#31221f"/>
      </g>
    </g>
  </g>
</svg>
