<svg xmlns="http://www.w3.org/2000/svg" xmlns:xlink="http://www.w3.org/1999/xlink" width="89" height="89" viewBox="0 0 89 89">
  <defs>
    <clipPath id="clip-path">
      <rect id="Rectángulo_402368" data-name="Rectángulo 402368" width="44.996" height="52.472" fill="#224b74" stroke="#224b74" stroke-width="2"/>
    </clipPath>
  </defs>
  <g id="Grupo_1102067" data-name="Grupo 1102067" transform="translate(-335.501 -549.337)">
    <g id="Grupo_1098742" data-name="Grupo 1098742" transform="translate(-867.819 160.595)">
      <rect id="Rectángulo_400898" data-name="Rectángulo 400898" width="89" height="89" rx="44.5" transform="translate(1203.32 388.742)" fill="#d9eafa"/>
      <g id="Rectángulo_400907" data-name="Rectángulo 400907" transform="translate(1203.32 388.742)" fill="none" stroke="#0f1f33" stroke-linecap="round" stroke-width="2" stroke-dasharray="7">
        <rect width="89" height="89" rx="44.5" stroke="none"/>
        <rect x="1" y="1" width="87" height="87" rx="43.5" fill="none"/>
      </g>
    </g>
    <g id="Grupo_1101978" data-name="Grupo 1101978" transform="translate(358.907 566.46) rotate(3)">
      <g id="Grupo_1101977" data-name="Grupo 1101977" clip-path="url(#clip-path)">
        <path id="Trazado_892608" data-name="Trazado 892608" d="M0,26.13Q0,14.3,0,2.467C0,.467.471,0,2.482,0q4.046,0,8.093,0c1.718,0,2.219.518,2.285,2.267.027.714.178,1.427.173,2.139a2.824,2.824,0,0,0,2.186,2.878A19.067,19.067,0,0,0,30.8,6.8a1.441,1.441,0,0,0,.977-1.282c.1-1.153.281-2.3.357-3.454.1-1.474.637-2.056,2.078-2.061q4.354-.013,8.707,0c1.459,0,2.066.587,2.067,2.051q.011,24.176,0,48.351c0,1.467-.606,2.061-2.055,2.062q-20.437.006-40.874,0C.553,52.468,0,51.857,0,50.2Q0,38.166,0,26.13m3.417-22.8V49.1h38.19V3.373H35.452c-.04.27-.074.471-.1.674-1,8.1-5.292,14.254-11.451,19.29-1.028.84-1.677.9-2.576.174-5.561-4.5-9.67-9.973-11.285-17.08-.231-1.016-.352-2.057-.526-3.1Zm26.592,7.4a22.946,22.946,0,0,1-14.978.036,29.876,29.876,0,0,0,7.485,9.424,29.74,29.74,0,0,0,7.493-9.46" transform="translate(0 0)" fill="#224b74" stroke="#224b74" stroke-width="2"/>
        <path id="Trazado_892609" data-name="Trazado 892609" d="M175.193,188.682c0,.989.024,1.978-.005,2.966a1.644,1.644,0,1,1-3.283.067c-.043-2.045-.045-4.091,0-6.136a1.638,1.638,0,1,1,3.276.035c.035,1.022.008,2.045.009,3.068" transform="translate(-136.661 -146.255)" fill="#224b74" stroke="#224b74" stroke-width="2"/>
        <path id="Trazado_892610" data-name="Trazado 892610" d="M103.426,139.412a1.618,1.618,0,0,1-1.618-1.629,1.641,1.641,0,1,1,3.281.046,1.618,1.618,0,0,1-1.664,1.583" transform="translate(-80.95 -108.241)" fill="#224b74" stroke="#224b74" stroke-width="2"/>
        <path id="Trazado_892611" data-name="Trazado 892611" d="M173.648,158.469a1.64,1.64,0,0,1-1.637-1.62,1.708,1.708,0,0,1,1.622-1.661,1.636,1.636,0,0,1,1.661,1.7,1.589,1.589,0,0,1-1.646,1.587" transform="translate(-136.771 -123.393)" fill="#224b74" stroke="#224b74" stroke-width="2"/>
        <path id="Trazado_892612" data-name="Trazado 892612" d="M103.441,170.377A1.673,1.673,0,0,1,105.086,172a1.641,1.641,0,1,1-3.282.008,1.672,1.672,0,0,1,1.637-1.63" transform="translate(-80.947 -135.472)" fill="#224b74" stroke="#224b74" stroke-width="2"/>
        <path id="Trazado_892613" data-name="Trazado 892613" d="M103.446,204.78a1.62,1.62,0,0,1,1.637,1.607,1.643,1.643,0,1,1-3.286-.012,1.619,1.619,0,0,1,1.649-1.594" transform="translate(-80.941 -162.826)" fill="#224b74" stroke="#224b74" stroke-width="2"/>
      </g>
    </g>
  </g>
</svg>
