<svg xmlns="http://www.w3.org/2000/svg" xmlns:xlink="http://www.w3.org/1999/xlink" width="58" height="58" viewBox="0 0 58 58">
  <defs>
    <clipPath id="clip-path">
      <rect id="Rectángulo_402486" data-name="Rectángulo 402486" width="33.603" height="33.511" fill="#224b74"/>
    </clipPath>
  </defs>
  <g id="Grupo_1102067" data-name="Grupo 1102067" transform="translate(-761 -3376)">
    <g id="Grupo_1098742" data-name="Grupo 1098742" transform="translate(761.001 3376)">
      <rect id="Rectángulo_400898" data-name="Rectángulo 400898" width="58" height="58" rx="29" transform="translate(-0.001 0)" fill="#d2c3dd" opacity="0.999"/>
      <g id="Rectángulo_400907" data-name="Rectángulo 400907" transform="translate(-0.001 0)" fill="none" stroke="#0f1f33" stroke-linecap="round" stroke-width="2" stroke-dasharray="7">
        <rect width="58" height="58" rx="29" stroke="none"/>
        <rect x="1" y="1" width="56" height="56" rx="28" fill="none"/>
      </g>
    </g>
    <g id="Grupo_1102008" data-name="Grupo 1102008" transform="translate(773.198 3388.244)">
      <g id="Grupo_1102007" data-name="Grupo 1102007" clip-path="url(#clip-path)">
        <path id="Trazado_892635" data-name="Trazado 892635" d="M33.568,30.36v3.151H.049V30.384c.038-.028.077-.08.105-.075,1.044.208,1.532-.429,2.032-1.208A22.059,22.059,0,0,0,1.8,3.81C1.375,3.2.989,2.557.522,1.982A2.2,2.2,0,0,1,.065,0h33.5a2.418,2.418,0,0,1-.406,1.9,29.848,29.848,0,0,0-3.794,6.335A21.872,21.872,0,0,0,30.822,28.12c.131.227.279.444.42.665.857,1.342.857,1.342,2.326,1.575M22.794,8.674h1.03l.105.86a22.393,22.393,0,0,1,7.318-8.439H1.257c.548.8,1.051,1.511,1.526,2.24.369.567.665,1.21,1.707.9C3.9,5.475,4.618,6.3,5,7.2c.068.161.155.314.213.478.208.584.352,1.241,1.245.91.084.565.247,1.064-.4,1.234A24.676,24.676,0,0,1,6.042,23.72c.737.168.45.683.432,1.1-.367.176-.848-.145-1.069.442-.315.835-.742,1.626-1.112,2.441a.838.838,0,0,0-.086.413c.039.356.113.708.176,1.072-1.1.054-1.269.182-1.529,1.044h21.74L24.069,29.1l-1.266.142V28.182l.8-.1a22.632,22.632,0,0,1-1.875-7.5l-1.085-.062V19.5l.985-.068V18.41l-.981-.076V17.3h1.034L22.91,11.05l1.041-1.288-1.157-.1Zm8.571-6.293A19.5,19.5,0,0,0,27.18,6.414l.965.1V7.51h-1l-.124-.938L25.728,8.466l.176.006.11,1c-.467.245-.968.333-1.1.605A20.264,20.264,0,0,0,22.9,21.459a24.565,24.565,0,0,0,2.773,8.475.8.8,0,0,0,.595.336c1.354.03,2.71.017,4.065.013.158,0,.317-.03.49-.048-.287-.736-.685-1.224-1.736-.949.636-1.23-.02-2.059-.443-2.945a4.593,4.593,0,0,1-.208-.481c-.21-.61-.386-1.256-1.289-.947-.069-.565-.246-1.072.47-1.243a23.224,23.224,0,0,1-1.064-6.952,23.639,23.639,0,0,1,1.053-6.913c-.763-.185-.484-.7-.46-1.215.81.257,1.021-.254,1.243-.85.235-.631.581-1.22.861-1.836a1.209,1.209,0,0,0,.111-.528c-.014-.349-.073-.7-.113-1.044,1.051-.081,1.4-.406,2.118-1.953M1.124,32.434H32.479v-.991H1.124Z" transform="translate(0)" fill="#224b74"/>
        <rect id="Rectángulo_402383" data-name="Rectángulo 402383" width="1.003" height="1.009" transform="translate(22.815 2.167)" fill="#224b74"/>
        <rect id="Rectángulo_402384" data-name="Rectángulo 402384" width="1.02" height="0.989" transform="translate(5.472 2.189)" fill="#224b74"/>
        <rect id="Rectángulo_402385" data-name="Rectángulo 402385" width="1.024" height="1.011" transform="translate(9.789 2.166)" fill="#224b74"/>
        <rect id="Rectángulo_402386" data-name="Rectángulo 402386" width="1.002" height="1.01" transform="translate(27.15 2.167)" fill="#224b74"/>
        <rect id="Rectángulo_402387" data-name="Rectángulo 402387" width="1.023" height="1.02" transform="translate(14.134 2.18)" fill="#224b74"/>
        <rect id="Rectángulo_402388" data-name="Rectángulo 402388" width="1.023" height="1.014" transform="translate(18.467 2.176)" fill="#224b74"/>
        <rect id="Rectángulo_402389" data-name="Rectángulo 402389" width="0.989" height="1.039" transform="translate(3.324 2.162)" fill="#224b74"/>
        <rect id="Rectángulo_402390" data-name="Rectángulo 402390" width="1" height="1.003" transform="translate(7.651 2.182)" fill="#224b74"/>
        <rect id="Rectángulo_402391" data-name="Rectángulo 402391" width="0.989" height="1.039" transform="translate(11.975 2.153)" fill="#224b74"/>
        <rect id="Rectángulo_402392" data-name="Rectángulo 402392" width="0.997" height="1.005" transform="translate(16.304 2.167)" fill="#224b74"/>
        <rect id="Rectángulo_402393" data-name="Rectángulo 402393" width="0.978" height="1.028" transform="translate(20.66 2.167)" fill="#224b74"/>
        <rect id="Rectángulo_402394" data-name="Rectángulo 402394" width="0.994" height="1.021" transform="translate(24.981 2.162)" fill="#224b74"/>
        <rect id="Rectángulo_402395" data-name="Rectángulo 402395" width="1.02" height="0.989" transform="translate(5.455 4.329)" fill="#224b74"/>
        <rect id="Rectángulo_402396" data-name="Rectángulo 402396" width="1.024" height="1.008" transform="translate(9.798 4.325)" fill="#224b74"/>
        <rect id="Rectángulo_402397" data-name="Rectángulo 402397" width="1.002" height="1.031" transform="translate(18.472 12.974)" fill="#224b74"/>
        <rect id="Rectángulo_402398" data-name="Rectángulo 402398" width="1.034" height="0.981" transform="translate(14.118 4.346)" fill="#224b74"/>
        <rect id="Rectángulo_402399" data-name="Rectángulo 402399" width="1.02" height="1.006" transform="translate(18.451 26)" fill="#224b74"/>
        <rect id="Rectángulo_402400" data-name="Rectángulo 402400" width="1.044" height="0.995" transform="translate(18.448 4.339)" fill="#224b74"/>
        <rect id="Rectángulo_402401" data-name="Rectángulo 402401" width="1.042" height="0.997" transform="translate(9.789 15.178)" fill="#224b74"/>
        <path id="Trazado_892636" data-name="Trazado 892636" d="M173.51,33.976c-.017-.162-.042-.308-.043-.454,0-.168.02-.336.034-.537h1.023v.991Z" transform="translate(-150.708 -28.657)" fill="#224b74"/>
        <path id="Trazado_892637" data-name="Trazado 892637" d="M108.683,116.3h-1.011v-.958c1.059-.248,1.141-.174,1.011.958" transform="translate(-93.545 -100.106)" fill="#224b74"/>
        <rect id="Rectángulo_402402" data-name="Rectángulo 402402" width="1.022" height="0.996" transform="translate(18.469 15.191)" fill="#224b74"/>
        <rect id="Rectángulo_402403" data-name="Rectángulo 402403" width="1.016" height="1.011" transform="translate(9.803 17.32)" fill="#224b74"/>
        <rect id="Rectángulo_402404" data-name="Rectángulo 402404" width="1.039" height="0.993" transform="translate(14.116 17.339)" fill="#224b74"/>
        <rect id="Rectángulo_402405" data-name="Rectángulo 402405" width="1.024" height="1.01" transform="translate(18.464 17.319)" fill="#224b74"/>
        <path id="Trazado_892638" data-name="Trazado 892638" d="M108.319,50.173h-1.158c.05-.364,0-.764.172-.979a.827.827,0,0,1,.818,0c.174.217.12.616.168.979" transform="translate(-93.101 -42.646)" fill="#224b74"/>
        <rect id="Rectángulo_402406" data-name="Rectángulo 402406" width="1.024" height="1.004" transform="translate(9.796 19.521)" fill="#224b74"/>
        <rect id="Rectángulo_402407" data-name="Rectángulo 402407" width="1.021" height="0.999" transform="translate(18.47 6.522)" fill="#224b74"/>
        <rect id="Rectángulo_402408" data-name="Rectángulo 402408" width="1.023" height="1.009" transform="translate(14.134 19.511)" fill="#224b74"/>
        <rect id="Rectángulo_402409" data-name="Rectángulo 402409" width="1.011" height="0.983" transform="translate(18.463 19.518)" fill="#224b74"/>
        <rect id="Rectángulo_402410" data-name="Rectángulo 402410" width="1.022" height="0.984" transform="translate(9.782 21.665)" fill="#224b74"/>
        <rect id="Rectángulo_402411" data-name="Rectángulo 402411" width="1.021" height="0.99" transform="translate(9.79 8.661)" fill="#224b74"/>
        <rect id="Rectángulo_402412" data-name="Rectángulo 402412" width="1.02" height="1.003" transform="translate(14.114 21.668)" fill="#224b74"/>
        <rect id="Rectángulo_402413" data-name="Rectángulo 402413" width="1.033" height="0.981" transform="translate(14.119 8.678)" fill="#224b74"/>
        <rect id="Rectángulo_402414" data-name="Rectángulo 402414" width="1.023" height="1.004" transform="translate(18.461 21.655)" fill="#224b74"/>
        <rect id="Rectángulo_402415" data-name="Rectángulo 402415" width="1.024" height="1.008" transform="translate(18.458 8.658)" fill="#224b74"/>
        <rect id="Rectángulo_402416" data-name="Rectángulo 402416" width="1.042" height="0.998" transform="translate(9.789 23.844)" fill="#224b74"/>
        <rect id="Rectángulo_402417" data-name="Rectángulo 402417" width="1.043" height="0.993" transform="translate(14.123 23.846)" fill="#224b74"/>
        <rect id="Rectángulo_402418" data-name="Rectángulo 402418" width="1.042" height="0.999" transform="translate(9.789 10.843)" fill="#224b74"/>
        <rect id="Rectángulo_402419" data-name="Rectángulo 402419" width="1.022" height="0.991" transform="translate(18.469 23.86)" fill="#224b74"/>
        <path id="Trazado_892639" data-name="Trazado 892639" d="M107.409,83.742c-.013-.208-.029-.355-.03-.5s.013-.3.023-.5h1.045v1Z" transform="translate(-93.29 -71.887)" fill="#224b74"/>
        <path id="Trazado_892640" data-name="Trazado 892640" d="M107.48,198.081h1.009v.961c-1.06.245-1.147.166-1.009-.961" transform="translate(-93.335 -172.093)" fill="#224b74"/>
        <rect id="Rectángulo_402420" data-name="Rectángulo 402420" width="1.023" height="1.001" transform="translate(18.459 10.842)" fill="#224b74"/>
        <rect id="Rectángulo_402421" data-name="Rectángulo 402421" width="1.019" height="0.99" transform="translate(5.455 28.181)" fill="#224b74"/>
        <rect id="Rectángulo_402422" data-name="Rectángulo 402422" width="1.02" height="1.001" transform="translate(9.781 28.188)" fill="#224b74"/>
        <rect id="Rectángulo_402423" data-name="Rectángulo 402423" width="1.011" height="1.028" transform="translate(14.141 28.174)" fill="#224b74"/>
        <path id="Trazado_892641" data-name="Trazado 892641" d="M75.718,100.085H74.653V99.078h1.018c.014.3.03.633.048,1.007" transform="translate(-64.858 -86.079)" fill="#224b74"/>
        <rect id="Rectángulo_402424" data-name="Rectángulo 402424" width="1.018" height="0.986" transform="translate(18.471 28.196)" fill="#224b74"/>
        <rect id="Rectángulo_402425" data-name="Rectángulo 402425" width="1.043" height="0.997" transform="translate(14.114 13.004)" fill="#224b74"/>
        <rect id="Rectángulo_402426" data-name="Rectángulo 402426" width="1.001" height="1.003" transform="translate(9.811 6.507)" fill="#224b74"/>
        <rect id="Rectángulo_402427" data-name="Rectángulo 402427" width="1.015" height="0.993" transform="translate(5.468 6.525)" fill="#224b74"/>
        <rect id="Rectángulo_402428" data-name="Rectángulo 402428" width="1.021" height="0.999" transform="translate(22.805 6.521)" fill="#224b74"/>
        <path id="Trazado_892642" data-name="Trazado 892642" d="M41.548,199.223v-.973h.983c.232,1.029.148,1.12-.983.973" transform="translate(-36.097 -172.239)" fill="#224b74"/>
        <path id="Trazado_892643" data-name="Trazado 892643" d="M73.706,198.057h1.211a2.561,2.561,0,0,1-.166.984.785.785,0,0,1-.763.023,2.681,2.681,0,0,1-.282-1.007" transform="translate(-64.036 -172.072)" fill="#224b74"/>
        <rect id="Rectángulo_402429" data-name="Rectángulo 402429" width="0.99" height="0.97" transform="translate(24.988 4.345)" fill="#224b74"/>
        <rect id="Rectángulo_402430" data-name="Rectángulo 402430" width="1.007" height="0.996" transform="translate(7.635 6.51)" fill="#224b74"/>
        <rect id="Rectángulo_402431" data-name="Rectángulo 402431" width="0.985" height="1.012" transform="translate(7.643 4.328)" fill="#224b74"/>
        <rect id="Rectángulo_402432" data-name="Rectángulo 402432" width="1.006" height="0.999" transform="translate(11.983 6.514)" fill="#224b74"/>
        <rect id="Rectángulo_402433" data-name="Rectángulo 402433" width="1.003" height="1.017" transform="translate(16.306 6.504)" fill="#224b74"/>
        <rect id="Rectángulo_402434" data-name="Rectángulo 402434" width="1.006" height="1.001" transform="translate(20.629 6.513)" fill="#224b74"/>
        <rect id="Rectángulo_402435" data-name="Rectángulo 402435" width="0.996" height="1.014" transform="translate(7.646 8.663)" fill="#224b74"/>
        <rect id="Rectángulo_402436" data-name="Rectángulo 402436" width="1.003" height="0.986" transform="translate(11.963 8.67)" fill="#224b74"/>
        <rect id="Rectángulo_402437" data-name="Rectángulo 402437" width="0.971" height="1" transform="translate(16.322 8.675)" fill="#224b74"/>
        <rect id="Rectángulo_402438" data-name="Rectángulo 402438" width="1" height="0.983" transform="translate(20.629 8.671)" fill="#224b74"/>
        <rect id="Rectángulo_402439" data-name="Rectángulo 402439" width="1.007" height="1.002" transform="translate(7.648 10.847)" fill="#224b74"/>
        <rect id="Rectángulo_402440" data-name="Rectángulo 402440" width="1.003" height="1.014" transform="translate(11.974 10.84)" fill="#224b74"/>
        <rect id="Rectángulo_402441" data-name="Rectángulo 402441" width="0.996" height="0.982" transform="translate(16.299 10.857)" fill="#224b74"/>
        <rect id="Rectángulo_402442" data-name="Rectángulo 402442" width="0.982" height="1.017" transform="translate(20.66 10.838)" fill="#224b74"/>
        <rect id="Rectángulo_402443" data-name="Rectángulo 402443" width="1.005" height="1.015" transform="translate(7.641 12.988)" fill="#224b74"/>
        <rect id="Rectángulo_402444" data-name="Rectángulo 402444" width="0.975" height="1.004" transform="translate(11.988 12.983)" fill="#224b74"/>
        <rect id="Rectángulo_402445" data-name="Rectángulo 402445" width="1.007" height="1.003" transform="translate(16.298 12.995)" fill="#224b74"/>
        <rect id="Rectángulo_402446" data-name="Rectángulo 402446" width="1.002" height="1.019" transform="translate(7.643 21.653)" fill="#224b74"/>
        <rect id="Rectángulo_402447" data-name="Rectángulo 402447" width="1.006" height="0.993" transform="translate(11.976 17.342)" fill="#224b74"/>
        <rect id="Rectángulo_402448" data-name="Rectángulo 402448" width="0.965" height="1.023" transform="translate(11.993 21.653)" fill="#224b74"/>
        <rect id="Rectángulo_402449" data-name="Rectángulo 402449" width="0.989" height="1.015" transform="translate(11.982 15.183)" fill="#224b74"/>
        <rect id="Rectángulo_402450" data-name="Rectángulo 402450" width="0.983" height="1.04" transform="translate(16.305 21.633)" fill="#224b74"/>
        <rect id="Rectángulo_402451" data-name="Rectángulo 402451" width="0.979" height="1.012" transform="translate(16.318 17.336)" fill="#224b74"/>
        <rect id="Rectángulo_402452" data-name="Rectángulo 402452" width="0.984" height="1.017" transform="translate(20.647 21.645)" fill="#224b74"/>
        <rect id="Rectángulo_402453" data-name="Rectángulo 402453" width="0.979" height="1.012" transform="translate(20.65 15.163)" fill="#224b74"/>
        <rect id="Rectángulo_402454" data-name="Rectángulo 402454" width="1.004" height="1.013" transform="translate(11.973 23.843)" fill="#224b74"/>
        <rect id="Rectángulo_402455" data-name="Rectángulo 402455" width="0.974" height="1.002" transform="translate(16.321 23.859)" fill="#224b74"/>
        <rect id="Rectángulo_402456" data-name="Rectángulo 402456" width="0.975" height="1.004" transform="translate(7.657 19.525)" fill="#224b74"/>
        <rect id="Rectángulo_402457" data-name="Rectángulo 402457" width="0.995" height="1.014" transform="translate(20.642 23.835)" fill="#224b74"/>
        <rect id="Rectángulo_402458" data-name="Rectángulo 402458" width="1.008" height="0.996" transform="translate(11.963 4.333)" fill="#224b74"/>
        <rect id="Rectángulo_402459" data-name="Rectángulo 402459" width="1.002" height="0.993" transform="translate(7.631 26.002)" fill="#224b74"/>
        <rect id="Rectángulo_402460" data-name="Rectángulo 402460" width="0.961" height="1.034" transform="translate(16.328 4.302)" fill="#224b74"/>
        <rect id="Rectángulo_402461" data-name="Rectángulo 402461" width="0.959" height="1.044" transform="translate(11.999 25.968)" fill="#224b74"/>
        <rect id="Rectángulo_402462" data-name="Rectángulo 402462" width="1.003" height="1.017" transform="translate(16.306 25.99)" fill="#224b74"/>
        <rect id="Rectángulo_402463" data-name="Rectángulo 402463" width="0.985" height="1.018" transform="translate(7.651 15.161)" fill="#224b74"/>
        <rect id="Rectángulo_402464" data-name="Rectángulo 402464" width="0.991" height="1.019" transform="translate(20.644 25.981)" fill="#224b74"/>
        <rect id="Rectángulo_402465" data-name="Rectángulo 402465" width="0.972" height="1" transform="translate(20.653 4.342)" fill="#224b74"/>
        <rect id="Rectángulo_402466" data-name="Rectángulo 402466" width="0.997" height="0.979" transform="translate(11.966 19.526)" fill="#224b74"/>
        <rect id="Rectángulo_402467" data-name="Rectángulo 402467" width="0.967" height="0.994" transform="translate(7.66 28.173)" fill="#224b74"/>
        <rect id="Rectángulo_402468" data-name="Rectángulo 402468" width="0.998" height="0.982" transform="translate(7.656 17.339)" fill="#224b74"/>
        <rect id="Rectángulo_402469" data-name="Rectángulo 402469" width="1.004" height="1.012" transform="translate(11.973 28.177)" fill="#224b74"/>
        <rect id="Rectángulo_402470" data-name="Rectángulo 402470" width="0.994" height="1.014" transform="translate(16.311 19.515)" fill="#224b74"/>
        <rect id="Rectángulo_402471" data-name="Rectángulo 402471" width="1.008" height="0.992" transform="translate(16.314 28.186)" fill="#224b74"/>
        <rect id="Rectángulo_402472" data-name="Rectángulo 402472" width="1.007" height="1.004" transform="translate(16.31 15.18)" fill="#224b74"/>
        <rect id="Rectángulo_402473" data-name="Rectángulo 402473" width="0.996" height="1.013" transform="translate(20.641 28.169)" fill="#224b74"/>
        <rect id="Rectángulo_402474" data-name="Rectángulo 402474" width="0.984" height="1.015" transform="translate(20.639 12.993)" fill="#224b74"/>
        <rect id="Rectángulo_402475" data-name="Rectángulo 402475" width="1.006" height="1.012" transform="translate(7.64 23.843)" fill="#224b74"/>
        <rect id="Rectángulo_402476" data-name="Rectángulo 402476" width="1.022" height="1.007" transform="translate(27.139 28.177)" fill="#224b74"/>
        <rect id="Rectángulo_402477" data-name="Rectángulo 402477" width="1.02" height="1.015" transform="translate(27.13 25.99)" fill="#224b74"/>
        <rect id="Rectángulo_402478" data-name="Rectángulo 402478" width="1.005" height="0.991" transform="translate(24.958 10.852)" fill="#224b74"/>
        <rect id="Rectángulo_402479" data-name="Rectángulo 402479" width="1.001" height="0.99" transform="translate(24.96 21.669)" fill="#224b74"/>
        <rect id="Rectángulo_402480" data-name="Rectángulo 402480" width="0.964" height="1.018" transform="translate(24.989 12.988)" fill="#224b74"/>
        <rect id="Rectángulo_402481" data-name="Rectángulo 402481" width="1.004" height="1.017" transform="translate(24.969 17.321)" fill="#224b74"/>
        <rect id="Rectángulo_402482" data-name="Rectángulo 402482" width="1.003" height="0.986" transform="translate(24.981 23.856)" fill="#224b74"/>
        <rect id="Rectángulo_402483" data-name="Rectángulo 402483" width="0.984" height="1.014" transform="translate(24.98 15.186)" fill="#224b74"/>
        <rect id="Rectángulo_402484" data-name="Rectángulo 402484" width="0.993" height="0.983" transform="translate(24.964 26.006)" fill="#224b74"/>
        <rect id="Rectángulo_402485" data-name="Rectángulo 402485" width="1.007" height="0.992" transform="translate(24.965 19.511)" fill="#224b74"/>
      </g>
    </g>
  </g>
</svg>
