<svg xmlns="http://www.w3.org/2000/svg" xmlns:xlink="http://www.w3.org/1999/xlink" width="58" height="58" viewBox="0 0 58 58">
  <defs>
    <clipPath id="clip-path">
      <rect id="Rectángulo_402381" data-name="Rectángulo 402381" width="31.76" height="36.087" fill="#224b74"/>
    </clipPath>
  </defs>
  <g id="Grupo_1102068" data-name="Grupo 1102068" transform="translate(-180 -3525)">
    <g id="Grupo_1098742" data-name="Grupo 1098742" transform="translate(180.001 3525)">
      <rect id="Rectángulo_400898" data-name="Rectángulo 400898" width="58" height="58" rx="29" transform="translate(-0.001 0)" fill="#d2c3dd" opacity="0.999"/>
      <g id="Rectángulo_400907" data-name="Rectángulo 400907" transform="translate(-0.001 0)" fill="none" stroke="#0f1f33" stroke-linecap="round" stroke-width="2" stroke-dasharray="7">
        <rect width="58" height="58" rx="29" stroke="none"/>
        <rect x="1" y="1" width="56" height="56" rx="28" fill="none"/>
      </g>
    </g>
    <g id="Grupo_1102004" data-name="Grupo 1102004" transform="translate(193.12 3535.956)">
      <g id="Grupo_1102003" data-name="Grupo 1102003" clip-path="url(#clip-path)">
        <path id="Trazado_892633" data-name="Trazado 892633" d="M6.706,8.06C5.976,7.382,5.4,6.8,4.764,6.287a1,1,0,0,0-.746-.04A3.187,3.187,0,0,1,.241,4.315,3.15,3.15,0,0,1,1.834.332,3,3,0,0,1,5.2.751,2.979,2.979,0,0,1,6.243,3.975a.957.957,0,0,0,.323,1.089c.511.483.988,1,1.529,1.555.206-.226.371-.408.538-.59A5.482,5.482,0,0,1,15.4,4.961a1.043,1.043,0,0,0,.85.071A5.462,5.462,0,0,1,23.359,6.3c.074.085.149.17.34.387.615-.663,1.222-1.278,1.772-1.941a.937.937,0,0,0,.033-.695A3.189,3.189,0,0,1,27.736.138a3.117,3.117,0,0,1,3.838,2.11,3,3,0,0,1-.737,3.126,2.932,2.932,0,0,1-3.091.848.879.879,0,0,0-1.025.29c-.486.5-1.028.949-1.663,1.525.387.112.555.16.721.21a5.533,5.533,0,0,1,3.853,6.492.991.991,0,0,0,.266.813c2.488,2.014,2.47,7.06.015,9.1a.783.783,0,0,0-.305.9,5.506,5.506,0,0,1-4.765,6.7.848.848,0,0,0-.788.612,5.4,5.4,0,0,1-7.7,2.461.794.794,0,0,0-.947,0,5.4,5.4,0,0,1-7.7-2.469.849.849,0,0,0-.792-.606,5.554,5.554,0,0,1-4.787-6.713,1,1,0,0,0-.247-.823c-2.487-2.048-2.532-7.219.046-9.207a.762.762,0,0,0,.243-.638A5.6,5.6,0,0,1,6.706,8.06m19.948,8.1a4.676,4.676,0,0,0,.947-3.083,3.334,3.334,0,0,0-1.791-2.547c-1.654-.881-3.369-.228-4.78,1.8,3.017,1.568,3.789,5,1.578,6.936l-1.455-1.4c.685-1.1.74-2.013.14-2.771a2.111,2.111,0,0,0-2.657-.638c-.429.17-.594-.025-.75-.36a2.124,2.124,0,0,0-2.02-1.39,2.1,2.1,0,0,0-1.993,1.422c-.159.366-.357.451-.766.336a3.164,3.164,0,0,0-1.439-.14c-1.568.331-2.038,1.928-1.1,3.506L9.13,19.252c-2.171-1.965-1.426-5.268,1.69-6.986a11.444,11.444,0,0,0-2.1-1.871,3.208,3.208,0,0,0-3.68.821,3.35,3.35,0,0,0-.564,3.794c.179.376.381.74.61,1.182A3.811,3.811,0,0,0,2.132,20.17c.012,2.116,1.128,3.26,2.993,3.955-1.053,1.549-1.433,3.064-.349,4.618,1.116,1.6,2.712,1.626,4.455,1.136.069,1.82.58,3.305,2.4,3.919,1.862.63,3.132-.379,4.273-1.752,1.124,1.45,2.407,2.355,4.243,1.747s2.3-2.159,2.409-3.932c1.777.533,3.33.445,4.437-1.129s.642-3.107-.338-4.632a3.91,3.91,0,0,0,2.974-3.943c.024-2.138-1.061-3.3-2.972-3.992M21.991,8.084a3.153,3.153,0,0,0-2.3-1.659C18,6.076,16.9,7.056,15.88,8.275c-.869-.989-1.722-1.923-3.106-1.911a3.261,3.261,0,0,0-2.99,1.675l3.465,3.451a4.228,4.228,0,0,1,5.311.029l3.432-3.436M3.139,4.232a1.05,1.05,0,1,0-.975-1.138,1.042,1.042,0,0,0,.975,1.138m25.454,0a1.049,1.049,0,1,0-1.059-.986,1.042,1.042,0,0,0,1.059.986" transform="translate(0 0)" fill="#224b74"/>
      </g>
    </g>
  </g>
</svg>
