<svg xmlns="http://www.w3.org/2000/svg" xmlns:xlink="http://www.w3.org/1999/xlink" width="89" height="89" viewBox="0 0 89 89">
  <defs>
    <clipPath id="clip-path">
      <rect id="Rectángulo_402357" data-name="Rectángulo 402357" width="63.475" height="45.637" fill="#224b74" stroke="#224b74" stroke-width="1"/>
    </clipPath>
  </defs>
  <g id="Grupo_1102065" data-name="Grupo 1102065" transform="translate(-335.499 -2639.743)">
    <g id="Grupo_1098742" data-name="Grupo 1098742" transform="translate(-867.821 2251.001)">
      <rect id="Rectángulo_400898" data-name="Rectángulo 400898" width="89" height="89" rx="44.5" transform="translate(1203.32 388.742)" fill="#e6efbf"/>
      <g id="Rectángulo_400907" data-name="Rectángulo 400907" transform="translate(1203.32 388.742)" fill="none" stroke="#0f1f33" stroke-linecap="round" stroke-width="2" stroke-dasharray="7">
        <rect width="89" height="89" rx="44.5" stroke="none"/>
        <rect x="1" y="1" width="87" height="87" rx="43.5" fill="none"/>
      </g>
    </g>
    <g id="Grupo_1101964" data-name="Grupo 1101964" transform="translate(348.109 2658.886)">
      <g id="Grupo_1101963" data-name="Grupo 1101963" clip-path="url(#clip-path)">
        <path id="Trazado_892559" data-name="Trazado 892559" d="M55.533,11.375c0,3.221-.029,6.443.028,9.663a3.052,3.052,0,0,0,.607,1.633c2.3,3.124,4.662,6.2,6.971,9.321a2.054,2.054,0,0,1,.31,1.148c.023,3.675-.006,7.351.026,11.026.009,1.06-.4,1.474-1.468,1.468-5.533-.028-11.067.009-16.6-.022a13.924,13.924,0,0,1-7.574-2.365,3.642,3.642,0,0,0-1.8-.57c-2.889-.058-5.781-.05-8.671,0a3.1,3.1,0,0,0-1.581.485,14.209,14.209,0,0,1-8.042,2.465c-5.368,0-10.737-.023-16.1.015C.478,45.645-.016,45.284,0,44.074.05,40.482-.007,36.888.045,33.3a3.074,3.074,0,0,1,.581-1.669c2.305-3.12,4.681-6.188,6.988-9.306a2.453,2.453,0,0,0,.321-1.375c.02-6.4.012-12.8.015-19.2C7.949.167,8.09.028,9.631.021c.826,0,1.652,0,2.478,0,1.7,0,1.793.1,1.793,1.861,0,5.41.024,10.82-.023,16.23A1.951,1.951,0,0,0,14.9,19.993q7.656,5.031,15.249,10.159a2.507,2.507,0,0,0,3.161.022q7.646-5.159,15.352-10.228a1.855,1.855,0,0,0,.934-1.8c-.032-5.492-.019-10.985-.015-16.478,0-1.479.163-1.636,1.636-1.644.908,0,1.82.046,2.725-.012,1.17-.076,1.629.386,1.611,1.579-.051,3.262-.018,6.525-.018,9.787m-37.7,32.25a11.953,11.953,0,0,0,11.8-10.134,1.528,1.528,0,0,0-.75-1.831q-7.6-4.986-15.126-10.086a1.58,1.58,0,0,0-1.988-.059,11.9,11.9,0,0,0,6.066,22.109m27.752,0a11.9,11.9,0,0,0,6.066-22.132,1.344,1.344,0,0,0-1.671-.084c-5.194,3.506-10.424,6.957-15.615,10.467a1.532,1.532,0,0,0-.553,1.186A11.913,11.913,0,0,0,45.587,43.625M3.677,30.718c-.555.894-1.535,1.764-1.588,2.687-.193,3.359-.076,6.737-.076,10.113H10.46a15.215,15.215,0,0,1-6.783-12.8m55.83-.031a14.327,14.327,0,0,1-6.488,12.848h8.453c0-2.733-.114-5.377.038-8.006a5.432,5.432,0,0,0-2-4.842M11.828,2.069H10V16.818h1.825ZM51.62,16.8h1.85V2.1H51.62Zm-17.085,23.8-2.789-6.337-2.815,6.337ZM9.916,18.9c.04.485.071.858.112,1.359L11.906,19.1l-.129-.209Zm43.592.058H51.651l-.058.21,1.915,1.088Z" transform="translate(0 -0.001)" fill="#224b74" stroke="#224b74" stroke-width="1"/>
      </g>
    </g>
  </g>
</svg>
