<svg xmlns="http://www.w3.org/2000/svg" xmlns:xlink="http://www.w3.org/1999/xlink" width="89" height="89" viewBox="0 0 89 89">
  <defs>
    <clipPath id="clip-path">
      <rect id="Rectángulo_402376" data-name="Rectángulo 402376" width="56.243" height="44.101" fill="#224b74"/>
    </clipPath>
  </defs>
  <g id="Grupo_1102067" data-name="Grupo 1102067" transform="translate(-1069.162 -1903)">
    <g id="Grupo_1098742" data-name="Grupo 1098742" transform="translate(-134.158 1514.258)">
      <rect id="Rectángulo_400898" data-name="Rectángulo 400898" width="89" height="89" rx="44.5" transform="translate(1203.32 388.742)" fill="#d2c3dd"/>
      <g id="Rectángulo_400907" data-name="Rectángulo 400907" transform="translate(1203.32 388.742)" fill="none" stroke="#0f1f33" stroke-linecap="round" stroke-width="2" stroke-dasharray="7">
        <rect width="89" height="89" rx="44.5" stroke="none"/>
        <rect x="1" y="1" width="87" height="87" rx="43.5" fill="none"/>
      </g>
    </g>
    <g id="Grupo_1101994" data-name="Grupo 1101994" transform="translate(1085.51 1927.45)">
      <g id="Grupo_1101993" data-name="Grupo 1101993" clip-path="url(#clip-path)">
        <path id="Trazado_892623" data-name="Trazado 892623" d="M28.113,0Q39.754,0,51.4,0c2.123,0,2.875.635,2.715,2.759-.328,4.356.933,8.51,1.4,12.762.763,6.938,1.236,13.9-.173,20.8a13.985,13.985,0,0,1-2.1,4.744,6.919,6.919,0,0,1-6.024,3.009c-3.964.035-7.928.02-11.892.005a3.29,3.29,0,0,1-3.491-2.621c-1.007-3.481-1.967-6.976-2.987-10.453-.1-.356-.489-.63-.743-.942-.259.305-.655.571-.757.922-.947,3.282-1.847,6.577-2.755,9.87-.684,2.478-1.644,3.228-4.171,3.23-3.672,0-7.344-.014-11.015,0a7.848,7.848,0,0,1-7.689-4.969A21.378,21.378,0,0,1,.08,30.831,89.867,89.867,0,0,1,1.872,8.318a28.394,28.394,0,0,0,.161-5.611C2.055.645,2.67,0,4.7,0q11.7,0,23.408,0M5.6,10.532c-.049.177-.185.563-.262.961A74.968,74.968,0,0,0,4.161,30.419,34.816,34.816,0,0,0,5.4,37.267a3.509,3.509,0,0,0,3.364,2.756c3.913.088,7.829.028,11.785.028.113-.362.22-.674.309-.991.925-3.287,1.785-6.594,2.809-9.849a6.2,6.2,0,0,1,1.653-2.529,1.828,1.828,0,0,0,.77-1.5c-.028-4-.012-8.008-.017-12.012,0-.359-.046-.718-.058-.9L5.6,10.532M30.1,12.27c0,4.413-.006,8.946.019,13.478a.9.9,0,0,0,.418.647A4.374,4.374,0,0,1,32.6,29.382c.888,3.252,1.844,6.486,2.709,9.744a1.084,1.084,0,0,0,1.279.964c3.46-.038,6.921-.021,10.381-.012a3.451,3.451,0,0,0,3.395-1.917A14.079,14.079,0,0,0,51.605,34.4a65.593,65.593,0,0,0,.21-15.84c-.234-2.721-.74-5.419-1.1-7.98L30.1,12.27M6.1,6.281a142.808,142.808,0,0,0,43.937.008V4.114H6.1Z" transform="translate(-0.001 0.001)" fill="#224b74"/>
      </g>
    </g>
  </g>
</svg>
