<svg xmlns="http://www.w3.org/2000/svg" xmlns:xlink="http://www.w3.org/1999/xlink" width="89" height="89" viewBox="0 0 89 89">
  <defs>
    <clipPath id="clip-path">
      <rect id="Rectángulo_402377" data-name="Rectángulo 402377" width="71.267" height="42.936" fill="#224b74"/>
    </clipPath>
  </defs>
  <g id="Grupo_1102068" data-name="Grupo 1102068" transform="translate(-754.163 -2370)">
    <g id="Grupo_1098742" data-name="Grupo 1098742" transform="translate(-449.157 1981.258)">
      <rect id="Rectángulo_400898" data-name="Rectángulo 400898" width="89" height="89" rx="44.5" transform="translate(1203.32 388.742)" fill="#d2c3dd"/>
      <g id="Rectángulo_400907" data-name="Rectángulo 400907" transform="translate(1203.32 388.742)" fill="none" stroke="#0f1f33" stroke-linecap="round" stroke-width="2" stroke-dasharray="7">
        <rect width="89" height="89" rx="44.5" stroke="none"/>
        <rect x="1" y="1" width="87" height="87" rx="43.5" fill="none"/>
      </g>
    </g>
    <g id="Grupo_1101996" data-name="Grupo 1101996" transform="translate(763.247 2393.032)">
      <g id="Grupo_1101995" data-name="Grupo 1101995" clip-path="url(#clip-path)">
        <path id="Trazado_892624" data-name="Trazado 892624" d="M38.069,37.674c-.783,1.857-1.641,3.688-2.321,5.582a1.617,1.617,0,0,1-2.113,1.235c-10.027-1.415-19.623-4.47-29.214-7.558-.85-.274-1.109-.726-.788-1.635q5.433-15.393,10.8-30.81c.356-1.024.844-1.161,1.828-.824A66.564,66.564,0,0,0,42.843,6.981,66.052,66.052,0,0,0,58.822,4.156c2.644-.867,2.633-.894,3.561,1.752Q67.451,20.354,72.52,34.8c.585,1.669.566,1.733-1.137,2.293a183.385,183.385,0,0,1-26.815,7.131c-3.339.561-3.315.576-4.454-2.535-.492-1.346-1.088-2.654-1.637-3.98l-.409-.034M38.2,16.306c-.272.416-.449.661-.6.92-1.226,2.11-2.413,4.244-3.7,6.317-.237.382-.867.52-1.315.77-.031-.509-.25-1.1-.059-1.509.555-1.182,1.272-2.288,1.927-3.424.687-1.19,1.374-2.38,1.906-3.3L13.367,12.5,7.085,30.44c.5.158.83.279,1.171.371,8.374,2.249,16.761,4.454,25.115,6.775,1.711.475,2.976.736,3.906-1.257.522-1.118,1.336-1.016,2.109,0,.429.562.782,1.182,1.175,1.786l28.684-7.694L62.833,12.139c-7.473,2.713-15.07,3.568-22.962,3.645.316.6.511.99.729,1.371,1.034,1.8,2.084,3.6,3.108,5.406.318.561.931,1.243.024,1.73s-1.118-.44-1.463-.97c-.32-.491-.588-1.017-.882-1.525-1.035-1.782-2.071-3.563-3.191-5.489m24.117-5.655L60.477,5.416a75.113,75.113,0,0,1-44.626,0l-1.794,5.2c16.2,3.885,32.151,5.388,48.256.04m7.464,21.328-28.5,7.63c.687,3.336.694,3.378,3.734,2.86a177.284,177.284,0,0,0,24.331-6.432c.539-.173,1.072-.362,1.666-.563l-1.236-3.494M5.342,35.411c4.58,1.932,20.6,6.3,25.849,7.043,3.62.513,2.608.944,3.967-2.435a1.416,1.416,0,0,0,0-.29L6.533,32.053l-1.19,3.359" transform="translate(-2.55 -2.55)" fill="#224b74"/>
        <path id="Trazado_892625" data-name="Trazado 892625" d="M31.633,42.936a4.891,4.891,0,0,1-.681-.053c-10.3-1.453-20.433-4.716-29.372-7.594A2.185,2.185,0,0,1,.185,34.224a2.232,2.232,0,0,1,0-1.791Q5.62,17.042,10.983,1.627A2.031,2.031,0,0,1,12.92,0a3.384,3.384,0,0,1,1.1.216,64.867,64.867,0,0,0,21.06,3.453c1.691,0,3.423-.063,5.148-.186A63.955,63.955,0,0,0,55.976.7,8.147,8.147,0,0,1,58.292.131c1.416,0,1.8,1.094,2.436,2.907l10.138,28.9c.332.948.573,1.632.245,2.3s-1.023.9-1.982,1.213c-9.855,3.239-18.211,5.7-26.954,7.165a15.94,15.94,0,0,1-2.379.3c-1.863,0-2.3-1.207-3.106-3.4-.31-.847-.644-1.642-.98-2.431l-.027.062c-.559,1.284-1.119,2.568-1.591,3.884A2.482,2.482,0,0,1,31.633,42.936Zm7.68-2.111a.461.461,0,0,0,.437.186A1.862,1.862,0,0,1,39.313,40.825Zm-7.291.1a1.356,1.356,0,0,1-.129.081A.337.337,0,0,0,32.022,40.929ZM3.994,32.316c5.356,2.021,19.954,5.964,24.781,6.648.528.075.959.148,1.315.208a7.609,7.609,0,0,0,.92.131c-.061-.036.048-.351.144-.632.08-.234.174-.506.29-.82l-26.858-7.2Zm35.853,5.428a4.267,4.267,0,0,0,.453,1.439,9.054,9.054,0,0,0,2.007-.2,177.194,177.194,0,0,0,24.2-6.4l.739-.249-.622-1.759ZM33.005,36.3l.555.149v.729q0,.04,0,.078.188-.437.379-.873l.2-.454A2.8,2.8,0,0,1,33.005,36.3Zm4.588.354.167.4-.086-.418Zm-1.931-4.629a2.491,2.491,0,0,1,1.928,1.17c.307.4.578.831.849,1.264l27.02-7.248L59.7,10.8A68.016,68.016,0,0,1,38.89,14.157l1.148,1.991c.653,1.129,1.305,2.259,1.948,3.394a2.508,2.508,0,0,1,.571,1.958,1.736,1.736,0,0,1-.925,1.077,1.915,1.915,0,0,1-.9.248,1.945,1.945,0,0,1-1.658-1.277l-.146-.259c-.223-.343-.423-.7-.622-1.059l-.286-.508-2.4-4.129-.764,1.326c-.882,1.536-1.763,3.071-2.7,4.575a2.566,2.566,0,0,1-1.29.929,3.881,3.881,0,0,0-.369.17l-1.319.737-.093-1.508a3.936,3.936,0,0,0-.055-.4,2.58,2.58,0,0,1,.084-1.575c.414-.882.914-1.723,1.415-2.564l.549-.93,1.213-2.1L11.452,11.015l-5.7,16.271c.067.02.133.04.2.057l6.891,1.843c6.083,1.624,12.166,3.248,18.231,4.933a6.475,6.475,0,0,0,1.546.3c.3,0,.757,0,1.245-1.046A1.981,1.981,0,0,1,35.662,32.027Zm-.072,2.15.375.031a1.479,1.479,0,0,0-.256-.239A1.269,1.269,0,0,0,35.59,34.177ZM32.471,12.361l2.68.417.191-.292Q33.919,12.447,32.471,12.361ZM12.748,7.378a108.238,108.238,0,0,0,24.9,3.239A68.235,68.235,0,0,0,58.544,7.5L57.33,4.035A77.75,77.75,0,0,1,35.62,7.205,77.758,77.758,0,0,1,13.9,4.032Zm-2.3,1.558,1.835.285-1-.236L10.5,8.8Z" transform="translate(0 0)" fill="#224b74"/>
        <path id="Trazado_892626" data-name="Trazado 892626" d="M36.2,63.653c-.1-.353-.37-.77-.267-1.048q1.68-4.547,3.489-9.045c.093-.231.573-.307.873-.455.116.315.411.7.323.935-1.128,3.028-2.312,6.036-3.481,9.048-.108.279-.219.556-.329.834l-.607-.269" transform="translate(-26.164 -38.687)" fill="#224b74"/>
        <path id="Trazado_892627" data-name="Trazado 892627" d="M34.787,61.871l-1.924-.851-.12-.433a2.213,2.213,0,0,1-.243-1.632q1.685-4.559,3.5-9.07a1.653,1.653,0,0,1,1.119-.871l.946-.467.582.908a1.958,1.958,0,0,1,.322,1.6c-.9,2.423-1.84,4.832-2.778,7.241Z" transform="translate(-23.617 -35.367)" fill="#224b74"/>
        <path id="Trazado_892628" data-name="Trazado 892628" d="M55.814,59.574c-.135.388-.213.635-.307.876-1.042,2.7-2.063,5.416-3.157,8.1-.155.381-.749.927-1,.861-.818-.216-.414-.87-.225-1.364,1.064-2.775,2.13-5.549,3.241-8.3a1.554,1.554,0,0,1,.832-.715c.117-.048.423.369.614.547" transform="translate(-37.051 -42.999)" fill="#224b74"/>
        <path id="Trazado_892629" data-name="Trazado 892629" d="M52.667,55.523a1.5,1.5,0,0,1,1.1.657l.453.422-.065.734-.317.906-.7,1.812c-.808,2.107-1.616,4.214-2.468,6.3a2.457,2.457,0,0,1-1.834,1.458H48.72l-.164-.037a1.547,1.547,0,0,1-1.058-.8,1.936,1.936,0,0,1,.121-1.662c1.132-2.941,2.2-5.72,3.313-8.481A2.5,2.5,0,0,1,52.29,55.6l.172-.07Z" transform="translate(-34.497 -40.449)" fill="#224b74"/>
      </g>
    </g>
  </g>
</svg>
