<svg xmlns="http://www.w3.org/2000/svg" xmlns:xlink="http://www.w3.org/1999/xlink" width="89" height="89" viewBox="0 0 89 89">
  <defs>
    <clipPath id="clip-path">
      <rect id="Rectángulo_402354" data-name="Rectángulo 402354" width="61.272" height="57.202" fill="#224b74" stroke="#224b74" stroke-width="1"/>
    </clipPath>
  </defs>
  <g id="Grupo_1102068" data-name="Grupo 1102068" transform="translate(-335.499 -3073.743)">
    <g id="Grupo_1098742" data-name="Grupo 1098742" transform="translate(-867.821 2685.001)">
      <rect id="Rectángulo_400898" data-name="Rectángulo 400898" width="89" height="89" rx="44.5" transform="translate(1203.32 388.742)" fill="#e6efbf"/>
      <g id="Rectángulo_400907" data-name="Rectángulo 400907" transform="translate(1203.32 388.742)" fill="none" stroke="#0f1f33" stroke-linecap="round" stroke-width="2" stroke-dasharray="7">
        <rect width="89" height="89" rx="44.5" stroke="none"/>
        <rect x="1" y="1" width="87" height="87" rx="43.5" fill="none"/>
      </g>
    </g>
    <g id="Grupo_1101958" data-name="Grupo 1101958" transform="translate(349.363 3089.642)">
      <g id="Grupo_1101957" data-name="Grupo 1101957" clip-path="url(#clip-path)">
        <path id="Trazado_892552" data-name="Trazado 892552" d="M50.973,19.339h2.862V18.225c0-1.953-.048-3.909.04-5.859a1.514,1.514,0,0,1,.832-1.154c.78-.161.954.522.956,1.171.008,2.232-.031,4.466.026,6.7a5.322,5.322,0,0,0,.46,2.051,57.092,57.092,0,0,1,4.89,14.179,13.118,13.118,0,0,1-1.034,8.173,29.585,29.585,0,0,0-2.115,7.66c-.138.7-.256,1.411-.417,2.109A4.764,4.764,0,0,1,52.625,57.2c-.319.009-.638,0-.957,0H9.569c-3.834,0-5.335-1.257-6.013-5-.326-1.8-.657-3.6-1.018-5.4a5.3,5.3,0,0,0-.487-1.456A15.487,15.487,0,0,1,.469,33.9c.356-1.428.786-2.836,1.176-4.256.173-.631.456-1.195,1.222-.973.861.25.628.911.49,1.568C2.82,32.8,1.869,35.378,1.91,37.935c.135,8.479,7.179,14.323,15.624,13.371A22.955,22.955,0,0,0,27.6,47.866a5.539,5.539,0,0,1,6.405.2,20.077,20.077,0,0,0,13.46,3.2c8.264-.962,13.443-8.869,11.507-17.186A58.6,58.6,0,0,0,54.483,21.9c-.113-.233-.338-.61-.486-.6-1.582.122-3.273-.6-4.724.573C45.8,24.67,42.238,27.357,38.9,30.3a21.655,21.655,0,0,0-5.69,8.179,2.677,2.677,0,0,1-2.545,1.846,2.468,2.468,0,0,1-2.476-1.558C26,33.519,22.148,29.636,17.809,26.176c-1.961-1.564-4.013-3.017-6.071-4.453-1.393-.972-3.011-.337-4.526-.414-.147-.008-.356.382-.468.619Q5.9,23.71,5.1,25.511c-.258.577-.549,1.163-1.307.846-.823-.345-.6-1-.318-1.616a2.921,2.921,0,0,1,.142-.329,15.763,15.763,0,0,0,1.991-9.268c-.171-3.9-.064-7.812-.031-11.719A3.343,3.343,0,0,1,10.674.471a2.96,2.96,0,0,1,1.56,2.875c-.019,4.943.045,9.888-.043,14.83a2.966,2.966,0,0,0,1.428,2.7c3.4,2.624,6.794,5.279,10,8.134a24.5,24.5,0,0,1,6.017,8.542,1.644,1.644,0,0,0,.947.883c.258.058.8-.357.939-.679,2.4-5.612,6.6-9.707,11.273-13.391,1.72-1.355,3.515-2.618,5.319-3.861a1.863,1.863,0,0,0,.919-1.752c-.039-5.063-.024-10.126-.018-15.189,0-2.319,1.08-3.425,3.308-3.427s3.318,1.118,3.342,3.429c.013,1.276.007,2.551,0,3.827,0,.652-.183,1.331-.96,1.168a1.54,1.54,0,0,1-.828-1.16c-.106-1.387-.039-2.788-.044-4.183,0-.979-.59-1.3-1.475-1.316s-1.55.295-1.551,1.25c-.005,5.338.03,10.676.054,16.014,0,.033.042.066.114.173M4.817,49.174c.213,1.113.414,2.206.632,3.295.431,2.148,1.42,2.961,3.642,2.962q21.515.006,43.029,0a5.7,5.7,0,0,0,.954-.038A2.872,2.872,0,0,0,55.593,53.3c.361-1.346.558-2.736.788-3.913-1.822.983-3.562,2.294-5.521,2.911-6.05,1.905-11.843.78-17.2-2.379a5.14,5.14,0,0,0-6.047-.006,19.507,19.507,0,0,1-22.525-.692c-.054-.038-.142-.028-.272-.051m5.594-29.816c.02-.413.044-.687.044-.96q0-7.344,0-14.688c0-1.415-.389-1.832-1.605-1.8-1.123.026-1.442.419-1.443,1.82q-.005,7.285,0,14.569c0,.345.042.69.066,1.064Z" transform="translate(0 0)" fill="#224b74" stroke="#224b74" stroke-width="1"/>
      </g>
    </g>
  </g>
</svg>
