<svg xmlns="http://www.w3.org/2000/svg" xmlns:xlink="http://www.w3.org/1999/xlink" width="89" height="89" viewBox="0 0 89 89">
  <defs>
    <clipPath id="clip-path">
      <rect id="Rectángulo_402355" data-name="Rectángulo 402355" width="50.537" height="58.342" fill="#224b74" stroke="#224b74" stroke-width="1"/>
    </clipPath>
  </defs>
  <g id="Grupo_1102069" data-name="Grupo 1102069" transform="translate(-703.5 -3073.743)">
    <g id="Grupo_1098742" data-name="Grupo 1098742" transform="translate(-499.82 2685.001)">
      <rect id="Rectángulo_400898" data-name="Rectángulo 400898" width="89" height="89" rx="44.5" transform="translate(1203.32 388.742)" fill="#e6efbf"/>
      <g id="Rectángulo_400907" data-name="Rectángulo 400907" transform="translate(1203.32 388.742)" fill="none" stroke="#0f1f33" stroke-linecap="round" stroke-width="2" stroke-dasharray="7">
        <rect width="89" height="89" rx="44.5" stroke="none"/>
        <rect x="1" y="1" width="87" height="87" rx="43.5" fill="none"/>
      </g>
    </g>
    <g id="Grupo_1101960" data-name="Grupo 1101960" transform="translate(721.732 3089.642)">
      <g id="Grupo_1101959" data-name="Grupo 1101959" clip-path="url(#clip-path)">
        <path id="Trazado_892553" data-name="Trazado 892553" d="M30,22.279l1.236-.2c-.4-2.081-.788-4.089-1.183-6.095-.35-1.773-.723-3.541-1.065-5.315-.246-1.275.219-1.68,1.4-1.252.116.042.243.17.336.147,2.344-.6,4.722-1.112,6.994-1.922.509-.182.824-1.4.906-2.182.146-1.374-.025-2.779.087-4.16.037-.453.538-.868.826-1.3.3.431.82.846.853,1.3.11,1.465.069,2.944.034,4.417a4.252,4.252,0,0,1-3.529,4.3c-1.675.4-3.341.848-5.028,1.19-.734.149-.875.493-.746,1.138.6,3.008,1.17,6.022,1.816,9.021a1.333,1.333,0,0,0,.857.836,11.678,11.678,0,0,1,6.34,3.657A5.19,5.19,0,0,0,43.29,27.8a9.469,9.469,0,0,0-4.016-7.076c-.207-.143-.517-.206-.634-.4a12.4,12.4,0,0,1-.654-1.382c.52-.039,1.218-.312,1.528-.076a33.1,33.1,0,0,1,3.455,3.072A11.069,11.069,0,0,1,44.2,23.917c.242-.4.446-.72.635-1.05a10.322,10.322,0,0,1,3.944-3.989c.573-.319,1.236-.65,1.66.081s-.16,1.113-.758,1.452a9.041,9.041,0,0,0-4.351,6.072,7.963,7.963,0,0,0-.111,1.2l.352.3a33.147,33.147,0,0,0,2.861-2.275c1.657-1.627,3.448-3.044,5.8-3.334,1.43-.176,1.936-.692,2.049-2.153.2-2.635.68-5.25,1.076-7.869.1-.656-.01-.992-.741-1.144-1.644-.342-3.266-.79-4.9-1.185a4.253,4.253,0,0,1-3.555-4.284,37.448,37.448,0,0,1,.029-4.29c.04-.5.49-1.315.85-1.373.822-.131.916.656.92,1.316.009,1.389-.013,2.779.011,4.167a2.476,2.476,0,0,0,2.21,2.754c1.305.32,2.6.712,3.92.936a5.694,5.694,0,0,0,2.1-.142c.8-.174,1.291.233,1.174,1.249-.248,2.129-.566,4.25-.859,6.374-.207,1.5-.455,2.994-.6,4.5-.037.373.249.778.387,1.168l.439-.134c-.057-.256-.211-.54-.148-.763a1.666,1.666,0,0,1,.556-.974,1.047,1.047,0,0,1,.96.307c4.391,5.965,3.5,13.124-1.508,17.091-3.99,3.163-9.509,2.349-12.787-1.768-.262-.329-.489-.684-.731-1.028-.68-.967-1.106-.979-1.764.035a9.683,9.683,0,0,1-5.8,4.379c-4.572,1.173-9.23-1.358-11.1-6.127a11.549,11.549,0,0,1,.595-10.335c.29-.512.557-1.037.844-1.551.321-.576.6-1.425,1.437-.969.37.2.421.985.7,1.718m-2.706,6.654a9.359,9.359,0,0,0,2.512,6.58,7.046,7.046,0,0,0,7.3,2.313,7.909,7.909,0,0,0,4.639-3.477c1.582-2.352,3.378-2.333,4.988.041a9.964,9.964,0,0,0,.763,1,7.236,7.236,0,0,0,11.338-.112,9.791,9.791,0,0,0,1.811-9.6A2.121,2.121,0,0,0,59.491,24.5a8.192,8.192,0,0,0-8.625,1.4c-.841.7-1.572,1.525-2.406,2.23a6.335,6.335,0,0,1-8.428.048c-.776-.642-1.47-1.384-2.213-2.067a7.663,7.663,0,0,0-5.609-2.208c-4.274.184-4.711.845-4.918,5.025" transform="translate(-19.048 -0.001)" fill="#224b74" stroke="#224b74" stroke-width="1"/>
        <path id="Trazado_892554" data-name="Trazado 892554" d="M7.829,42.135c.233.214.764.48.781.776a1.238,1.238,0,0,1-.685.989c-3.361.718-4.242,3.1-4.451,6.142-.512,7.46-1.132,14.913-1.7,22.37-.064.837.027,1.7-.119,2.514-.071.4-.526.723-.808,1.081-.3-.375-.865-.762-.85-1.124.138-3.357.35-6.712.593-10.064.374-5.154.826-10.3,1.175-15.457C2,45.891,3.544,43.508,6.385,42.518c.394-.137.807-.216,1.444-.383" transform="translate(0 -31.492)" fill="#224b74" stroke="#224b74" stroke-width="1"/>
        <path id="Trazado_892555" data-name="Trazado 892555" d="M174.449,73.958c0,.13,0,.592,0,1.055,0,.681.065,1.539-.878,1.452-.334-.031-.772-.869-.849-1.385-.185-1.242-.17-2.513-.263-3.771q-.791-10.694-1.593-21.388c-.228-3.1-1.328-4.5-4.164-5.444-.383-.127-.612-.718-.912-1.094.445-.192.911-.587,1.33-.543,2.773.295,5.168,2.955,5.425,6.129.664,8.215,1.256,16.436,1.9,24.989" transform="translate(-123.914 -32.017)" fill="#224b74" stroke="#224b74" stroke-width="1"/>
        <path id="Trazado_892556" data-name="Trazado 892556" d="M143.983,162.512c-.212,1.127-.311,1.966-.532,2.772a20.177,20.177,0,0,0,.695,11.763c.1.319.334.65.3.949a5.678,5.678,0,0,1-.461,1.267c-.387-.215-1.009-.344-1.125-.658-1.468-3.99-2.288-8.072-1.436-12.337.255-1.275.472-2.563.842-3.8a1.361,1.361,0,0,1,1.075-.678c.258,0,.52.573.645.725" transform="translate(-105.443 -120.922)" fill="#224b74" stroke="#224b74" stroke-width="1"/>
        <path id="Trazado_892557" data-name="Trazado 892557" d="M47.993,169.535a29.691,29.691,0,0,1-1.848,8.635,1.488,1.488,0,0,1-1.123.842c-.721-.092-.735-.7-.543-1.374.483-1.689.942-3.389,1.312-5.106.653-3.037.03-6-.6-8.966-.153-.713-.691-1.743.437-2.035,1.215-.314,1.108.883,1.246,1.582.418,2.132.756,4.28,1.125,6.421" transform="translate(-33.166 -120.692)" fill="#224b74" stroke="#224b74" stroke-width="1"/>
      </g>
    </g>
  </g>
</svg>
