<svg xmlns="http://www.w3.org/2000/svg" xmlns:xlink="http://www.w3.org/1999/xlink" width="89" height="89" viewBox="0 0 89 89">
  <defs>
    <clipPath id="clip-path">
      <rect id="Rectángulo_402353" data-name="Rectángulo 402353" width="56.042" height="54.516" fill="#224b74" stroke="#224b74" stroke-width="1"/>
    </clipPath>
  </defs>
  <g id="Grupo_1102070" data-name="Grupo 1102070" transform="translate(-1123.5 -3073.743)">
    <g id="Grupo_1098742" data-name="Grupo 1098742" transform="translate(-79.82 2685.001)">
      <rect id="Rectángulo_400898" data-name="Rectángulo 400898" width="89" height="89" rx="44.5" transform="translate(1203.32 388.742)" fill="#e6efbf" opacity="0.999"/>
      <g id="Rectángulo_400907" data-name="Rectángulo 400907" transform="translate(1203.32 388.742)" fill="none" stroke="#0f1f33" stroke-linecap="round" stroke-width="2" stroke-dasharray="7">
        <rect width="89" height="89" rx="44.5" stroke="none"/>
        <rect x="1" y="1" width="87" height="87" rx="43.5" fill="none"/>
      </g>
    </g>
    <g id="Grupo_1101956" data-name="Grupo 1101956" transform="translate(1139.979 3090.985)">
      <g id="Grupo_1101955" data-name="Grupo 1101955" clip-path="url(#clip-path)">
        <path id="Trazado_892550" data-name="Trazado 892550" d="M50.21,48.768H5.773c0,1.174-.051,2.36.046,3.532.018.215.634.528.984.541,1.6.058,3.208.031,4.813.024.625,0,1.251.05,1.235.86-.015.754-.639.778-1.2.78-1.714,0-3.429.03-5.142-.008a2.205,2.205,0,0,1-2.4-2.488c-.014-2.735.064-5.473-.039-8.2a7,7,0,0,0-.757-3.132A24.541,24.541,0,0,1,.859,21.786C2.4,15.53,3.752,9.226,5.187,2.943,5.665.849,6.64.121,8.777.019a11.7,11.7,0,0,1,6.9,1.626c4.868,2.9,10.3,3.131,15.8,2.31A35.365,35.365,0,0,0,42.334.4,4.454,4.454,0,0,1,44.117.05c1.165-.051,2.335-.045,3.5,0a3.017,3.017,0,0,1,3.055,2.48c1.68,7.385,3.45,14.752,4.951,22.174A21.611,21.611,0,0,1,53.048,39.8a9.076,9.076,0,0,0-1.226,4.787c.063,2.442.023,4.886.013,7.329-.007,1.733-.8,2.581-2.526,2.583q-16.41.021-32.821.005c-.6,0-1.27-.008-1.241-.847s.7-.791,1.3-.791H48.6c1.61,0,1.61,0,1.612-1.659,0-.794,0-1.589,0-2.44M5.757,46.938H50.185V42.431a.72.72,0,0,0-.244-.01c-3.945,1.53-7.95,1.151-11.95.312a1.357,1.357,0,0,1-.857-.981c.02-.714.637-.73,1.238-.61.893.177,1.788.363,2.691.458a16.544,16.544,0,0,0,8.292-.739,4.775,4.775,0,0,0,2.57-2.383A19.823,19.823,0,0,0,54.231,27.39a91.83,91.83,0,0,0-1.723-9.217C51.442,13.225,50.289,8.3,49.179,3.359c-.166-.741-.389-1.536-1.241-1.609-1.282-.109-2.58-.028-3.929-.028,0,3.343,0,6.549,0,9.754,0,.576-.032,1.169-.8,1.175s-.827-.557-.822-1.151c.009-1.146,0-2.292,0-3.606a16,16,0,0,0-5.641,14.373,6.419,6.419,0,0,0,5.614-5.951c.067-.635.04-1.362.94-1.271.817.083.707.789.681,1.37a8.2,8.2,0,0,1-8.406,7.663c-5,.044-9.992.026-14.988.007a8.269,8.269,0,0,1-8.662-8.665c-.011-4.157,0-8.315.006-12.472,0-.39,0-.78,0-1.274-1.069,0-2.009,0-2.948,0-1.564,0-1.9.277-2.24,1.787C5.312,9.781,3.922,16.112,2.416,22.416A23.509,23.509,0,0,0,3.514,37.5a6.351,6.351,0,0,0,5.155,4,22.766,22.766,0,0,0,8.9-.352c.6-.127,1.217-.111,1.241.6a1.356,1.356,0,0,1-.853.983A22.732,22.732,0,0,1,9.6,43.29c-1.305-.206-2.591-.54-3.847-.808ZM21.173,22.391h13.7c.132-1.756.2-3.463.4-5.153A16.362,16.362,0,0,1,41.039,6.863c1.5-1.34,1.434-2.81,1.277-4.585-9.572,4.6-19.09,5.182-28.689.186-.171,1.7-.2,3.1,1.249,4.377A15.991,15.991,0,0,1,20.439,15.9c.384,2.1.491,4.253.734,6.492M13.55,7.909c0,1.687-.025,3.2.007,4.72a31.811,31.811,0,0,0,.221,4.681c.468,2.729,3.093,4.968,5.507,4.912A16.142,16.142,0,0,0,13.55,7.909" transform="translate(0 0)" fill="#224b74" stroke="#224b74" stroke-width="1"/>
        <path id="Trazado_892551" data-name="Trazado 892551" d="M110.509,40.846c-.836,0-1.673.025-2.509-.006a2.192,2.192,0,0,1-2.258-2.285c-.07-1.751.633-2.839,2.064-2.906,1.85-.087,3.711-.091,5.561,0,1.425.072,2.118,1.172,2.041,2.926a2.2,2.2,0,0,1-2.281,2.262c-.872.028-1.745.005-2.618.005m.079-1.652v0q1.2,0,2.392,0c.695,0,.82-.444.81-1.018s-.217-.879-.836-.873c-1.558.015-3.117.02-4.674,0-.649-.01-.911.265-.923.9-.012.674.242,1.019.949,1,.76-.019,1.522,0,2.283,0" transform="translate(-82.604 -27.798)" fill="#224b74" stroke="#224b74" stroke-width="1"/>
      </g>
    </g>
  </g>
</svg>
