<svg xmlns="http://www.w3.org/2000/svg" xmlns:xlink="http://www.w3.org/1999/xlink" width="89" height="89" viewBox="0 0 89 89">
  <defs>
    <clipPath id="clip-path">
      <rect id="Rectángulo_402369" data-name="Rectángulo 402369" width="53.459" height="53.436" fill="#224b74"/>
    </clipPath>
  </defs>
  <g id="Grupo_1102068" data-name="Grupo 1102068" transform="translate(-756.501 -549.337)">
    <g id="Grupo_1098742" data-name="Grupo 1098742" transform="translate(-446.819 160.595)">
      <rect id="Rectángulo_400898" data-name="Rectángulo 400898" width="89" height="89" rx="44.5" transform="translate(1203.32 388.742)" fill="#d9eafa" opacity="0.999"/>
      <g id="Rectángulo_400907" data-name="Rectángulo 400907" transform="translate(1203.32 388.742)" fill="none" stroke="#0f1f33" stroke-linecap="round" stroke-width="2" stroke-dasharray="7">
        <rect width="89" height="89" rx="44.5" stroke="none"/>
        <rect x="1" y="1" width="87" height="87" rx="43.5" fill="none"/>
      </g>
    </g>
    <g id="Grupo_1101980" data-name="Grupo 1101980" transform="translate(774.271 567.119)">
      <g id="Grupo_1101979" data-name="Grupo 1101979" clip-path="url(#clip-path)">
        <path id="Trazado_892614" data-name="Trazado 892614" d="M42.431,44.516a20.173,20.173,0,0,1-.338,2.789,6.3,6.3,0,0,1-4.736,4.787,42.594,42.594,0,0,1-21.225,0,6.592,6.592,0,0,1-4.964-6.335c-.019-.379,0-.759,0-1.183-.793-.153-1.549-.235-2.267-.448A10.959,10.959,0,0,1,.551,34.322a51.772,51.772,0,0,1,.665-18.848C3.092,7.632,8.166,2.732,16.092,1.077a54.331,54.331,0,0,1,21.729.042A18.876,18.876,0,0,1,52.513,16.49a54.99,54.99,0,0,1,.347,18.244,11.021,11.021,0,0,1-10.007,9.716c-.133.016-.264.041-.421.067m-.1-4.533A6.586,6.586,0,0,0,48.448,34.2a52.962,52.962,0,0,0-.257-16.6A14.26,14.26,0,0,0,38.622,5.99c-.406-.154-.836-.245-1.25-.363-1.87,4.644-5.1,7.486-10.043,7.709-5.515.25-9.123-2.671-11.205-7.656a2.514,2.514,0,0,0-.44.051C10.3,7.416,6.773,10.961,5.549,16.46A48.989,48.989,0,0,0,5.1,34.59a6.431,6.431,0,0,0,6.056,5.355V38.819q0-5.628,0-11.257c0-1.964.763-3.026,2.2-3.064,1.466-.039,2.3,1.067,2.3,3.07q0,8.86,0,17.719c0,1.509.488,2.208,1.8,2.531a38.255,38.255,0,0,0,18.56.006,2.124,2.124,0,0,0,1.825-2.3c.019-.694.005-1.39.005-2.084V27.8c0-.278-.007-.556,0-.834a2.3,2.3,0,0,1,2.267-2.47,2.259,2.259,0,0,1,2.212,2.413c.027,3.96.011,7.921.011,11.882v1.19M20.7,4.734a6.521,6.521,0,0,0,6.246,4.208c2.663-.123,5.183-1.9,5.778-4.208Z" transform="translate(0 0)" fill="#224b74"/>
        <path id="Trazado_892615" data-name="Trazado 892615" d="M81.754,85.721c-3.426-.506-6.856-.97-10.269-1.537a2.238,2.238,0,1,1,.993-4.324,39.73,39.73,0,0,0,18.458,0,2.246,2.246,0,1,1,.959,4.336c-3.344.56-6.706,1.014-10.14,1.523" transform="translate(-54.969 -63.134)" fill="#224b74"/>
      </g>
    </g>
  </g>
</svg>
