<svg xmlns="http://www.w3.org/2000/svg" width="84.772" height="92.027" viewBox="0 0 84.772 92.027">
  <g id="Grupo_1102066" data-name="Grupo 1102066" transform="translate(-704.151 -589)">
    <g id="Page-1" transform="translate(703.786 589)">
      <g id="_001---Leather-Tag" data-name="001---Leather-Tag" transform="translate(0.365 0)">
        <path id="Shape" d="M12.075,49.078c0,11.167-3.331,18.527-10.187,22.5A3.077,3.077,0,0,0,.75,75.721L7,86.96a3.067,3.067,0,0,0,3.823,1.36c5.061-2.038,22.2-7.834,30.718,3.113a1.534,1.534,0,0,0,2.423,0c8.515-10.946,25.665-5.152,30.72-3.113A3.067,3.067,0,0,0,78.5,86.96l6.245-11.242a3.077,3.077,0,0,0-1.138-4.141c-6.856-3.972-10.187-11.332-10.187-22.5,0-12.177,8.282-21.472,10.825-24.034a3.05,3.05,0,0,0,.173-4.118l-6.21-7.454A3.067,3.067,0,0,0,75.45,12.4C60.9,14.308,56.463,5.828,55.231,2.087A3.047,3.047,0,0,0,52.325,0H33.172a3.047,3.047,0,0,0-2.906,2.087C29.039,5.823,24.591,14.309,10.053,12.4a3.067,3.067,0,0,0-2.761,1.074L1.081,20.932a3.05,3.05,0,0,0,.173,4.118c2.538,2.557,10.82,11.851,10.82,24.028ZM9.655,15.444c17.3,2.268,22.376-8.917,23.517-12.377l19.146-.02c1.146,3.48,6.23,14.659,23.533,12.386l6.218,7.451c-2.748,2.77-11.714,12.851-11.714,26.194,0,12.355,3.834,20.584,11.711,25.152L75.825,85.477C70.49,83.329,52.849,77.4,42.748,88.136c-4.466-4.751-10.4-6.237-16.1-6.237A48.157,48.157,0,0,0,9.676,85.466L3.426,74.23c7.882-4.569,11.716-12.8,11.716-25.152,0-13.343-8.966-23.424-11.71-26.189Z" transform="translate(-0.365 0)" fill="#4598eb"/>
        <path id="Shape-2" data-name="Shape" d="M31.324,51.625c-.643.344-1.273.716-1.883,1.115-.613-.4-1.241-.767-1.883-1.115a1.534,1.534,0,0,0-1.443,2.707,21.757,21.757,0,0,1,2.432,1.512,1.534,1.534,0,0,0,1.788,0,21.757,21.757,0,0,1,2.432-1.512,1.534,1.534,0,1,0-1.443-2.707Z" transform="translate(12.944 27.455)" fill="#4598eb"/>
        <path id="Shape-3" data-name="Shape" d="M25.9,50.578a31.057,31.057,0,0,0-5.368-1.043,1.534,1.534,0,0,0-.322,3.05,27.9,27.9,0,0,1,4.837.937,1.486,1.486,0,0,0,.429.063,1.534,1.534,0,0,0,.426-3.008Z" transform="translate(9.491 26.431)" fill="#4598eb"/>
        <path id="Shape-4" data-name="Shape" d="M18.712,49.431a46.182,46.182,0,0,0-5.357.548,1.534,1.534,0,0,0,.241,3.047,1.482,1.482,0,0,0,.245-.018,43.037,43.037,0,0,1,5-.512,1.535,1.535,0,1,0-.126-3.067Z" transform="translate(5.881 26.378)" fill="#4598eb"/>
        <path id="Shape-5" data-name="Shape" d="M11.715,52.425q-.94.248-1.811.509L8.773,50.9q.732-.672,1.406-1.39a1.534,1.534,0,0,0-2.236-2.1A23.834,23.834,0,0,1,5.85,49.387a1.534,1.534,0,0,0-.359,1.923l2.336,4.2a1.534,1.534,0,0,0,1.34.788,1.554,1.554,0,0,0,.469-.074c.882-.284,1.84-.567,2.86-.837a1.534,1.534,0,1,0-.782-2.965Z" transform="translate(2.268 25.048)" fill="#4598eb"/>
        <path id="Shape-6" data-name="Shape" d="M13.446,40.575a1.534,1.534,0,0,0-1.952.945A28.187,28.187,0,0,1,9.214,46.5a1.534,1.534,0,0,0,.548,2.1,1.514,1.514,0,0,0,.767.212,1.534,1.534,0,0,0,1.325-.759,31.229,31.229,0,0,0,2.531-5.521,1.534,1.534,0,0,0-.939-1.952Z" transform="translate(4.246 21.608)" fill="#4598eb"/>
        <path id="Shape-7" data-name="Shape" d="M11.412,27.489a35.01,35.01,0,0,1,.839,5.471,1.534,1.534,0,0,0,1.534,1.423H13.9a1.534,1.534,0,0,0,1.419-1.641,38.219,38.219,0,0,0-.913-5.951,1.534,1.534,0,1,0-2.986.7Z" transform="translate(5.513 13.667)" fill="#4598eb"/>
        <path id="Shape-8" data-name="Shape" d="M13.049,41.907a1.534,1.534,0,0,0,1.508-1.262,49.2,49.2,0,0,0,.679-5.929A1.534,1.534,0,0,0,13.793,33.1a1.551,1.551,0,0,0-1.618,1.446,45.944,45.944,0,0,1-.636,5.558,1.534,1.534,0,0,0,1.239,1.781A1.64,1.64,0,0,0,13.049,41.907Z" transform="translate(5.586 17.664)" fill="#4598eb"/>
        <path id="Shape-9" data-name="Shape" d="M12.633,26.891a1.534,1.534,0,0,0,1.426-2.1,45.387,45.387,0,0,0-2.578-5.4,1.534,1.534,0,0,0-2.676,1.5,42.265,42.265,0,0,1,2.4,5.034,1.534,1.534,0,0,0,1.426.969Z" transform="translate(4.04 9.937)" fill="#4598eb"/>
        <path id="Shape-10" data-name="Shape" d="M8.852,16.267l.791-.948c.587.028,1.169.041,1.739.041h.672A1.534,1.534,0,1,0,12,12.293h-.613c-.758,0-1.534-.026-2.324-.08a1.534,1.534,0,0,0-1.279.549l-2.1,2.509a1.534,1.534,0,0,0,0,1.959c.586.707,1.2,1.489,1.822,2.342a1.534,1.534,0,0,0,2.478-1.81Q9.412,16.978,8.852,16.267Z" transform="translate(2.289 6.516)" fill="#4598eb"/>
        <path id="Shape-11" data-name="Shape" d="M15.225,15.772a1.517,1.517,0,0,0,.434-.063,24.333,24.333,0,0,0,7.4-3.6,1.534,1.534,0,1,0-1.8-2.486,21.22,21.22,0,0,1-6.472,3.144,1.534,1.534,0,0,0,.432,3.006Z" transform="translate(6.746 4.98)" fill="#4598eb"/>
        <path id="Shape-12" data-name="Shape" d="M23.249,9.7a1.534,1.534,0,0,0,1.267-.667c.432-.63.839-1.288,1.216-1.963h2.147a1.534,1.534,0,1,0,0-3.067H24.812a1.534,1.534,0,0,0-1.365.834A22.569,22.569,0,0,1,21.984,7.3a1.534,1.534,0,0,0,1.264,2.4Z" transform="translate(11.03 2.135)" fill="#4598eb"/>
        <path id="Shape-13" data-name="Shape" d="M30.8,7.067h2.147c.377.675.784,1.333,1.216,1.963A1.534,1.534,0,1,0,36.692,7.3a22.57,22.57,0,0,1-1.463-2.465A1.534,1.534,0,0,0,33.865,4H30.8a1.534,1.534,0,1,0,0,3.067Z" transform="translate(15.058 2.135)" fill="#4598eb"/>
        <path id="Shape-14" data-name="Shape" d="M43.836,15.721a1.518,1.518,0,0,0,.434.064A1.534,1.534,0,0,0,44.7,12.78a21.261,21.261,0,0,1-6.469-3.146,1.534,1.534,0,1,0-1.794,2.485,24.277,24.277,0,0,0,7.4,3.6Z" transform="translate(18.521 4.966)" fill="#4598eb"/>
        <path id="Shape-15" data-name="Shape" d="M46.812,15.354h.672c.571,0,1.152-.014,1.741-.041l.79.948q-.558.709-1.135,1.5a1.534,1.534,0,1,0,2.478,1.808c.623-.853,1.236-1.633,1.822-2.34a1.534,1.534,0,0,0,0-1.96l-2.093-2.5a1.546,1.546,0,0,0-1.281-.549c-.79.054-1.566.08-2.322.08h-.646a1.534,1.534,0,0,0-.026,3.067Z" transform="translate(23.612 6.516)" fill="#4598eb"/>
        <path id="Shape-16" data-name="Shape" d="M44.243,41.885a1.621,1.621,0,0,0,.271-.023,1.534,1.534,0,0,0,1.241-1.779,46.27,46.27,0,0,1-.632-5.558,1.536,1.536,0,0,0-3.067.169,49.233,49.233,0,0,0,.675,5.928,1.534,1.534,0,0,0,1.512,1.264Z" transform="translate(21.884 17.651)" fill="#4598eb"/>
        <path id="Shape-17" data-name="Shape" d="M44.459,40.552a1.534,1.534,0,0,0-.946,1.951,31.032,31.032,0,0,0,2.523,5.521,1.534,1.534,0,1,0,2.647-1.549,28.169,28.169,0,0,1-2.273-4.98,1.534,1.534,0,0,0-1.951-.943Z" transform="translate(22.617 21.596)" fill="#4598eb"/>
        <path id="Shape-18" data-name="Shape" d="M44.737,26.753a1.5,1.5,0,0,0,.566.11,1.534,1.534,0,0,0,1.426-.969,42.242,42.242,0,0,1,2.4-5.03,1.534,1.534,0,0,0-2.675-1.5,45.125,45.125,0,0,0-2.581,5.4,1.534,1.534,0,0,0,.859,1.991Z" transform="translate(22.799 9.931)" fill="#4598eb"/>
        <path id="Shape-19" data-name="Shape" d="M43.483,34.367H43.6a1.534,1.534,0,0,0,1.534-1.423,35.016,35.016,0,0,1,.844-5.469,1.534,1.534,0,1,0-2.985-.7,37.959,37.959,0,0,0-.92,5.951,1.534,1.534,0,0,0,1.414,1.646Z" transform="translate(21.889 13.637)" fill="#4598eb"/>
        <path id="Shape-20" data-name="Shape" d="M50.144,50.905l-1.129,2.032q-.87-.259-1.811-.509a1.534,1.534,0,1,0-.782,2.965c1.02.27,1.978.554,2.86.837a1.554,1.554,0,0,0,.469.074,1.534,1.534,0,0,0,1.34-.788l2.336-4.2a1.534,1.534,0,0,0-.359-1.922,24.065,24.065,0,0,1-2.093-1.974,1.534,1.534,0,1,0-2.236,2.1q.673.716,1.4,1.39Z" transform="translate(23.582 25.044)" fill="#4598eb"/>
        <path id="Shape-21" data-name="Shape" d="M45.519,49.978a46,46,0,0,0-5.356-.549,1.578,1.578,0,0,0-1.6,1.469,1.534,1.534,0,0,0,1.469,1.6,43.207,43.207,0,0,1,5,.512,1.467,1.467,0,0,0,.244.02,1.534,1.534,0,0,0,.241-3.047Z" transform="translate(20.023 26.379)" fill="#4598eb"/>
        <path id="Shape-22" data-name="Shape" d="M38.325,49.535a31.061,31.061,0,0,0-5.368,1.04,1.534,1.534,0,0,0,.857,2.946,27.889,27.889,0,0,1,4.839-.936,1.534,1.534,0,0,0-.322-3.05Z" transform="translate(16.439 26.431)" fill="#4598eb"/>
        <path id="Shape-23" data-name="Shape" d="M25,12.6A4.6,4.6,0,1,0,29.6,8,4.6,4.6,0,0,0,25,12.6Zm4.6-1.534A1.534,1.534,0,1,1,28.067,12.6,1.534,1.534,0,0,1,29.6,11.067Z" transform="translate(12.783 4.269)" fill="#4598eb"/>
      </g>
    </g>
  </g>
</svg>
