<svg xmlns="http://www.w3.org/2000/svg" xmlns:xlink="http://www.w3.org/1999/xlink" width="89" height="89" viewBox="0 0 89 89">
  <defs>
    <clipPath id="clip-path">
      <rect id="Rectángulo_402359" data-name="Rectángulo 402359" width="52.926" height="52.903" fill="#224b74" stroke="#224b74" stroke-width="1"/>
    </clipPath>
  </defs>
  <g id="Grupo_1102065" data-name="Grupo 1102065" transform="translate(-766.537 -5215.169)">
    <g id="Grupo_1098742" data-name="Grupo 1098742" transform="translate(-436.783 4826.427)">
      <rect id="Rectángulo_400898" data-name="Rectángulo 400898" width="89" height="89" rx="44.5" transform="translate(1203.32 388.742)" fill="#d2c3dd"/>
      <g id="Rectángulo_400907" data-name="Rectángulo 400907" transform="translate(1203.32 388.742)" fill="none" stroke="#0f1f33" stroke-linecap="round" stroke-width="2" stroke-dasharray="7">
        <rect width="89" height="89" rx="44.5" stroke="none"/>
        <rect x="1" y="1" width="87" height="87" rx="43.5" fill="none"/>
      </g>
    </g>
    <g id="Grupo_1101968" data-name="Grupo 1101968" transform="translate(784.542 5233.218)">
      <g id="Grupo_1101967" data-name="Grupo 1101967" clip-path="url(#clip-path)">
        <path id="Trazado_892564" data-name="Trazado 892564" d="M8.158,19.471c0-1.571.063-3-.042-4.416a1.453,1.453,0,0,0-.881-1.034,5.913,5.913,0,0,0-5.076,1.149,6.652,6.652,0,0,1-1.532.657,6.431,6.431,0,0,1-.58-1.707c-.078-1.7.018-3.412-.045-5.116C-.036,7.952.359,7.293,1.378,7.113c2.19-.388,4.39-.725,6.78-1.114,0-1.27.038-2.875-.013-4.478C8.111.46,8.534-.006,9.6.012q2.489.041,4.979,0c1.082-.018,1.45.494,1.431,1.532-.041,2.3.019,4.611-.03,6.915a1.335,1.335,0,0,0,.908,1.48c1.811.744,3.6,1.534,5.656,2.415,0-2.553,0-4.749,0-6.945,0-1.383.013-2.766,0-4.149-.009-.8.359-1.221,1.15-1.226q2.766-.019,5.532,0c1.007.006,1.163.666,1.158,1.5-.019,3.043-.007,6.085-.007,9.128v1.727c2.226-.984,4.2-1.817,6.123-2.753.268-.13.4-.769.4-1.175.038-2.258.072-4.519,0-6.776C36.852.392,37.382-.044,38.609,0c1.519.058,3.043.052,4.563,0,1.2-.039,1.646.469,1.594,1.655C44.7,3.216,44.749,4.776,44.749,6c2.391.388,4.592.719,6.781,1.113a1.6,1.6,0,0,1,1.375,1.894c-.066,1.842.017,3.689-.048,5.53a1.607,1.607,0,0,1-.6,1.232,1.6,1.6,0,0,1-1.291-.412,5.953,5.953,0,0,0-5.285-1.351c-.344.068-.866.483-.881.762-.086,1.548-.041,3.1-.041,4.449,2.262.312,4.343.565,6.412.9a1.906,1.906,0,0,1,1.748,2.332c-.117,1.7.007,3.411-.053,5.114-.016.452-.236,1.182-.521,1.27a1.827,1.827,0,0,1-1.428-.395,6.256,6.256,0,0,0-6.112-1.1v5.028c2.044.256,4.054.372,6,.79,2.064.443,2.086.632,2.088,2.731,0,1.66.041,3.321-.035,4.977a1.664,1.664,0,0,1-.663,1.2c-.243.142-.879-.124-1.179-.389a6.2,6.2,0,0,0-4.993-1.508c-.962.1-1.317.458-1.295,1.479.07,3.18-.017,6.362.047,9.542.025,1.257-.417,1.767-1.677,1.718-1.519-.059-3.043-.051-4.563,0-1.171.037-1.664-.407-1.631-1.621.063-2.3.019-4.606.019-7.05l-6.546,2.106c0,1.6-.049,3.252.016,4.9.047,1.176-.375,1.7-1.585,1.664-1.566-.051-3.136-.051-4.7,0-1.217.04-1.624-.5-1.578-1.671.066-1.649.017-3.3.017-4.892l-6.549-2.127c0,2.41-.045,4.743.018,7.072.033,1.218-.468,1.653-1.635,1.618-1.612-.048-3.227-.025-4.84-.01-.985.009-1.4-.426-1.388-1.43.032-3.273-.032-6.547.037-9.819C8.2,40.62,7.86,40.257,6.894,40.16A6.271,6.271,0,0,0,2,41.572c-.346.289-1.035.63-1.274.48a1.838,1.838,0,0,1-.675-1.328c-.074-1.887-.006-3.78-.042-5.669A1.407,1.407,0,0,1,1.182,33.44c2.236-.427,4.483-.791,6.882-1.206V27.326a6.208,6.208,0,0,0-5.958,1.018,2.116,2.116,0,0,1-1.537.48c-.282-.071-.508-.9-.526-1.4-.063-1.75.018-3.5-.041-5.254-.035-1.033.3-1.731,1.345-1.911,1.712-.3,3.432-.547,5.153-.781a13.444,13.444,0,0,1,1.657-.01M24.568,25.8h3.775V2.05H24.568Zm-8.576-1.108a27.815,27.815,0,0,0,.036,3.214,1.759,1.759,0,0,0,.781,1.214c5.518,2.607,11.177,3.284,16.972.955,3.97-1.6,3.008-.518,3.124-4.626a4.127,4.127,0,0,0-.146-.663c-6.853,4.047-13.745,4.037-20.767-.094M22.529,44.36c0-1.3.033-2.307-.023-3.305a.989.989,0,0,0-.5-.695c-3.557-1.6-7.106-3.214-10.7-4.718a12.241,12.241,0,0,0-8.086-.792c-.455.124-1.123.52-1.175.866a24.322,24.322,0,0,0-.056,3.4c3.665-1.749,6.85-.8,9.983.808,1.634.839,3.274,1.679,4.967,2.389,1.761.738,3.588,1.319,5.592,2.043m28.405-5.235a16.679,16.679,0,0,1,.018-2.308c.225-1.448-.491-1.87-1.787-2.114-3.147-.593-6.012.225-8.826,1.47-3.1,1.373-6.207,2.742-9.292,4.154a1.265,1.265,0,0,0-.642.86c-.084.949-.03,1.911-.03,3.041a14.787,14.787,0,0,0,1.847-.51c2.951-1.263,5.924-2.483,8.819-3.865,3.132-1.5,6.255-2.464,9.894-.727m0-26.273a15.994,15.994,0,0,1,.019-2.34c.234-1.408-.5-1.821-1.712-2.054-3.3-.631-6.3.239-9.22,1.623-2.329,1.1-4.622,2.288-7,3.284-2.876,1.206-2.906,1.137-2.59,4.283a1.114,1.114,0,0,0,.1.214,5.486,5.486,0,0,0,1.023-.22c3.052-1.273,6.147-2.458,9.128-3.882,3.26-1.557,6.486-2.685,10.253-.908m-28.4,5.309c0-1.181-.06-1.921.015-2.648.1-.937-.209-1.375-1.169-1.641a26.913,26.913,0,0,1-3.853-1.506c-2.263-1.026-4.458-2.207-6.753-3.153a11.432,11.432,0,0,0-7.711-.568c-.39.114-.987.431-1.016.7A34.33,34.33,0,0,0,2,12.857c3.423-1.619,6.444-.931,9.4.534,1.486.735,2.936,1.554,4.46,2.2,2.1.889,4.26,1.649,6.671,2.571m-8.5,16.46c0-5.836,0-11.488-.012-17.139a.909.909,0,0,0-.295-.692c-1.133-.627-2.3-1.2-3.626-1.874,0,6.031-.011,11.732.028,17.431a1.344,1.344,0,0,0,.635.993c.984.471,2.032.809,3.271,1.281m24.826,0a27.223,27.223,0,0,1,2.695-1.01,1.472,1.472,0,0,0,1.27-1.727c-.058-5.2-.024-10.393-.031-15.59,0-.383-.059-.766-.106-1.327a18.084,18.084,0,0,1-2.347,1.18c-1.271.42-1.551,1.235-1.509,2.49.093,2.756.029,5.517.029,8.277ZM24.6,50.854h3.725V33.443H24.6Zm5.773-25.346c2.173-.954,4.136-1.8,6.076-2.693a1.009,1.009,0,0,0,.439-.755c.044-1.35.02-2.7.02-4.077-2.079.641-4,1.213-5.905,1.845a1.028,1.028,0,0,0-.6.714c-.056,1.545-.028,3.093-.028,4.967m-7.837,0c0-1.86.024-3.326-.02-4.791-.009-.3-.218-.773-.441-.847-1.983-.658-3.99-1.244-6.082-1.879,0,1.332-.037,2.612.025,3.887a1.3,1.3,0,0,0,.53.968c1.891.894,3.819,1.709,5.988,2.661M36.9,31.117,30.428,33.2v5.413c2.132-.94,4.094-1.792,6.038-2.682a.863.863,0,0,0,.419-.628c.038-1.361.019-2.724.019-4.187m-20.911-.006c0,1.415-.028,2.658.02,3.9a1.189,1.189,0,0,0,.424.9c1.936.912,3.9,1.757,6.04,2.7V33.2l-6.483-2.09M10.206,41.253v9.555h3.833c0-2.423.018-4.723-.022-7.023a1.171,1.171,0,0,0-.492-.854c-1.03-.581-2.108-1.077-3.319-1.678m32.533-.024c-1.286.646-2.394,1.18-3.474,1.767a.879.879,0,0,0-.378.646c-.027,2.384-.017,4.767-.017,7.191H42.74ZM8.155,24.9a21.678,21.678,0,0,0-.036-2.551c-.036-.314-.491-.831-.749-.827a40.559,40.559,0,0,0-4.513.31,1.251,1.251,0,0,0-.832.852,27.286,27.286,0,0,0-.04,2.932l6.17-.715m42.778.686c0-.695-.043-1.608.013-2.514.05-.8-.277-1.237-1.047-1.3-1.413-.12-2.83-.246-4.246-.26a1.151,1.151,0,0,0-.858.724,22.965,22.965,0,0,0-.042,2.673l6.179.68M13.977,2.078H10.108c0,1.479-.022,2.854.02,4.227a.961.961,0,0,0,.436.726c1.09.462,2.213.847,3.413,1.293ZM38.94,8.335c1.2-.452,2.279-.831,3.329-1.278a.952.952,0,0,0,.5-.673c.047-1.415.023-2.833.023-4.326H38.94Z" transform="translate(0 0)" fill="#224b74" stroke="#224b74" stroke-width="1"/>
      </g>
    </g>
  </g>
</svg>
