<svg xmlns="http://www.w3.org/2000/svg" xmlns:xlink="http://www.w3.org/1999/xlink" width="89" height="89" viewBox="0 0 89 89">
  <defs>
    <clipPath id="clip-path">
      <rect id="Rectángulo_402364" data-name="Rectángulo 402364" width="53.652" height="53.634" fill="#224b74"/>
    </clipPath>
  </defs>
  <g id="Grupo_1102066" data-name="Grupo 1102066" transform="translate(-1081.536 -5215.169)">
    <g id="Grupo_1098742" data-name="Grupo 1098742" transform="translate(-121.784 4826.427)">
      <rect id="Rectángulo_400898" data-name="Rectángulo 400898" width="89" height="89" rx="44.5" transform="translate(1203.32 388.742)" fill="#d2c3dd"/>
      <g id="Rectángulo_400907" data-name="Rectángulo 400907" transform="translate(1203.32 388.742)" fill="none" stroke="#0f1f33" stroke-linecap="round" stroke-width="2" stroke-dasharray="7">
        <rect width="89" height="89" rx="44.5" stroke="none"/>
        <rect x="1" y="1" width="87" height="87" rx="43.5" fill="none"/>
      </g>
    </g>
    <g id="Grupo_1101970" data-name="Grupo 1101970" transform="translate(1099.725 5232.486)">
      <g id="Grupo_1101969" data-name="Grupo 1101969" clip-path="url(#clip-path)">
        <path id="Trazado_892565" data-name="Trazado 892565" d="M.128.1A10.288,10.288,0,0,1,5.4.884c.766.335,1.533.677,2.321.953A4.377,4.377,0,0,0,11.9,1.328a6.542,6.542,0,0,1,7.916.012,3.785,3.785,0,0,0,4.658.006,6.625,6.625,0,0,1,8.012.021,3.624,3.624,0,0,0,4.558-.007A7.9,7.9,0,0,1,42.518.066a.986.986,0,0,1,.659.363,3.721,3.721,0,0,1-.039,4.677c-1.862,2.007-1.673,3.745-.325,5.992a2.7,2.7,0,0,0,2.85,1.581c2.641-.082,5.287-.024,7.988-.024V53.635H12.661c0-2.441-.079-4.844.026-7.239.077-1.751.059-3.292-2.081-3.781-.353-.08-.641-.416-.981-.59a2.822,2.822,0,0,0-3.323.241,13.875,13.875,0,0,1-1.512,1.12,4.133,4.133,0,0,1-4.445-.262.916.916,0,0,1-.277-.608,9.612,9.612,0,0,1,.882-5.193,5.225,5.225,0,0,0,.021-5.1,7.284,7.284,0,0,1,.47-7.913,3.6,3.6,0,0,0-.088-4.472A6.934,6.934,0,0,1,.843,12.4a6.942,6.942,0,0,0,.313-5.567A14.6,14.6,0,0,1,.128.1m50.38,15.791H15.9v34.59H50.508ZM12.7,12.643H40.226a7.654,7.654,0,0,1-1.79-4.8,7.634,7.634,0,0,1,2-4.5,3.09,3.09,0,0,0-1.275.44,7,7,0,0,1-8.739.03,3.252,3.252,0,0,0-3.927,0,7.032,7.032,0,0,1-8.741-.021,3.087,3.087,0,0,0-3.739-.052c-2.9,2.11-5.844,1.891-8.893.478C4.646,4,4.152,3.8,3.445,3.5c.289.931.487,1.592.7,2.248a9.8,9.8,0,0,1-.459,8A4.06,4.06,0,0,0,4.045,18.2a6.5,6.5,0,0,1,.039,7.824,4.408,4.408,0,0,0-.267,4.827,8.292,8.292,0,0,1,.012,7.837A16.455,16.455,0,0,0,3.2,40.375l.17.21c2.946-2.86,6.041-2.731,9.324-.38Z" transform="translate(0 0)" fill="#224b74"/>
        <path id="Trazado_892566" data-name="Trazado 892566" d="M93.968,97.117H90.841V94.009H93.9V90.873h3.172v3.068h3.121v3.179H97.115v3.119H93.968Z" transform="translate(-71.804 -71.829)" fill="#224b74"/>
        <path id="Trazado_892567" data-name="Trazado 892567" d="M184.529,100.183V97.125h-3.07V93.942h3.035V90.817h3.162v3.071h3.1v3.191h-3.073v3.1Z" transform="translate(-143.433 -71.785)" fill="#224b74"/>
        <path id="Trazado_892568" data-name="Trazado 892568" d="M90.714,187.711v-3.158h3.091v-3.107h3.207v3.072H100.1v3.155h-3.07v3.068H93.877v-3.029Z" transform="translate(-71.704 -143.421)" fill="#224b74"/>
        <path id="Trazado_892569" data-name="Trazado 892569" d="M181.353,187.7v-3.154h3.05v-3.1h3.19v3.048h3.091v3.144h-3.04v3.118h-3.181V187.7Z" transform="translate(-143.348 -143.421)" fill="#224b74"/>
        <rect id="Rectángulo_402360" data-name="Rectángulo 402360" width="3.036" height="3.028" transform="translate(31.689 25.352)" fill="#224b74"/>
        <rect id="Rectángulo_402361" data-name="Rectángulo 402361" width="3.044" height="2.995" transform="translate(25.364 31.706)" fill="#224b74"/>
        <rect id="Rectángulo_402362" data-name="Rectángulo 402362" width="3.024" height="3.025" transform="translate(38.011 31.709)" fill="#224b74"/>
        <rect id="Rectángulo_402363" data-name="Rectángulo 402363" width="3.028" height="3.032" transform="translate(31.68 38.001)" fill="#224b74"/>
        <path id="Trazado_892570" data-name="Trazado 892570" d="M151.257,154.389v-3.074h3.089c0,.87.029,1.731-.024,2.588a.714.714,0,0,1-.51.465c-.825.051-1.654.022-2.554.022" transform="translate(-119.559 -119.605)" fill="#224b74"/>
      </g>
    </g>
  </g>
</svg>
