<svg xmlns="http://www.w3.org/2000/svg" xmlns:xlink="http://www.w3.org/1999/xlink" width="89" height="89" viewBox="0 0 89 89">
  <defs>
    <clipPath id="clip-path">
      <rect id="Rectángulo_402366" data-name="Rectángulo 402366" width="48.848" height="48.838" fill="#224b74" stroke="#224b74" stroke-width="2"/>
    </clipPath>
  </defs>
  <g id="Grupo_1102068" data-name="Grupo 1102068" transform="translate(-1081.536 -5796.169)">
    <g id="Grupo_1098742" data-name="Grupo 1098742" transform="translate(-121.784 5407.427)">
      <rect id="Rectángulo_400898" data-name="Rectángulo 400898" width="89" height="89" rx="44.5" transform="translate(1203.32 388.742)" fill="#d2c3dd"/>
      <g id="Rectángulo_400907" data-name="Rectángulo 400907" transform="translate(1203.32 388.742)" fill="none" stroke="#0f1f33" stroke-linecap="round" stroke-width="2" stroke-dasharray="7">
        <rect width="89" height="89" rx="44.5" stroke="none"/>
        <rect x="1" y="1" width="87" height="87" rx="43.5" fill="none"/>
      </g>
    </g>
    <g id="Grupo_1101974" data-name="Grupo 1101974" transform="translate(1101.612 5816.25)">
      <g id="Grupo_1101973" data-name="Grupo 1101973" clip-path="url(#clip-path)">
        <path id="Trazado_892582" data-name="Trazado 892582" d="M36.354,1.551c2.25-2.028,3.694-2.028,6.031,0A3.417,3.417,0,0,1,45.564.091a4.741,4.741,0,0,1,2.288,1.1c1.486,1.416,1.236,3.391-.32,5.066A18.447,18.447,0,0,1,48.76,9.468c.225,1.217-.577,2.166-1.443,2.957,2,2.447,2,3.887.209,5.778a18.322,18.322,0,0,1,1.234,3.2c.227,1.217-.566,2.171-1.5,3.025a3.956,3.956,0,0,1,1.549,2.994,3.523,3.523,0,0,1-1.288,2.722,18.194,18.194,0,0,1,1.24,3.195c.228,1.217-.548,2.18-1.5,3.03a4.018,4.018,0,0,1,1.551,2.989,3.836,3.836,0,0,1-1.543,2.963c1,.969,1.832,2.089,1.473,3.532a4.578,4.578,0,0,1-1.2,2.12c-1.432,1.36-3.228,1.091-5.236-.654a3.9,3.9,0,0,1-2.953,1.5,3.52,3.52,0,0,1-2.719-1.288,18.186,18.186,0,0,1-3.194,1.24c-1.217.229-2.179-.548-3.027-1.5a4,4,0,0,1-2.989,1.551,3.516,3.516,0,0,1-2.735-1.292,17.95,17.95,0,0,1-3.177,1.244,3.038,3.038,0,0,1-2.8-1.229,18.484,18.484,0,0,1-3.227,1.231,3.3,3.3,0,0,1-2.95-1.449c-2.409,2.014-3.857,2.015-6.02-.013-.9.917-1.936,1.737-3.3,1.46a4.667,4.667,0,0,1-2.185-1.067c-1.5-1.406-1.278-3.248.468-5.36C-.47,40.042-.47,38.562,1.325,36.633A18.5,18.5,0,0,1,.1,33.423c-.226-1.218.58-2.164,1.444-2.957-2.008-2.435-2.008-3.907-.207-5.775A18.175,18.175,0,0,1,.1,21.5c-.227-1.217.547-2.18,1.5-3.021A4.025,4.025,0,0,1,.048,15.482,3.59,3.59,0,0,1,1.339,12.74,17.551,17.551,0,0,1,.1,9.57C-.126,8.358.6,7.371,1.613,6.54.608,5.62-.186,4.563.1,3.205A4.723,4.723,0,0,1,1.26.944c1.426-1.431,3.4-1.156,4.993.387A17.741,17.741,0,0,1,9.435.094a2.984,2.984,0,0,1,2.783,1.229A18.8,18.8,0,0,1,15.459.091c1.216-.223,2.159.59,2.95,1.45,2.379-2.016,3.832-2.016,5.768-.222A18.6,18.6,0,0,1,27.387.091c1.218-.227,2.163.583,2.957,1.443,2.43-2,3.883-2,6.01.016M3.469,1.036A2.535,2.535,0,0,0,1.051,3.265,2.579,2.579,0,0,0,3.072,5.986a3.743,3.743,0,0,1,.877.558,3.74,3.74,0,0,1-.824.48A2.578,2.578,0,0,0,1.037,9.458,2.578,2.578,0,0,0,3.165,11.98a3.119,3.119,0,0,1,.784.513,3.35,3.35,0,0,1-.8.5,2.512,2.512,0,0,0-.007,4.959,3.458,3.458,0,0,1,.808.493,3.03,3.03,0,0,1-.776.519,2.511,2.511,0,0,0-.055,4.956,3.905,3.905,0,0,1,.831.474,3.631,3.631,0,0,1-.87.559,2.513,2.513,0,0,0,.013,4.94,3.457,3.457,0,0,1,.857.57,4.169,4.169,0,0,1-.845.463,2.51,2.51,0,0,0-.035,4.935,3.811,3.811,0,0,1,.88.552,5.134,5.134,0,0,1-.938.506,2.509,2.509,0,0,0,.034,4.91,4.247,4.247,0,0,1,.9.534,4.476,4.476,0,0,1-.914.528,2.583,2.583,0,0,0-1.991,2.631,2.544,2.544,0,0,0,2.226,2.3A2.575,2.575,0,0,0,5.988,45.8a3.731,3.731,0,0,1,.558-.876,3.767,3.767,0,0,1,.479.825A2.577,2.577,0,0,0,9.46,47.835,2.584,2.584,0,0,0,11.98,45.7a3.114,3.114,0,0,1,.514-.783,3.366,3.366,0,0,1,.5.8,2.51,2.51,0,0,0,4.956.005,3.449,3.449,0,0,1,.494-.807,3.036,3.036,0,0,1,.518.777,2.509,2.509,0,0,0,4.954.053,3.883,3.883,0,0,1,.475-.831,3.66,3.66,0,0,1,.559.871,2.511,2.511,0,0,0,4.938-.015,3.454,3.454,0,0,1,.571-.856,4.2,4.2,0,0,1,.463.846,2.508,2.508,0,0,0,4.932.034,3.805,3.805,0,0,1,.553-.88,5.161,5.161,0,0,1,.506.939,2.507,2.507,0,0,0,4.908-.036,4.245,4.245,0,0,1,.534-.9,4.475,4.475,0,0,1,.527.915,2.58,2.58,0,0,0,2.63,1.991,2.534,2.534,0,0,0,2.306-2.346,2.583,2.583,0,0,0-2.03-2.6,3.725,3.725,0,0,1-.876-.557,3.758,3.758,0,0,1,.825-.48,2.511,2.511,0,0,0-.042-4.957,3.107,3.107,0,0,1-.783-.513,3.367,3.367,0,0,1,.8-.5,2.512,2.512,0,0,0,.006-4.958,3.459,3.459,0,0,1-.807-.493,3.04,3.04,0,0,1,.777-.519,2.511,2.511,0,0,0,.054-4.956,3.881,3.881,0,0,1-.831-.474,3.655,3.655,0,0,1,.87-.56,2.513,2.513,0,0,0-.014-4.939,3.451,3.451,0,0,1-.856-.57,4.185,4.185,0,0,1,.845-.464,2.51,2.51,0,0,0,.035-4.934,3.8,3.8,0,0,1-.88-.552,5.133,5.133,0,0,1,.938-.507,2.588,2.588,0,0,0,1.974-2.408,2.575,2.575,0,0,0-2.008-2.5,4.239,4.239,0,0,1-.9-.533,4.445,4.445,0,0,1,.914-.528,2.583,2.583,0,0,0,1.991-2.63,2.536,2.536,0,0,0-2.344-2.308,2.581,2.581,0,0,0-2.6,2.031,3.737,3.737,0,0,1-.557.877,3.782,3.782,0,0,1-.479-.825,2.51,2.51,0,0,0-4.955.041,3.111,3.111,0,0,1-.513.784,3.354,3.354,0,0,1-.5-.8,2.511,2.511,0,0,0-4.957-.007,3.457,3.457,0,0,1-.492.808,3.039,3.039,0,0,1-.519-.777,2.51,2.51,0,0,0-4.955-.055,3.882,3.882,0,0,1-.473.832,3.654,3.654,0,0,1-.56-.87,2.512,2.512,0,0,0-4.938.013,3.459,3.459,0,0,1-.569.857,4.185,4.185,0,0,1-.464-.845,2.509,2.509,0,0,0-4.933-.037,3.823,3.823,0,0,1-.55.881,3.686,3.686,0,0,1-.483-.821A2.578,2.578,0,0,0,9.54,1.033,2.576,2.576,0,0,0,7.017,3.158a3.161,3.161,0,0,1-.509.788,3.3,3.3,0,0,1-.5-.8A2.573,2.573,0,0,0,3.469,1.036" transform="translate(0 0)" fill="#224b74" stroke="#224b74" stroke-width="2"/>
        <path id="Trazado_892583" data-name="Trazado 892583" d="M165.852,32.385A1.423,1.423,0,0,1,164.372,31a1.428,1.428,0,0,1,2.853-.1,1.408,1.408,0,0,1-1.372,1.483" transform="translate(-125.122 -22.496)" fill="#224b74" stroke="#224b74" stroke-width="2"/>
        <path id="Trazado_892584" data-name="Trazado 892584" d="M97.693,163.24a1.423,1.423,0,0,1,1.484,1.378,1.428,1.428,0,0,1-2.853.109,1.411,1.411,0,0,1,1.369-1.488" transform="translate(-73.321 -124.26)" fill="#224b74" stroke="#224b74" stroke-width="2"/>
        <path id="Trazado_892585" data-name="Trazado 892585" d="M97.777,32.383a1.416,1.416,0,0,1-1.455-1.405,1.466,1.466,0,0,1,1.458-1.426,1.483,1.483,0,0,1,1.4,1.372,1.41,1.41,0,0,1-1.4,1.46" transform="translate(-73.322 -22.495)" fill="#224b74" stroke="#224b74" stroke-width="2"/>
        <path id="Trazado_892586" data-name="Trazado 892586" d="M29.658,32.384a1.41,1.41,0,0,1-1.386-1.47,1.465,1.465,0,0,1,1.4-1.362,1.481,1.481,0,0,1,1.454,1.437,1.421,1.421,0,0,1-1.467,1.4" transform="translate(-21.519 -22.495)" fill="#224b74" stroke="#224b74" stroke-width="2"/>
        <path id="Trazado_892587" data-name="Trazado 892587" d="M29.659,163.24a1.424,1.424,0,0,1,1.466,1.4,1.427,1.427,0,0,1-2.853.07,1.407,1.407,0,0,1,1.387-1.469" transform="translate(-21.52 -124.261)" fill="#224b74" stroke="#224b74" stroke-width="2"/>
        <path id="Trazado_892588" data-name="Trazado 892588" d="M165.84,163.242a1.411,1.411,0,0,1,1.385,1.473,1.428,1.428,0,0,1-2.853-.078,1.42,1.42,0,0,1,1.468-1.394" transform="translate(-125.123 -124.262)" fill="#224b74" stroke="#224b74" stroke-width="2"/>
        <path id="Trazado_892589" data-name="Trazado 892589" d="M63.757,65.156a1.429,1.429,0,1,1,1.395-1.49,1.452,1.452,0,0,1-1.395,1.49" transform="translate(-47.423 -47.423)" fill="#224b74" stroke="#224b74" stroke-width="2"/>
        <path id="Trazado_892590" data-name="Trazado 892590" d="M133.2,63.76a1.451,1.451,0,0,1-1.479,1.4,1.469,1.469,0,0,1-1.374-1.393,1.427,1.427,0,1,1,2.854-.011" transform="translate(-99.223 -47.431)" fill="#224b74" stroke="#224b74" stroke-width="2"/>
        <path id="Trazado_892591" data-name="Trazado 892591" d="M29.723,99.2a1.429,1.429,0,0,1-.108-2.854,1.428,1.428,0,1,1,.108,2.854" transform="translate(-21.524 -73.336)" fill="#224b74" stroke="#224b74" stroke-width="2"/>
        <path id="Trazado_892592" data-name="Trazado 892592" d="M99.177,97.792a1.427,1.427,0,1,1-1.445-1.439,1.45,1.45,0,0,1,1.445,1.439" transform="translate(-73.323 -73.345)" fill="#224b74" stroke="#224b74" stroke-width="2"/>
        <path id="Trazado_892593" data-name="Trazado 892593" d="M167.231,97.838a1.427,1.427,0,1,1-1.4-1.487,1.454,1.454,0,0,1,1.4,1.487" transform="translate(-125.127 -73.343)" fill="#224b74" stroke="#224b74" stroke-width="2"/>
        <path id="Trazado_892594" data-name="Trazado 892594" d="M63.709,133.244a1.428,1.428,0,0,1-.033-2.855,1.428,1.428,0,1,1,.033,2.855" transform="translate(-47.421 -99.254)" fill="#224b74" stroke="#224b74" stroke-width="2"/>
        <path id="Trazado_892595" data-name="Trazado 892595" d="M133.2,131.85a1.427,1.427,0,1,1-1.427-1.458,1.451,1.451,0,0,1,1.427,1.458" transform="translate(-99.224 -99.257)" fill="#224b74" stroke="#224b74" stroke-width="2"/>
      </g>
    </g>
  </g>
</svg>
