<svg xmlns="http://www.w3.org/2000/svg" xmlns:xlink="http://www.w3.org/1999/xlink" width="89" height="89" viewBox="0 0 89 89">
  <defs>
    <clipPath id="clip-path">
      <rect id="Rectángulo_402344" data-name="Rectángulo 402344" width="68.062" height="44.39" fill="#224b74" stroke="#224b74" stroke-width="1"/>
    </clipPath>
  </defs>
  <g id="Grupo_1102070" data-name="Grupo 1102070" transform="translate(-756.052 -1075)">
    <g id="Grupo_1098742" data-name="Grupo 1098742" transform="translate(-447.269 686.258)">
      <rect id="Rectángulo_400898" data-name="Rectángulo 400898" width="89" height="89" rx="44.5" transform="translate(1203.32 388.742)" fill="#d9eafa" opacity="0.999"/>
      <g id="Rectángulo_400907" data-name="Rectángulo 400907" transform="translate(1203.32 388.742)" fill="none" stroke="#0f1f33" stroke-linecap="round" stroke-width="2" stroke-dasharray="7">
        <rect width="89" height="89" rx="44.5" stroke="none"/>
        <rect x="1" y="1" width="87" height="87" rx="43.5" fill="none"/>
      </g>
    </g>
    <g id="Grupo_1101940" data-name="Grupo 1101940" transform="translate(766.02 1100.949)">
      <g id="Grupo_1101939" data-name="Grupo 1101939" clip-path="url(#clip-path)">
        <path id="Trazado_892539" data-name="Trazado 892539" d="M64.9,23.759c-9.747-.6-18.527.658-24.866,8.788C37.757,35.473,38.1,38.633,39.464,42c1.76-.867,3.425-1.678,5.08-2.508.673-.337,1.379-.659,1.841.2.48.893-.266,1.254-.89,1.616-.076.044-.161.076-.237.121A21,21,0,0,1,34.167,44.39a22.7,22.7,0,0,1-11.61-3.057A103.841,103.841,0,0,1,.607,24.17a2.288,2.288,0,0,1-.6-1.631,62.084,62.084,0,0,1,4.7-19.158A2.287,2.287,0,0,1,6.76,1.8C13.652,1.243,20.533.423,27.436.162a194.673,194.673,0,0,1,29.248.964c1.628.184,3.238.529,4.866.718a2.048,2.048,0,0,1,1.75,1.4,59.807,59.807,0,0,1,4.573,17.422,5.5,5.5,0,0,1,.165,1.579,4.124,4.124,0,0,1-.752,2.092,107.919,107.919,0,0,1-16.873,14c-.331.22-.675.562-1.024.576a1.612,1.612,0,0,1-1.206-.45c-.169-.218.005-.821.193-1.159.154-.278.55-.427.845-.622A110.526,110.526,0,0,0,64.108,24.643c.212-.2.394-.435.8-.883M61.626,4.532c-2.231.678-4.237,1.39-6.295,1.9-8.609,2.113-17.382,2.42-26.181,2.1-3.671-.136-7.33-.64-10.988-1.035a1.755,1.755,0,0,1-1.114-.749,1.058,1.058,0,0,1,.3-1.01,2.352,2.352,0,0,1,1.368-.175,107.26,107.26,0,0,0,33.133-.471c2.047-.364,4.053-.963,6.078-1.454l-.077-.386A231.8,231.8,0,0,0,10.2,3.43c1.274.521,2.605.795,3.862,1.267.379.142.551.836.817,1.277a7.043,7.043,0,0,1-1.28.653c-.259.075-.6-.1-.9-.194-2.063-.624-4.125-1.255-6.268-1.909a58.53,58.53,0,0,0-4.3,17.367c3.6,0,7.051-.365,10.4.071C21.089,23.078,28,26.838,31.766,35.152H36.05c1.332-1.991,2.243-3.934,3.675-5.351a31.3,31.3,0,0,1,6.369-4.933c4.657-2.66,9.843-3.391,15.153-3.292,1.535.028,3.07.134,4.694.209A59.324,59.324,0,0,0,61.626,4.532M3.094,23.835c7.828,7.343,15.768,13.918,25.529,18.123,1.4-3.46,1.6-6.647-.757-9.662a20.469,20.469,0,0,0-7.737-6.146c-5.32-2.421-10.912-2.906-17.035-2.314M30.943,42.109h6.188L36.208,37.4H31.86l-.917,4.709" transform="translate(0 0)" fill="#224b74" stroke="#224b74" stroke-width="1"/>
      </g>
    </g>
  </g>
</svg>
