<svg xmlns="http://www.w3.org/2000/svg" xmlns:xlink="http://www.w3.org/1999/xlink" width="88.896" height="88.896" viewBox="0 0 88.896 88.896">
  <defs>
    <clipPath id="clip-path">
      <rect id="Rectángulo_402490" data-name="Rectángulo 402490" width="55.284" height="57.36" fill="#224b74" stroke="#224b74" stroke-width="1"/>
    </clipPath>
  </defs>
  <g id="Grupo_1102072" data-name="Grupo 1102072" transform="translate(-336.267 -1276.656)">
    <g id="Grupo_1098742" data-name="Grupo 1098742" transform="translate(336.267 1276.656)">
      <rect id="Rectángulo_400898" data-name="Rectángulo 400898" width="88.896" height="88.896" rx="44.448" fill="#d9eafa"/>
      <g id="Rectángulo_400907" data-name="Rectángulo 400907" transform="translate(0)" fill="none" stroke="#0f1f33" stroke-linecap="round" stroke-width="2" stroke-dasharray="7">
        <rect width="88.896" height="88.896" rx="44.448" stroke="none"/>
        <rect x="1" y="1" width="86.896" height="86.896" rx="43.448" fill="none"/>
      </g>
    </g>
    <g id="Grupo_1102016" data-name="Grupo 1102016" transform="translate(352.294 1292.424)">
      <g id="Grupo_1102015" data-name="Grupo 1102015" clip-path="url(#clip-path)">
        <path id="Trazado_892651" data-name="Trazado 892651" d="M27.525,57.36q-9.852,0-19.7,0c-1.572,0-1.844-.308-1.887-1.9-.067-2.532-.145-5.064-.273-7.593a6.181,6.181,0,0,0-1.773-3.995A14.249,14.249,0,0,1,.048,32.68a14.976,14.976,0,0,1,3.428-8.341A48.906,48.906,0,0,0,7.094,19.11a9.331,9.331,0,0,0,.984-7.131C7.3,8.643,6.556,5.3,5.782,1.961,5.458.565,5.813.062,7.223.052a41.1,41.1,0,0,1,4.7.037,30.7,30.7,0,0,1,3.763.953A49.02,49.02,0,0,0,41.546.459C43.878-.234,46.2.141,48.529.107c.844-.012,1.093.731.909,1.573-.727,3.311-1.368,6.641-2.158,9.937a10.063,10.063,0,0,0,1.363,8.029c1.254,1.983,2.656,3.872,3.967,5.82a14.528,14.528,0,0,1-1.184,18.268,8.806,8.806,0,0,0-2.051,5.748c-.122,2.045-.059,4.1-.085,6.153-.018,1.375-.358,1.721-1.725,1.722q-10.02.007-20.04,0M8.257,2.3c.147.685.268,1.263.394,1.84q.848,3.874,1.7,7.748c.856,3.93-.39,7.358-2.58,10.536-.824,1.2-1.711,2.353-2.64,3.469a12.466,12.466,0,0,0,.2,16.22,7.728,7.728,0,0,1,2.341,4.225c.1.958.545,1.1,1.384,1.1q13.993-.037,27.986-.013a3.214,3.214,0,0,1,1.322.091c.37.18.823.637.833.984a1.5,1.5,0,0,1-.767,1.04,2.892,2.892,0,0,1-1.314.13q-13.713.008-27.426,0H8.236v5.359H47.11c0-1.942-.1-3.808.023-5.66.16-2.5.594-4.893,2.428-6.9a12.332,12.332,0,0,0,1.065-15.924c-1.3-1.912-2.683-3.768-3.9-5.728a11.919,11.919,0,0,1-1.841-8.655c.289-1.574.679-3.13,1.013-4.7.36-1.689.709-3.38,1.084-5.17A17.164,17.164,0,0,1,44.8,2.277c-.992-.137-1.4.311-1.8,1.179q-4.3,9.46-8.736,18.858a9.1,9.1,0,0,1-2.221,3.018A7.007,7.007,0,0,1,21.1,22.639c-3.028-6.479-6.006-12.98-9.03-19.461-.162-.348-.525-.806-.838-.842A26.27,26.27,0,0,0,8.257,2.3m6.3.771a8.878,8.878,0,0,1,.436,1.045c.5,2.015,1.749,2.8,3.852,3.026a6.688,6.688,0,0,1,5.894,6.882c.043,2.684.01,5.369.011,8.054,0,1.965.513,2.526,2.531,2.579a8.428,8.428,0,0,0,2.085-.29,1.32,1.32,0,0,0,1.087-1.539c-.06-2.833-.021-5.667-.022-8.5A6.782,6.782,0,0,1,33.69,8.084c1.322-.771,3.028-.882,4.557-1.3.306-.084.753-.139.868-.352.55-1.018,1.007-2.086,1.618-3.392a52.545,52.545,0,0,1-26.179.03m18.19,16.7.223.052L37.85,9.254c-2.875.024-4.878,1.584-5.071,4.067-.166,2.137-.034,4.3-.034,6.445M17.385,9.288l4.877,10.506a1.962,1.962,0,0,0,.236-1.088c-.005-1.678.048-3.359-.03-5.033a4.623,4.623,0,0,0-5.084-4.385" transform="translate(0 0)" fill="#224b74" stroke="#224b74" stroke-width="1"/>
        <path id="Trazado_892652" data-name="Trazado 892652" d="M159.286,104.735c1.113-2.023.119-3.617-1.684-5.068a1.024,1.024,0,0,1,.585-1.835,4.345,4.345,0,0,0,4.566-3.318c.3-.893,1.423-.812,1.949.036a7.461,7.461,0,0,1,.8,1.592,1.892,1.892,0,0,0,1.986,1.4,8.772,8.772,0,0,1,1.656.236,1.105,1.105,0,0,1,.639,1.937,4.757,4.757,0,0,1-.955.936,2.373,2.373,0,0,0-.932,3.072.537.537,0,0,1,.048.217c-.082.7.069,1.6-.314,2.052-.646.759-1.491.083-2.081-.351a2.774,2.774,0,0,0-3.712.032,3.689,3.689,0,0,1-.889.463c-.918.365-1.667-.144-1.66-1.4m2.7-1.759a2.853,2.853,0,0,1,3.5,0c-.671-1.446.078-2.367,1-3.353-1.614.24-2.253-.759-2.873-2.281a2.5,2.5,0,0,1-2.707,2.371,2.669,2.669,0,0,1,1.085,3.259" transform="translate(-122.029 -72.871)" fill="#224b74" stroke="#224b74" stroke-width="1"/>
        <path id="Trazado_892653" data-name="Trazado 892653" d="M187.491,209.914c.557.692,1.051,1.041,1.134,1.47a.969.969,0,0,1-1.027,1.173c-.7.019-1.2-.406-1.093-1.1.065-.438.5-.821.986-1.548" transform="translate(-144.76 -162.942)" fill="#224b74" stroke="#224b74" stroke-width="1"/>
      </g>
    </g>
  </g>
</svg>
