<svg xmlns="http://www.w3.org/2000/svg" xmlns:xlink="http://www.w3.org/1999/xlink" width="88.896" height="88.896" viewBox="0 0 88.896 88.896">
  <defs>
    <clipPath id="clip-path">
      <rect id="Rectángulo_402491" data-name="Rectángulo 402491" width="53.3" height="60.682" fill="#224b74"/>
    </clipPath>
  </defs>
  <g id="Grupo_1102073" data-name="Grupo 1102073" transform="translate(-756.776 -1276.656)">
    <g id="Grupo_1098742" data-name="Grupo 1098742" transform="translate(756.776 1276.656)">
      <rect id="Rectángulo_400898" data-name="Rectángulo 400898" width="88.896" height="88.896" rx="44.448" fill="#d9eafa" opacity="0.999"/>
      <g id="Rectángulo_400907" data-name="Rectángulo 400907" transform="translate(0)" fill="none" stroke="#0f1f33" stroke-linecap="round" stroke-width="2" stroke-dasharray="7">
        <rect width="88.896" height="88.896" rx="44.448" stroke="none"/>
        <rect x="1" y="1" width="86.896" height="86.896" rx="43.448" fill="none"/>
      </g>
    </g>
    <g id="Grupo_1102018" data-name="Grupo 1102018" transform="translate(774.75 1290.764)">
      <g id="Grupo_1102017" data-name="Grupo 1102017" clip-path="url(#clip-path)">
        <path id="Trazado_892654" data-name="Trazado 892654" d="M28.419,53.63H24.882c0,1.631.012,3.2,0,4.768-.016,1.635-.545,2.245-2.2,2.255-6.079.036-12.158.019-18.237.015a1.885,1.885,0,0,1-1.882-1.5A48.416,48.416,0,0,1,0,44.068,43.775,43.775,0,0,1,4.03,25.729a28.5,28.5,0,0,0,2.84-9.1,7.158,7.158,0,0,0-.61-4.1A12.038,12.038,0,0,1,6.346,1.474,2.368,2.368,0,0,1,8.677.006,20.865,20.865,0,0,1,26.012,8.134c.173.214.344.429.6.755.25-.282.479-.519.685-.774A20.909,20.909,0,0,1,44.53,0a2.5,2.5,0,0,1,2.493,1.6c1.607,3.443,1.911,7,.223,10.4a8.712,8.712,0,0,0-.5,6.4A42.94,42.94,0,0,0,49.127,25.3,44.843,44.843,0,0,1,53.2,47.169a49.315,49.315,0,0,1-2.468,12.017,2,2,0,0,1-2.135,1.5c-5.882-.016-11.763,0-17.645-.014-2.013-.006-2.523-.545-2.531-2.531-.005-1.458,0-2.917,0-4.507M4.024,38.123A87.347,87.347,0,0,0,49.369,38.1a33.455,33.455,0,0,0-.87-3.932c-1.931-5.506-3.941-10.984-5.916-16.45-5.636,3.121-11.023,2.447-15.971-2.127a12.877,12.877,0,0,1-7.779,3.912A13.108,13.108,0,0,1,10.5,17.577c-.474,1.754-.811,3.424-1.38,5.01-.81,2.259-1.8,4.456-2.7,6.683a33.43,33.43,0,0,0-2.4,8.854m45.627,3.6a91.3,91.3,0,0,1-45.972.005v4.694c.494.032.882.06,1.271.082a75.319,75.319,0,0,1,17.311,3.071,17.624,17.624,0,0,0,8.752.053c3.734-.8,7.433-1.772,11.185-2.472,2.424-.452,4.915-.549,7.453-.813ZM8.559,7.007a8.836,8.836,0,0,0,5.6,8.408A8.952,8.952,0,0,0,23.93,13.2c.422-.462.713-.821.255-1.512A17.2,17.2,0,0,0,12.211,3.814c-3.238-.528-3.594-.162-3.652,3.192m36.255.271c-.115-.776-.238-1.552-.344-2.329-.145-1.073-.641-1.5-1.815-1.374a17.685,17.685,0,0,0-13.387,7.879,1.255,1.255,0,0,0,.228,1.9A8.939,8.939,0,0,0,44.814,7.277m-23.5,49.771c0-1.046-.047-2.028.015-3a1.085,1.085,0,0,0-1.012-1.3c-2.923-.648-5.819-1.441-8.763-1.964-2.426-.431-4.906-.556-7.655-.848l1.655,7.112Zm28.062-7A63.179,63.179,0,0,0,32.589,52.9a.928.928,0,0,0-.562.623C31.97,54.689,32,55.858,32,57.061H47.748l1.628-7.011" transform="translate(0 0)" fill="#224b74"/>
        <path id="Trazado_892655" data-name="Trazado 892655" d="M84.565,149.2a28.657,28.657,0,0,1-8.173-1.658,1.788,1.788,0,1,1,1.206-3.337,17.679,17.679,0,0,0,12.6-.018,1.77,1.77,0,0,1,2.433.987,1.728,1.728,0,0,1-1.224,2.33c-2.26.643-4.562,1.139-6.847,1.7" transform="translate(-57.224 -109.905)" fill="#224b74"/>
      </g>
    </g>
  </g>
</svg>
