<svg xmlns="http://www.w3.org/2000/svg" xmlns:xlink="http://www.w3.org/1999/xlink" width="58" height="58" viewBox="0 0 58 58">
  <defs>
    <clipPath id="clip-path">
      <rect id="Rectángulo_402382" data-name="Rectángulo 402382" width="34.393" height="40.151" fill="#224b74" stroke="#224b74" stroke-width="1"/>
    </clipPath>
  </defs>
  <g id="Grupo_1102066" data-name="Grupo 1102066" transform="translate(-180 -3376)">
    <g id="Grupo_1098742" data-name="Grupo 1098742" transform="translate(180.001 3376)">
      <rect id="Rectángulo_400898" data-name="Rectángulo 400898" width="58" height="58" rx="29" transform="translate(-0.001 0)" fill="#d2c3dd" opacity="0.999"/>
      <g id="Rectángulo_400907" data-name="Rectángulo 400907" transform="translate(-0.001 0)" fill="none" stroke="#0f1f33" stroke-linecap="round" stroke-width="2" stroke-dasharray="7">
        <rect width="58" height="58" rx="29" stroke="none"/>
        <rect x="1" y="1" width="56" height="56" rx="28" fill="none"/>
      </g>
    </g>
    <g id="Grupo_1102006" data-name="Grupo 1102006" transform="translate(195.051 3384.924)">
      <g id="Grupo_1102005" data-name="Grupo 1102005" clip-path="url(#clip-path)">
        <path id="Trazado_892634" data-name="Trazado 892634" d="M7.264,3.138c0-.838.021-1.568-.006-2.3-.022-.585.163-.851.8-.842,2.2.03,4.4.025,6.6,0,.581-.006.808.213.793.78-.02.753,0,1.507,0,2.355,1.106,0,2.145.021,3.183-.008.628-.017.873.237.933.863q.747,7.853,1.545,15.7c.024.241.091.586.256.685A26.981,26.981,0,0,0,24.837,22.3c1.037.43,1.641-.013,1.844-1.134.121-.665.078-1.357.165-2.03.392-3.013,2.291-4.446,5.31-4a7.529,7.529,0,0,1,1.741.444c.228.093.334.483.5.739-.279.119-.569.358-.835.335-.645-.057-1.275-.288-1.92-.357-2.191-.235-3.491.9-3.626,3.111a19.2,19.2,0,0,1-.158,1.953,2.381,2.381,0,0,1-3.305,2.105,30.2,30.2,0,0,1-3.2-1.4c.152,1.61.3,3.236.459,4.861.287,2.942.589,5.883.863,8.827.108,1.157.025,1.224-1.11,1.226q-2.592,0-5.183,0h-.925c0,.84-.013,1.592,0,2.344.012.563-.248.823-.8.823q-3.3,0-6.6,0c-.549,0-.814-.245-.8-.816.022-.751.005-1.5.005-2.351H3.354c-.811,0-1.624-.023-2.434.006C.2,37.017-.062,36.728.012,36c.315-3.071.595-6.146.894-9.219q.749-7.695,1.506-15.389c.243-2.473.5-4.945.728-7.421.057-.634.334-.861.953-.842,1.016.031,2.035.008,3.171.008m13.945,30.02c-.153-1.581-.246-2.931-.436-4.269a2.388,2.388,0,0,0-.587-1.274c-3.584-3.632-7.2-7.232-10.809-10.84-.148-.148-.376-.274-.425-.45a3.869,3.869,0,0,1-.049-.9,4.174,4.174,0,0,1,.9.1c.178.058.3.278.45.426Q15.024,20.731,19.8,25.5c.189.189.387.371.738.706-.171-1.746-.288-3.256-.486-4.756a2.111,2.111,0,0,0-.555-1.131Q12.221,13,4.907,5.713c-.179-.179-.371-.344-.68-.631C4.083,6.6,3.939,7.966,3.843,9.337c-.013.18.2.406.356.564C5.283,11,6.38,12.087,7.47,13.179a2.412,2.412,0,0,1,.577.63A.837.837,0,0,1,8,14.554a.835.835,0,0,1-.743.049,2.378,2.378,0,0,1-.631-.576c-.954-.956-1.906-1.913-2.973-2.985-.154,1.485-.271,2.785-.432,4.079a1.31,1.31,0,0,0,.454,1.234Q8.939,21.359,14.162,26.4c.169.163.4.316.464.517a.815.815,0,0,1-.1.692.812.812,0,0,1-.687.065c-.2-.067-.361-.29-.53-.453q-4.789-4.59-9.577-9.181c-.2-.191-.4-.377-.7-.66-.135,1.381-.273,2.6-.357,3.825a1,1,0,0,0,.315.656q6.786,6.814,13.6,13.6a1,1,0,0,0,.581.328c1.407.028,2.814.015,4.479.015a5.829,5.829,0,0,0-.687-1.222c-1.238-1.241-2.518-2.44-3.784-3.653q-.794-.761-1.59-1.518c-.32-.3-.634-.646-.215-1.059s.757-.08,1.068.222c.131.128.264.254.4.381l4.377,4.2M1.153,35.813a18.066,18.066,0,0,1,2.309.017,3.39,3.39,0,0,0,3.254-1.34c1.105-1.268,2.37-2.4,3.508-3.527l-2.447-2.5c-2.088,2.145-4.189,4.293-6.27,6.461a3.037,3.037,0,0,0-.354.889m11.2-24.455,1.941,1.986q2.142-2.146,4.269-4.281c.09-.09.224-.212.217-.311-.08-1.168-.183-2.335-.3-3.706l-6.13,6.311m5.186-7.051c-1.312,0-2.377-.005-3.442.007a.664.664,0,0,0-.427.146c-1.38,1.372-2.749,2.755-4.1,4.119l1.917,1.96,6.055-6.232M7.028,27.724l-2.388-2.4c-.809.826-1.63,1.66-2.443,2.5a.756.756,0,0,0-.226.392c-.166,1.6-.315,3.2-.445,4.552l5.5-5.047m4.113,4.229-3.772,3.81h7.6l-3.831-3.81M19.008,10.56,15.34,14.239l2.327,2.378c.461-.483.97-.974,1.423-1.512a1.164,1.164,0,0,0,.271-.75c-.09-1.271-.231-2.539-.353-3.794M8.6,7.532l3.173-3.168H5.423L8.6,7.532M8.494,3.046h5.7V1.155h-5.7ZM8.481,38.923h5.7V37.045h-5.7ZM3.849,24.411,2.458,23.1,2.2,26.111l1.652-1.7m15.982-5.487-.255-2.406-.993.882,1.249,1.524" transform="translate(0 -0.001)" fill="#224b74" stroke="#224b74" stroke-width="1"/>
      </g>
    </g>
  </g>
</svg>
